<?xml version="1.0" encoding="UTF-8"?>
<svg xmlns="http://www.w3.org/2000/svg" xmlns:xlink="http://www.w3.org/1999/xlink" id="Ebene_1" data-name="Ebene 1" viewBox="0 0 280 103">
  <defs>
    <style>
      .cls-1 {
        clip-path: url(#clippath-2);
      }

      .cls-2, .cls-3, .cls-4 {
        stroke-width: 0px;
      }

      .cls-2, .cls-4 {
        fill-rule: evenodd;
      }

      .cls-5 {
        font-family: RobotoSlab-Bold, 'Roboto Slab';
        font-size: 29.36px;
        font-weight: 700;
      }

      .cls-3 {
        fill: none;
      }

      .cls-6 {
        clip-path: url(#clippath-1);
      }

      .cls-7 {
        clip-path: url(#clippath);
      }

      .cls-4 {
        fill: #ebb723;
      }
    </style>
    <clipPath id="clippath">
      <rect class="cls-3" x="9.01" y="7.91" width="79.73" height="79.35"></rect>
    </clipPath>
    <clipPath id="clippath-1">
      <rect class="cls-3" x="8.15" y="7.69" width="81.75" height="81.75"></rect>
    </clipPath>
    <clipPath id="clippath-2">
      <rect class="cls-3" x="-43" y="-139.04" width="375" height="375"></rect>
    </clipPath>
  </defs>
  <g class="cls-7">
    <path class="cls-4" d="M71.21,51.13c-8.72.45-8.34,12.35-1.61,12.92,2.04.17,4.87-1.09,4.87-4.74-.58-1-1.8-.96-3.01-.16-.03.02-.05.02-.08,0-.03-.02-.03-.05-.02-.08,1.01-2.65,5.5-1.87,5.5,3.41,0,7.2-3.39,14-6.82,16.52-.04.03-.08.03-.12,0-.04-.03-.05-.07-.03-.12,1.51-2.68.75-6.8-2.62-7.36-2.06-.34-3.56,1.54-3.6,2.94-.04,1.26.59,2.52,1.58,3.02.12.06.24.13.34.2.11.08.21.16.31.26.1.09.18.19.26.3.08.11.15.22.21.34.06.12.11.24.15.37.04.13.07.26.09.39.02.13.03.26.03.4,0,.13-.01.27-.04.4-.5,3.04-2.54,5.19-5.46,6.78-.02.01-.04.03-.05.06,0,.02,0,.05,0,.08.01.02.03.04.05.06.02.01.05.02.07,0,11.42-2.77,18.33-15.15,18.52-24.67.12-6.16-2.96-11.58-8.55-11.29ZM72.69,26.12c-6.37,0-9.46,4.44-9.44,8.87.01,4.44,3.13,8.87,8.23,8.87,6.37,0,7.86-6.34,5.33-9.74-1.97-2.64-6.61-1.91-6.61,1.74,0,3.43,3.88,3.79,5.31,2.24.05-.05.1-.07.17-.04.07.03.1.07.1.15-.04.83-.88,2.59-3.78,2.59-6.84,0-6.69-10.9,1.22-10.9,5.78,0,10.56,6.37,10.82,11.26,0,.03-.01.04-.04.05-.03,0-.05,0-.06-.03-.49-1.26-2.2-3.54-3.95-4.49,0,1.35-.21,2.66-.64,3.94,0,0,3.76,1.42,5,4.99,0,.03,0,.05-.02.06-.02.01-.04.01-.06-.01-2.79-2.98-7.73-1.41-8.19,2.23-.39,3.16,2.4,4.9,4.51,4.9.15,0,.3-.01.45-.04s.3-.07.44-.12c.14-.05.28-.12.41-.19.13-.08.25-.16.37-.26.12-.1.22-.21.32-.32.1-.12.18-.24.26-.38.07-.13.14-.27.19-.41.05-.14.09-.29.11-.44.02-.15.04-.3.03-.45,0-.15-.02-.3-.05-.45-.03-.15-.07-.29-.13-.44-.06-.14-.12-.28-.2-.41-.08-.13-.17-.25-.27-.37-.1-.11-.21-.22-.33-.31-.12-.1-.25-.18-.38-.25-.13-.07-.27-.13-.42-.18-.3-.1-.61-.15-.93-.13-.32.02-.62.09-.91.22-.02.01-.04,0-.06,0-.02-.01-.03-.03-.03-.06.07-.63.7-1.48,2.08-1.48,3.27,0,4.98,5.61,3.48,9.96-.03.09-.1.15-.2.16-.1.01-.18-.02-.23-.1-.64-.89-1.58-1.44-2.44-1.37-1.04.09-1.87,1.03-.9,2.77,2.08,3.69.22,11.32-1.89,15.1-.01.02-.02.05-.01.07,0,.02.02.05.04.06.02.02.04.03.07.03.03,0,.05,0,.07-.02,5.35-4.16,9.2-16.47,9.2-26.37,0-9.33-6.08-20.47-16.05-20.47ZM64.82,12.41c.07.03.12.01.17-.04.05-.05.06-.11.03-.17-.69-2.86-4.08-4.5-6.85-4.09-1.72.25-3.4,1.31-3.03,3.28.03.19.09.38.18.56.09.18.19.34.32.49.13.15.28.28.44.39.17.11.34.19.53.25.19.06.38.09.58.1.2,0,.39-.01.59-.06s.37-.12.55-.22c.17-.1.33-.22.47-.36,1.48-1.34,4.26-1,6.02-.13ZM64.83,24.1c.21,0,.41-.02.62-.05.21-.03.41-.07.61-.14.2-.06.39-.13.58-.22.19-.09.37-.19.54-.3.17-.11.34-.24.49-.38.16-.14.3-.29.43-.45.13-.16.25-.33.36-.5.11-.18.21-.36.29-.55.1-.23.22-.43.38-.62.16-.19.34-.35.54-.48.2-.13.42-.24.66-.3.24-.07.47-.1.72-.1.48,0,.95.07,1.4.23.45.16.86.4,1.23.72-1.39.99.17,3.42,1.85,3.31,1.62-.11,4.79.9,7.09,2.95.04.03.07.04.11.01.04-.03.05-.06.04-.11-2.66-7.68-10.1-11.86-16.99-11.86-4.09,0-6.57,3.8-4.53,6.86.19.3.42.57.68.82.26.24.55.45.86.63.31.17.64.31.98.4.34.09.7.14,1.05.15ZM31.13,80.11c-.02-.13-.03-.26-.04-.4,0-.13,0-.27.03-.4.02-.13.05-.26.09-.39.04-.13.09-.25.15-.37.06-.12.13-.23.21-.34.08-.11.17-.21.26-.3.1-.09.2-.18.31-.25.11-.08.22-.14.34-.2.99-.49,1.62-1.76,1.59-3.02-.04-1.4-1.54-3.28-3.6-2.94-3.36.56-4.12,4.68-2.62,7.36.02.05.01.09-.03.12-.04.03-.08.04-.12,0-3.43-2.51-6.82-9.32-6.82-16.52,0-5.27,4.48-6.06,5.5-3.41.01.03,0,.06-.02.07-.03.02-.05.02-.08,0-1.21-.8-2.43-.84-3.01.16,0,3.65,2.83,4.91,4.87,4.74,6.74-.57,7.11-12.47-1.61-12.92-5.58-.29-8.67,5.13-8.55,11.29.19,9.52,7.1,21.9,18.52,24.67.03,0,.05,0,.07,0,.02-.01.04-.03.05-.06,0-.03.01-.05,0-.08,0-.03-.03-.04-.05-.06-2.92-1.59-4.96-3.74-5.46-6.78h0ZM39.58,8.11c-2.76-.41-6.16,1.23-6.85,4.09-.03.06-.02.12.03.17.05.05.11.07.17.04,1.76-.87,4.54-1.21,6.02.13.14.14.3.26.47.36.17.1.35.17.55.22.19.05.39.07.59.06.2,0,.39-.04.58-.1.19-.06.37-.14.53-.25.17-.11.31-.24.44-.39.13-.15.24-.31.32-.49.09-.18.15-.37.18-.56.37-1.97-1.31-3.03-3.03-3.28ZM31.97,15.25c-6.89,0-14.34,4.18-16.99,11.86-.02.05,0,.08.04.11.04.03.08.02.12-.01,2.3-2.04,5.48-3.06,7.09-2.95,1.68.11,3.24-2.32,1.85-3.3.37-.31.77-.55,1.23-.71.45-.16.92-.24,1.4-.23.24,0,.48.03.72.1.23.07.45.17.66.3.2.13.38.3.54.48s.28.39.38.62c.08.19.18.37.29.55.11.18.23.34.36.5.13.16.28.31.43.45.16.14.32.26.49.38.17.11.35.21.54.3.19.09.38.16.58.22.2.06.4.1.61.13.21.03.41.05.62.05.36,0,.71-.06,1.05-.15.34-.09.67-.23.98-.4.31-.17.6-.38.86-.63.26-.24.49-.52.68-.82,2.04-3.06-.45-6.86-4.53-6.86ZM16.49,57.72c.98-1.74.14-2.68-.9-2.77-.86-.07-1.8.48-2.44,1.37-.06.08-.13.12-.23.1-.1-.01-.17-.07-.2-.16-1.49-4.35.21-9.96,3.48-9.96,1.38,0,2.01.85,2.08,1.48,0,.01,0,.02,0,.03,0,.01-.01.02-.02.02-.01,0-.02.01-.03.01-.01,0-.02,0-.03,0-.29-.13-.59-.2-.91-.22-.32-.02-.63.03-.93.13-.14.05-.28.11-.42.18-.13.07-.26.16-.38.25-.12.1-.23.2-.33.31-.1.11-.19.24-.27.37s-.15.27-.2.41c-.06.14-.1.29-.13.44-.03.15-.05.3-.05.45,0,.15,0,.3.03.45.02.15.06.3.11.44.05.14.11.28.19.41.07.13.16.26.26.38.1.12.2.23.32.32.12.1.24.19.37.26s.27.14.41.19c.14.05.29.09.44.12.15.03.3.04.45.04,2.1,0,4.9-1.74,4.51-4.9-.46-3.64-5.4-5.22-8.19-2.23-.02.02-.04.02-.06,0-.02-.01-.03-.03-.02-.06,1.24-3.57,5-4.99,5-4.99-.43-1.28-.64-2.59-.64-3.94-1.75.96-3.46,3.23-3.95,4.49,0,.03-.03.03-.05.03-.03,0-.04-.02-.04-.05.27-4.89,5.05-11.26,10.82-11.26,7.91,0,8.05,10.9,1.22,10.9-2.91,0-3.74-1.75-3.78-2.59,0-.07.03-.12.1-.15.07-.03.12-.01.17.04,1.43,1.55,5.31,1.19,5.31-2.24,0-3.65-4.63-4.38-6.6-1.74-2.53,3.4-1.04,9.74,5.33,9.74,5.1,0,8.21-4.44,8.23-8.87.01-4.44-3.07-8.87-9.44-8.87-9.97,0-16.05,11.13-16.05,20.47,0,9.9,3.86,22.21,9.2,26.37.02.02.04.02.07.02.03,0,.05,0,.07-.03.02-.02.03-.04.03-.06s0-.05-.01-.07c-2.1-3.78-3.96-11.41-1.89-15.1Z"></path>
  </g>
  <g class="cls-6">
    <path class="cls-2" d="M52.79,84.84c-1.3.16-2.61.24-3.92.24V18.47c5.82,10.21,8.02,23.92,8.02,35.14-.03,5.27-.39,10.52-1.08,15.74-.69,5.23-1.7,10.39-3.03,15.49h0ZM49.48,8.81s-.08-.09-.12-.12c-.04-.04-.09-.07-.15-.09-.05-.03-.11-.05-.16-.06-.06-.01-.11-.02-.17-.02s-.12,0-.17.02c-.06.01-.11.03-.16.06-.05.03-.1.06-.15.09-.05.04-.08.08-.12.12-7.32,9.71-12.09,25.45-12.09,43.23,0,10.9,1.79,24,4.86,34.84.06.23.16.46.29.66.13.21.28.39.47.55.18.16.38.29.61.39.22.1.45.17.69.2,3.85.56,7.69.56,11.54,0,.24-.03.47-.1.69-.2.22-.1.42-.23.61-.39.18-.16.34-.34.47-.55.13-.21.22-.43.29-.66,3.07-10.84,4.86-23.95,4.86-34.84,0-17.78-4.77-33.51-12.09-43.23Z"></path>
  </g>
  <g class="cls-1">
    <text class="cls-5" transform="translate(103 45.12)">
      <tspan x="0" y="0">S</tspan>
    </text>
    <text class="cls-5" transform="translate(123.92 45.12)">
      <tspan x="0" y="0">U</tspan>
    </text>
    <text class="cls-5" transform="translate(149.2 45.12)">
      <tspan x="0" y="0">R</tspan>
    </text>
    <text class="cls-5" transform="translate(172.5 45.12)">
      <tspan x="0" y="0">F</tspan>
    </text>
    <text class="cls-5" transform="translate(103 74.37)">
      <tspan x="0" y="0">C</tspan>
    </text>
    <text class="cls-5" transform="translate(125.13 74.37)">
      <tspan x="0" y="0">O</tspan>
    </text>
    <text class="cls-5" transform="translate(149 74.37)">
      <tspan x="0" y="0">M</tspan>
    </text>
    <text class="cls-5" transform="translate(179.76 74.37)">
      <tspan x="0" y="0">P</tspan>
    </text>
    <text class="cls-5" transform="translate(201.87 74.37)">
      <tspan x="0" y="0">A</tspan>
    </text>
    <text class="cls-5" transform="translate(226.07 74.37)">
      <tspan x="0" y="0">N</tspan>
    </text>
    <text class="cls-5" transform="translate(251.86 74.37)">
      <tspan x="0" y="0">Y</tspan>
    </text>
  </g>
</svg>
