<?xml version="1.0" encoding="UTF-8"?>
<svg xmlns="http://www.w3.org/2000/svg" xmlns:xlink="http://www.w3.org/1999/xlink" version="1.1" id="Ebene_1" x="0px" y="0px" viewBox="0 0 600 600" xml:space="preserve">
<g>
	<g id="Hose_00000067208971408330293050000002445280403723039405_">
		<path fill="#E88638" d="M304.8,419.9c-2-4.6-1.6-9.9-3.3-14.6c-2.7-7.3-4.6-14.9-5.6-22.6c-0.5-6.4-2.2-35.3-4.8-35    c-7.1-0.2-16.7,0.1-23.7,0.6c-9.1,1-27,1.7-27.5,3.9c-0.3,1.1-13.3,70.6-13.3,70.6c-0.6,2,0.8,3.9,2.9,3.3    c5.6,1.9,11.9-0.6,17.6-0.9c7-0.7,14.1-0.5,21.2-0.6c6.9-1.1,3.9,2.5,9.2,2.9c8.2,0.2,16.5-0.8,24.6-2.2    C305.4,425.1,306.7,422.7,304.8,419.9z M283.9,357.2C283.9,357.2,283.9,357.2,283.9,357.2c-0.1,0-0.1,0-0.2,0c0,0,0,0,0,0    C283.8,357.2,283.8,357.2,283.9,357.2z"></path>
		<path fill="#A84D27" d="M262.5,422.6c0.1-10-0.5-20,0.4-30c2.8,1.6,5.2,4,5.4,7.7c0.4,6.7,0.9,13.4,1.8,20.1    C271.1,424.2,264.7,422,262.5,422.6z"></path>
		<path fill="#CF5E2A" d="M252.3,423.1c0.1-10.5,0.2-20.9,2-31.2c0-1.8-0.8-3.7,0.1-5.5c2.3,2.1,5.2,3.5,7.7,5.5l0,0    c0.9,1.1,1.7,2.3,1.3,3.8c-0.5,6.6-0.1,13.3-0.1,19.9C264.3,426.3,260.2,422.4,252.3,423.1z"></path>
		<path fill="#CF5E2A" d="M288.2,423.5c4.5-20.2,2.9-41.9-3.7-61.5c2.4-0.7,6.1-0.6,6.2,2.7c2,10.9,2.8,22,3.9,33    c0,7.3,4.3,19.6-0.8,25.3c-0.3,0-0.6,0-0.9,0.1c-0.2-0.1-0.3-0.1-0.5,0C291,423.9,289.6,423.5,288.2,423.5z"></path>
		<path fill="#A84D27" d="M293.7,423c1.2-2.9,2-5.8,1.5-9.2c-0.8-6.1-0.7-12.4-1.6-18.4c-1.2-11.2-1.8-22.5-4.6-33.4    c3.8-1.2,4.9,4.1,5.2,6.9c0.8,5.8,0.5,11.5,1.6,17.2c1,9,7.5,35.1,7.9,37.1C301.1,423,296.6,423,293.7,423z"></path>
		<path fill="#CF5E2A" d="M283.5,350.3c0-0.4,0-0.9,0-1.3c0.6-0.1,1.2-0.1,1.8-0.2c0.2-0.1,0.4-0.1,0.7-0.1c3.3-0.1,3.5,0.1,3.2,3.6    c-0.6,1.8,0.2,3.6,0.4,5.5c-0.1,0.6-0.8,1.1-1.5,1.1c-1.7-0.2-3.3-0.5-5-0.7c-0.3-0.3-0.4-0.6-0.4-1c-0.1-1.2,0.3-2.3,0.6-3.4    C283.5,352.6,283.6,351.5,283.5,350.3z"></path>
		<path fill="#A84D27" d="M289,358.7c0-2.1,0-4.8-0.3-6.9c0.1-3.5,0.1-3.5-3.3-3.8c1.6-0.1,5.8-0.8,6.5,1.2c0.5,3,0.1,5.9,0.5,8.9    C291.9,359.6,290,358.9,289,358.7z"></path>
		<path fill="#693920" d="M249.2,361.3c0.6-2.1,0.4-4.5,1.7-6.3c1.5,0.9,1.6,2.9,2.3,4.4c-0.2,0.1-0.3,0.2-0.5,0.2    c-0.5-0.5-0.9-1.1-1.6-1.9c-0.3,1.2-0.5,2.2-0.8,3.2C250,361.1,249.6,361.2,249.2,361.3z"></path>
		<path fill="#693920" d="M262.5,358.7c-0.2-2.6-0.9-5.2,0.1-8C263.1,353.5,263,358.7,262.5,358.7z"></path>
		<path fill="#F2C092" d="M276,412.7c2.6,8.2-0.5,9.9,9.5,7.5c0.3-0.1,0.7,0.2,1,0.4c-11.4,5-9.3,2.3-11.2-7.7    C275.5,412.8,275.8,412.7,276,412.7z"></path>
		<path fill="#F2C092" d="M240.5,362.4c-0.1,0-0.2,0-0.2,0c-3.1-8.1,5.9-10.2,12.5-9.7c-2.7,0.9-4.8,1.6-7,2.3    C242,355.2,240.3,358.6,240.5,362.4z"></path>
		<path fill="#693920" d="M271.9,351c0.9,1.4,1.7,3.7,0.6,5.1c-0.8-0.6-0.4-1.3-1.2-2.2c-0.3,0.8-0.7,1.5-1.1,2.5    C269.8,354.9,269.8,350,271.9,351z"></path>
		<path fill="#693920" d="M282.6,357.2c0.1-2.4,0.2-4.6,0.9-6.9C284.7,352.6,282.8,357.2,282.6,357.2z"></path>
		<path fill="#693920" d="M245.3,355.1c0.2,0,0.3-0.1,0.5-0.1c0.6,1.1,0.2,5.2-0.8,5.7C243.8,359.2,245.3,356.9,245.3,355.1z"></path>
		<path fill="#693920" d="M255.6,359.1c0-2.3,0-4.6,0-6.9C256.8,353.5,257,357.1,255.6,359.1z"></path>
		<path fill="#693920" d="M277.3,352.6c0-0.4,0.1-1-0.2-1.3c0.1-0.2,0.3-0.4,0.4-0.6c1,1.8,0.2,4.3,0.3,6.3    C277,355.6,277.4,354,277.3,352.6z"></path>
		<path fill="#F2C092" d="M240.5,420C240.5,420,240.5,420,240.5,420c-15,0.7-6.5-2.5-5.9-16.4c0.2-2,1.1-4,1-6    c0-0.3-0.1-0.6-0.4-0.6c-0.6,0-0.6,0.6-0.7,0.9c-0.9,5.1-3.2,13.4-4.2,20.1c-0.6,4.9,6.6,3.4,9,3.2c1.2-0.1,3.2,0,4.7-0.9    C242.9,419.7,241.3,420.3,240.5,420z"></path>
		<path fill="#F2C092" d="M275.6,410.7c-0.1,0.1-0.1,0.3-0.2,0.4c-0.2-0.3-0.4-0.5,0-0.8C275.4,410.5,275.5,410.6,275.6,410.7z"></path>
		<path fill="#693920" d="M288.6,351.4c1.4,2,1.4,3.8,0,5.3C287.9,355,287.8,353.2,288.6,351.4z"></path>
		<path d="M308.4,425.1c-6.3-26.3-10.5-49.1-13.7-77.9c-0.1-0.9-0.8-1.5-1.7-1.5c-3.3,0.1-9.8,0.3-9.8,0.3s-21.8,0.6-28.9,1.5    c-1.8,0.2-5.3,1-7.1,1.1c-2.5,0.2-10.2,0.7-10.4,4.1c-0.8,14.1-7.8,52.1-12.4,68.6c-1.6,5.9,6.5,7.8,10.1,7.9    c7.4-0.5,24.5-1,32.7-1.9c2.2,0,5.1,1.3,8.4,3.2c6.5,2.6,14.2-0.8,20.7-1.3C299.3,429.1,309.8,432.2,308.4,425.1z M278.4,425.2    c-0.9,0.3-2.4,0.5-2.8-0.7c-0.6-1.9-5-40-6.5-41.4c-0.5-0.4-0.6,8.9-1.6,9.1c-1.5-1.8-9.1-4.7-13.1-5.8c-1.3,0.6,12,7.9,12.5,10.8    c2.3,5.8,2,24.8,2,24.8c-4-0.4-22.1,1.2-29.4,1.5c-2.3,0.1-7.6,0-9.1-0.1c-0.7,0-1.3-0.2-1.7-0.6c0,0,0,0-0.1,0c0,0,0,0,0,0    c-0.8-0.7-1.1-2.2-0.9-2.9c11.4-47.7,6.9-44.6,12.1-63c0.9-6.9,10.5-5.5,14.3-6.3c6.3-1.3,21.8-1.2,29-1.2c9.5,0,7.7-2.4,8.4,6.8    c0.5,2.8,0.5,2.8-2.3,2.2c-1.9-0.2-3.9-0.3-5.8-0.6c-10-0.2-22.5,2.1-30,2.6c-3.5,0.2-13.2-0.1-13.6,3.2    c77.9,1.7,41.8-12.5,63.6,59.3C295,421.8,286.5,423.1,278.4,425.2z"></path>
	</g>
	<g id="Bein_Rechts_00000146483448960627219980000017636368875196052397_">
		<path fill="#E1CCB9" stroke="#000000" stroke-width="2" stroke-miterlimit="10" d="M336.1,537.8c1.4-11.2-18.3-19.3-25.5-26.5    c-2.1-2-1.9-5.3-2.5-8c-0.9-8.5-4-16.5-5.9-24.8c-1.8-6.1,1.4-12.4-2.1-18.2c-1.8-8.7-2-17.7-4.2-26.4c-0.4-0.8,0.2-7.9-1.1-7.3v0    c-1.1,0-14.6,0-15.2,0c2.1,27.7,7.2,59.9,11.5,87.2c0.3,2.1-0.5,3.8-1.2,5.7c-2.3,6-3.3,12.3-2.8,18.7c-2.3,5.6-3.6,14.8,3,15.6    c16.9,1.9,26.6,0.1,39.9-2.4C339.7,549.2,340.2,546.3,336.1,537.8z"></path>
		<path fill="#C09E80" d="M328.1,531.5c-1.9-0.1-3.7-0.3-5.6-0.4c0.8,3.1,1.5,6.1,2.3,9.2c1.9-0.3,3.7-0.6,5.6-0.9    C329.7,536.7,328.9,534.1,328.1,531.5L328.1,531.5z"></path>
		<path fill="#95775D" d="M330.5,539.4c-0.8-2.6-1.6-5.3-2.3-7.9c1.9-1.2,2.5-1.1,3.6,0.7c0.4,0.7,0.7,1.4,1,2.1    C333.8,536.8,333.2,538.2,330.5,539.4z"></path>
		<path fill="#C09E80" d="M299.8,465.3c-0.4-2.7-0.4-5-1.7-7.4c-0.2-0.4-0.6-1-0.6-2.1c0-0.9-1-6.5-0.6-7.7c0.6-1.6-0.5-4.3-0.5-5.7    c-0.8-4-1.7-8.1-2.1-12.1c0-0.4,0.3-1.4-0.3-2l-4.3-1.2c0,10.5,1.6,22.3,4.7,32.4c1.3,3.9,2.3,7.9,1.5,12.1    c-0.2,0.8-0.3,1.7,0.7,2.2C299.4,471.6,300.3,468.6,299.8,465.3z"></path>
		<path fill="#E5D1BD" d="M313.2,521.8c-4.8-4.5-8.4-10.1-10.6-16.2c-1.9-5.4-3.2-11-4.7-16.5c-0.1-0.5-0.3-1-0.5-1.5    c-0.5-2.3-0.9-4.7-1.4-7c-0.8-1.3-1-2.6,0.1-3.8c0,0,0,0,0,0c-1.3-1.1,0.1-1.8,0.6-2.9c-1-0.5-0.9-1.4-0.7-2.2    c0.8-4.2-0.2-8.2-1.5-12.1c-3-10.1-4.6-22.2-4.6-32.7l-8.5,0.3c0,0,0,1.2,0,1.2c3.8,25,6.7,50.6,11.3,75.7c0.6,4.8,0.7,9.7,0,14.6    c0.1,3.4-1.8,6.8,0,10c6-1.2,12.6,0.9,17,5.8c2.4-3.8,5.9-6,10.2-6.9l-0.1-0.2C317.6,525.5,315.2,523.8,313.2,521.8z"></path>
		<path fill="#F0ECE7" d="M292.7,528.6L292.7,528.6L292.7,528.6c-1.8-3.2,0.1-6.6,0-10c-2.2,6.4-6.3,19.8,2.4,22.7    c0.8-3-2.6-7.3-2.8-10.8C291.5,529.7,291.8,529.1,292.7,528.6z"></path>
		<path fill="#C09E80" d="M326,527c-0.2-0.3-1-1-1.2-1.1c0,0,0,0,0,0c0,0,0,0,0,0c-4.4-3.5-8.5-7.2-13.2-10.4    c-0.4-0.3-1.4-0.7-1.5-0.6c-0.9,1.1-1,0.2-1.2-0.4c-2.1-5.8-3.7-11.7-4.5-18c-0.8-6.3-2.4-12.6-3.5-18.8c0-1.2-1.4-3.4-2.4-2.4    c-0.7,0.6-1.6,1-2.4,1.4c-1.1,1.2-0.9,2.5-0.1,3.8c0.5,2.3,0.9,4.7,1.4,7c0.2,0.5,0.4,1,0.5,1.5c1.6,5.5,2.8,11.1,4.7,16.5    c2.2,6.2,5.8,11.7,10.6,16.2c2.1,2,4.6,3.9,6.8,5.7c1.7-0.1,3.2-0.4,4.8-0.5h0l0,0C325.2,527,325.6,527,326,527z"></path>
		<path fill="#F0ECE7" d="M318.3,531.9c3.3,1.2-4,4.9-5.3,6.8C312.2,535.6,315.9,533.2,318.3,531.9z"></path>
		<path fill="#F0ECE7" d="M281.4,427.8c0,0-0.4,0.5-0.4,0.5s0.7,9.9,1.1,12.2c1.6,9.3,3.3,23.2,5,34c1.5,9.1,3.2,16,3.2,16s0,0,0,0    C287,469.7,284.5,448.2,281.4,427.8z"></path>
		<path d="M336.1,537.8c1.4-11.2-18.3-19.3-25.5-26.5c-2.1-2-1.9-5.3-2.5-8c-0.9-8.5-4-16.5-5.9-24.8c-1.8-6.1,1.4-12.4-2.1-18.2    c-1.8-8.7-2-17.7-4.2-26.4c-0.4-0.8,0.2-7.9-1.1-7.3v0c-1.1,0-14.6,0-15.2,0c2.1,27.7,7.2,59.9,11.5,87.2c0.3,2.1-0.5,3.8-1.2,5.7    c-2.3,6-3.3,12.3-2.8,18.7c-2.3,5.6-3.6,14.8,3,15.6c16.9,1.9,26.6,0.1,39.9-2.4C339.7,549.2,340.2,546.3,336.1,537.8z     M330.5,539.4c-7.2,1.5-14.6,0.5-21.9,0.9c0,0,0,0,0,0c-4.5,0.3-10.7,0.6-13.5,0.9c-0.1,0,0-0.1,0,0c-8.7-2.9-2.4-22.2-2.4-22    c1.5-10.2-2.3-28.7-2.3-28.7c-3.9-17.1-8-45.1-9.3-62.1c1.7,0,4.2-1.2,6.7-1.2c2.5,0,4.9,1.2,6.5,1.2c0,0,0,0.1,0,0.2    c-0.1,6.7,2.9,12.9,2.8,19.5c-0.4,1.1,0.4,6.9,0.4,7.9c1.7,5.8,4.9,13.2-0.7,18c0,0,0,0,0,0c-0.5,1.1-1.9,1.8-0.6,2.9v0    c1.2-0.1,2.9-2,3.7-1.3c1.5,1.9,1.2,4.7,1.9,7c2.3,10.8,3.1,22,7.3,32.3c0.2,1,0.7,0.6,1.2,0.1c5.3,2.8,9.7,7.5,14.6,11    c0,0,0,0,0,0c0.1,0,0.9,0.7,1.2,1.1c-0.4,0-0.8,0-1.2,0.1l0,0h0c-6.1-0.3-11.8,1.8-15.1,7.3c-4.4-4.9-11-6.9-17-5.8    c-0.9,0.5-1.2,1.1-0.4,1.9c5.8-0.6,13.4,3.6,15.8,8.6c2.7,1.5,2.9,0.8,2.9-2c1.5-1.2,5.6-6.2,11.6-6c0,0.2,0.1,0.4,0.1,0.5    c0-0.2-0.1-0.4-0.1-0.5c1.9,0.1,3.7,0.3,5.6,0.4v0c2.6-2.2,3.6,0.7,4.6,2.8C333.8,536.8,333.2,538.2,330.5,539.4z"></path>
		<path fill="#6B513E" d="M290.6,547.3c-3.7-0.6-2.4-4.1-2.6-7.2c3.5,5.9,10.3,5,16,4c4,0.4,25.8-0.1,29.4-1.4    c-0.9,0.3-3.5,4.8-18.4,5.1C310.8,547.9,294.2,547.9,290.6,547.3z"></path>
		<path fill="#4C3227" d="M327.7,545.9c-6.2,1-12.9,0.3-18.8,1.9c0.1,0,0.2,0,0.3,0c2.5,0,4.7,0,5.9,0    C321,547.7,325,546.9,327.7,545.9C327.7,545.9,327.7,545.9,327.7,545.9z"></path>
	</g>
	<g id="Bein_Links_00000183234323310423055880000015941564151981935787_">
		<path fill="#E1CCB9" stroke="#000000" stroke-width="2" stroke-miterlimit="10" d="M257.9,426.6h-0.5h-16.1h-1.4h-0.9    c0,0-3.1,22.7-6.6,28.1c-3.6,3.2-5.7,10.5-3.8,15c2,4,2,8.2,1,12.4c0,0,0,0,0,0c-3.5,18.5-0.5,24.6-19.3,34.1    c-0.9,0.4-16.1,9.7-22.4,14.4c0,0,0,0,0,0c-0.9,0.8-1.9,1.6-2.8,2.3c0,0-3.2,1-6,3.2c-2.8,2.3-5.2,5.9-5.8,6.5c0,0,0,0,0,0    c-0.6,0.2-4.9,7.8,0.2,10.1c0,0,21.8,9.5,39.2,4.9c11-3,28.4-19.1,31.6-23.7c6.4-9.1,1.1-17.5-0.1-23.2c-0.1-0.4,3.2-20,4-24.7    c0.9-4.7,1.9-9.3,2.7-14c0.4-2.1,0.3-4.3,1-6.3c1-2.8,0.9-5.7,1.6-8.5c0.6-2.3,0.7-4.7,1.1-7c0.4-2.7,0.9-5.3,1.4-8    c0.3-1.7,0.6-3.4,0.9-5.2c0.3-1.9,1.5-10.4,1.5-10.4H257.9z"></path>
		<path fill="#6B513E" d="M175.5,547.8c-1.9-0.6-1.2-2.2-0.7-3.6c2.3,2.1,6.3,2.4,9.2,2.6c10,0.6,16.5,1.7,25.3,0.3    c5.7-0.9,11.4-1.7,14.5-2.7c-4.9,3.1-12.3,7-18.3,8.3C194.8,554.8,185,552.1,175.5,547.8z"></path>
		<path fill="#4C3227" d="M213.2,550.7c0.3-1.9-1.4-5.2,10.9-7.1c-1.1,0.2,1.1,1.1-0.5,2.5C221.5,548,215.5,550.6,213.2,550.7z"></path>
		<path fill="#6B513E" d="M239.2,533c1.5-2.3,1.4-5.7,1.2-5.9c2.2-2.7,2.5-6.6,2.3-9.8c0.2,0,0.3,0,0.5,0    C246.2,520.8,244,530.6,239.2,533z"></path>
		<path fill="#95775D" d="M252.6,452.8c-1.2-8.3-0.2-16.9,1.4-25.1c1.3-0.2,2.5,0.2,3.7,0C255.8,436.3,254.2,444.2,252.6,452.8z"></path>
		<path fill="#C09E80" d="M232.9,515.2c0.2-0.5,6.1-27.7,6.6-30c1.7-6.7,2.8-6.6,3.7-9.2c1.6-4.3,2.2-9.1,3.4-13.5    c1.4-6.7-2-6.4-1.1-12c1.4-6.6,4.1-23.8,4.1-23.8l8.1,1.2l-3,18.5l-10,54.1c0,0-1.2,8.7-1.8,14.2c4.8,9.9,1.4,18.3-9.3,23.8    c-10,5.1-27.2,7.6-27.2,7.6s0-0.5,0-2.7c0-1,4.8-1,10.2-4.6c4.8-3.1,10.1-9.8,10.5-10.3c2.2-2.3,3.5-5.4,4-8.6    C231.1,516.5,232,516.1,232.9,515.2z"></path>
		<path fill="#EBDBC9" d="M185.3,544.9c-3.8-0.6-12.1,0.1-7-5.7c0.2,0,0.3-0.1,0.3-0.3c0.1,0,0.2-0.1,0.2-0.2l0.2,0c0,0,0-0.2,0-0.2    c3-3.2,17.1-7.8,16.9-0.1c0.4,4-5,3.3-6.3,6.5C188.1,544.9,186.7,544.7,185.3,544.9z"></path>
		<path fill="#95775D" d="M228.2,538.2c3-4.4,6.1-8.7,8.3-13.5c1.5-2.5,7.2-6.8,5.9-9.5c0.5,1,9.2,12.8-11.5,25    C229.4,541.1,228.5,540.8,228.2,538.2z"></path>
		<path fill="#EBDCC9" d="M240.9,427c-2.4,0-1,3.3-1.5,4.8c-0.4,2.9-1,5.7-1.3,8.6c-0.4,3.8-1.1,7.5-2.5,11c-0.5,1.3,0.3,1.5,0.8,2    c-6.2,2.4-9.9,11.2-5.1,20.9c0.7,1.5-4.1,29.3-6.4,32.2c-0.1,0.1-2.7,2.9-3.4,3.8c-6.5,5-21.1,11.1-23.6,15.5    c1.3,5.5,6.8-1.2,9.3,1.9c2.5,4.9,11-3.4,14-5.2c3.4-2.7,10.9-3.7,12-7.8c3.4-12.8,4.2-20.8,7-31.8c-0.8-6.6-2.8-13.2-0.2-19.7    c2.5-8.1,3.2-16.7,2.9-25.1c0-2.8-1.3-8.6,1.2-10.1c0.4-0.1,0.7-0.4,0.7-0.8C243.3,427,242.1,427,240.9,427z"></path>
		<path fill="#F0ECE7" d="M179.4,540.7c1.1-2.3,3.1-3.5,5.4-4.1c0.4-0.1,0.8,0.2,1.2,0.3c-0.2,0.4-0.4,0.8-0.6,1.1    c-0.1,0.1-0.2,0.2-0.4,0.3c-1,0.4-2,0.8-3,1.3c-0.8,0.4-1.6,1-2.4,1.5C179.6,541,179.5,540.9,179.4,540.7z"></path>
		<path fill="#F0ECE7" d="M231.1,460.1c0.5-0.6,1-1.1,1.4-1.7c0.5-0.7,1-1.4,1.5-2.1c0.1,0.1,0.3,0.2,0.4,0.2    c-0.1,0.4,0,0.8-0.2,1.2c-1.6,3.2-2.1,6.7-1.9,10.3c0.1,1,0.1,1.9-1.3,1.8c-0.7-2.7-1-5.4-0.6-8.1    C230.6,461.2,230.9,460.6,231.1,460.1z"></path>
		<path fill="#F0ECE7" d="M200.3,524.7c-2.5-1.2,16.1-11.3,16.1-11.3s4.1-4,5.3-2.5C223.9,513.6,203.2,525.9,200.3,524.7z"></path>
		<path d="M257.9,426.6h-0.5h-16.1h-1.4h-0.9c0,0-3.1,22.7-6.6,28.1c-3.6,3.2-5.7,10.5-3.8,15c2,4,2,8.2,1,12.4c0,0,0,0,0,0    c-3.5,18.5-0.5,24.6-19.3,34.1c-0.9,0.4-16.1,9.7-22.4,14.4c0,0,0,0,0,0c-0.9,0.8-1.9,1.6-2.8,2.3c0,0-3.2,1-6,3.2    c-2.8,2.3-5.2,5.9-5.8,6.5c0,0,0,0,0,0c-0.6,0.2-4.9,7.8,0.2,10.1c0,0,21.8,9.5,39.2,4.9c11-3,28.4-19.1,31.6-23.7    c6.4-9.1,1.1-17.5-0.1-23.2c-0.1-0.4,3.2-20,4-24.7c0.9-4.7,1.9-9.3,2.7-14c0.4-2.1,0.3-4.3,1-6.3c1-2.8,0.9-5.7,1.6-8.5    c0.6-2.3,0.7-4.7,1.1-7c0.4-2.7,0.9-5.3,1.4-8c0.3-1.7,0.6-3.4,0.9-5.2c0.3-1.9,1.5-10.4,1.5-10.4H257.9z M175.5,547.8    c-1.9-0.6-1.2-2.2-0.7-3.6c2.3,2.1,6.3,2.4,9.2,2.6c10,0.6,16.5,1.7,25.3,0.3c5.7-0.9,11.4-1.7,14.5-2.7c-4.9,3.1-12.3,7-18.3,8.3    C194.8,554.8,185,552.1,175.5,547.8z M224.8,540.4c-1.5,0.7-8.1,3.3-15.4,4.2c-7.6,1-15.8,0.4-18.8,0.2    c-5.7-0.4-11.4-2.2-13.3-2.9c0,0,3.1-4,7.1-6c1.9-0.9,11.3-2,16.1,0.1c4.7,2,4.8,7.3,5.2,7.7c0.9,1.3,2.6,0.5,3-0.7    c-2.2-9.5,11.1-8.4,13.2-7C223.2,537,225.4,539,224.8,540.4z M255.6,435.8c-1,5.8-2.1,11-3.3,16.7c-0.5,2.1-1.5,7.9-1.9,10    c-2.8,15.8-5.3,30.8-7,42.5c-0.2,1.3-0.5,3.6-0.8,4.8c-1.7,6.8-0.5,11-3.7,15.7c-0.8,0.8-1.7,1.7-0.7,2.8    c3.2,1.7,5.8-6.3,4.9-10.4c2.5,3.2-0.4,12-3.4,14.3c-3.5,2.7-5.8,5.5-10.1,7.3c-3.6-6.7-13.9-9.5-19.9-5.3c-1.1,0.8-2.4,2-4,1.5    c-1.6-0.8-3.5-2.5-6.1-3.2c-3.1-0.4-5.3-0.8-8.7-0.9c4.6-3.4,11.4-8.2,16.3-11.2c9.7-5.6,13.8-8.2,17-11.8c0.8-0.1-1,4.2,0.5,4.5    c1.5-0.1,4-11.4,4.1-13.6c1-6.2,1.2-11.6,1.9-17.5c0.5-4.1,1.2-3.3,1.4-4.2c0.2-0.9,3.3,3.4,3.8,2.7c0.5-0.7-2.4-4.1-4.1-8.6    c-1.4-4-1.6-9-0.4-12c2.3-6.9,8.1-5.9,4.3-7.5c1.4-2.1,4.3-18.6,5.2-24c0,0,5.8-1.2,7.7-1.2c2.1,0,8.4,1.2,8.4,1.2    C256.6,430.8,255.7,435,255.6,435.8z"></path>
	</g>
	<g id="Head_00000039854777918404179130000006396987113143729081_">
		<path fill="#95775D" d="M290.7,184.8c-5.8-1.6-8.7-3.5-7.4-12.1c1.1-7.6-17.8,7-23.5,10.7c-0.8,0.5,0.2-2.9-0.8-3.7    c-2-1.6-7.2,2.6-9.9,5.1c-1.3,1-2.7,3.8-4.6,2.9c-0.8-0.6-0.9-1.6-0.5-2.5c0.6-1.4,1.2-2.4,1.3-4c-5.2,1.5-20,2.3-27,4.9    c-3.2,1.2-6.9,4.4-8.5,9.9c-2.5,8.8-1.8,22-1.8,23.7c2.2,1.2-3.5,23.6,36.9,10.3c12.8,1.3,11.5-2.6,12.8-11.4    c0.6-3.7,6.4-14.4,29.9-14.7c0,0,0,0,0,0c0.8,0,1.4,0,1.3,0c-1.9-2.1-3.8-5.1-3.4-8.1C285.6,187.6,294.3,186.1,290.7,184.8z"></path>
		<path fill="#291E1C" d="M292.2,158.1c-3,2.5-7.6,3.9-11.1,5.3c-0.6,0.2-64.3,18-79.7,20.3c-0.3,0.1-0.5,0.2-0.8,0.3    c-1.6,0.3-2.6-0.4-4.3,0.4c-0.1,0-0.1,0.1-0.2,0.1c-1.3,2.4-2.9,4.6-4.7,6.6c-0.1,0.5-0.1,1-0.2,1.5c0.4,3.6,6.8,12.9,8,11.9    c2.3-1.9,2.6-1,3.7-0.7c2.1,0.9,3,2.3,3.3,3.9c0.8-0.2,1.6-0.2,2.3,0.2c0.2-7.9,1.5-15.9,8.3-20c7.8-4.7,18.4-3,27.3-5.6    c0.1,1.9-2.2,4.1,0.2,5.8c2.8,1.4,7.8-6.1,12.5-7.6c2.2-0.7,2,0,1.7,1.8c-0.5,3.5,3.9,0.7,5-0.4c4.8-3.7,10.1-8.2,15.9-10.1    c6.9-2.3,0.2,4,4.7,10.3c1.2,1.7,6.9,2.7,6.9,3.5c0,0.7-2.9,2-4.7,5.2c-1,1.8-1.8,8.7,0.2,11.5c2.5,3.6,8.1,3.1,8.1,3.1    s4.4-22.6,7-34.8C298.8,166.1,296.9,160.3,292.2,158.1z M199.2,201.4c-1.8-2.8-6-8.2-5.5-8.6c0.8-1,1.4-1.9,2.4-2.6    c0.4-0.5,0.2-1.5,1.1-1.6c0.8-0.1,1.4,0.5,1.6,1.2C199.9,193.6,204.4,198.8,199.2,201.4z"></path>
		<path fill="#291E1C" d="M198.1,147c0.3-4,3.2-5.7,6.5-6.1c3.5-0.3,8.3-4.5,5.3-3.9c-3,0.6-11.4,2.2-13.5,5.2    c-0.3,0.9-0.7,2.5-1,4.6C196.3,146.3,197.3,146.5,198.1,147z"></path>
		<path fill="#4C3227" d="M301.8,159.5c-0.3,0.5-0.6,0.9-0.9,1.4c-0.8,1-1.7,1.9-3.2,1.4c0-0.4-0.1-0.8,0-1.2c0.9-2.3,1.2-4.6,0.6-7    c-0.5-1.9-0.8-3.8-1.3-5.7c-0.2-0.6-0.1-1,0.6-1.2c1.1,1.4,1.5,3.3,3.1,4.4c0.3,0.2,0.1,1,0.1,1.5c0,1.1,0.8,2,0.8,3.1    C301.6,157.3,302.3,158.1,301.8,159.5z"></path>
		<path fill="#6B513E" d="M301.7,157.2c-0.3-1.1-0.6-2.3-0.9-3.4C301.4,154.5,302,156.1,301.7,157.2z"></path>
		<path fill="#6B513E" d="M303.1,153c-0.1,0.2-0.2,0.3-0.3,0.5C302.8,153.3,302.9,153.1,303.1,153z"></path>
		<path fill="#693920" d="M298,148.9l6.5,11.5c0,0-2.6,13-4,19.1c-1.1,4.7-7.7-12.2-8.5-15.1C291.3,161.7,298,148.9,298,148.9z"></path>
		<path fill="#C09E80" d="M210.5,218.6c5.3,21.3,5.8,11,23.9,8.8c3.4-0.4,7.9-1.4,13.4-1.1c6.7-0.3,1.5-25.9,7.5-35    c1-1.5,1.4-3,1.8-4.6C252.8,186.9,212.5,217.7,210.5,218.6z"></path>
		<path fill="#4C3227" d="M193.1,191l2.2-3.8l1.3-1.6c0,0,1.8,2.5,2.3,3c0.4,0.5,1.3,1.1,0.9,2.2c-0.1,0.3,0.4,0.9,0.6,1.4    c0.6,1.3,1.6,2.6,1.8,3.9c0.2,1.5-0.1,3.1-0.6,4.5c-0.1,0.4-1.2,1.5-1.9,1.7c-1-0.2-2.4-0.9-2.6-1.6c-0.5-1.2-1.2-2.5-1.9-3.5    C192,193.1,193.1,191,193.1,191z"></path>
		<path fill="#4C3227" d="M290.4,165c0.3,1.2,2.1-2.1,2.4-0.9c0.3,1,3,5.2,3,6.2c0,2.1,2.8,7.4,3.6,9.3c0.4,1.2-0.3,6.5-0.7,5.6    c-0.8-2-6.7-9.3-6.9-11.5c-0.1-1.5-0.6-3-0.7-4.5C291,167.7,288.7,166,290.4,165z"></path>
		<path fill="#C09E80" d="M198.9,204.3c0.7-0.7,1.5-0.9,3-0.8c9.2,0.9,5.2,15.3,4,16.3c-0.6-0.1-2.7-1.6-3.1-2.1    c-0.8-0.9-3.8-4.9-4.3-7.2C197.6,206.8,197.9,205.4,198.9,204.3z"></path>
		<path fill="#95775D" d="M201.9,208.5c-0.1-1-0.3-2-0.3-3c0-0.7,0.2-1.3,0.2-2c2.3,0.2,5.2,2.6,5.3,4.8c0.1,0.8-0.2,1.8-0.2,2.7    C205.1,210.9,203.4,209.3,201.9,208.5z"></path>
		<path fill="#95775D" d="M204.2,218.7c-0.1-0.1-0.2-0.2-0.2-0.4c1.4-0.3,1.1-1.3,0.7-2c-0.7-1.4-1.6-2.7-2.1-4.1    c-0.4-1-0.5-2.2-0.7-3.3c1.9,0.4,3.2,1.6,4.1,3.3c1.1,2.1,0.4,4.1,0.4,6.1C206.5,219.5,204.6,219.3,204.2,218.7z"></path>
		<path fill="#C7AD92" d="M208.5,207.3c0.3,0.2,0.9,0.5,0.9,0.8c0.2,1.3,0.2,2.6,0.3,4c-0.6-0.2-1.2-0.4-1.8-0.6    C208.1,210,208.3,208.6,208.5,207.3z"></path>
		<path fill="#4C3227" d="M206.5,213.2c-1.2-1.5-3.2-3.1-4.6-4.3c0-0.1,0-0.3,0-0.4c1.6,0.8,3.1,1.6,4.7,2.3    C206.6,211.4,206.5,212.1,206.5,213.2z"></path>
		<path fill="#C09E80" d="M280.1,203.8c-17.3,2-21.7,8.5-23.3,14.9c-1.3,5.1-0.3,10.7-6.7,11.1c-12.4,0.9-9-3.1-9.2,4.5    c-0.1,5.4,0.5,19.8-1.5,21.5c5,2.4,14.7,4.7,21.1,2c3.4-1.4,23.6-16.1,26.3-18c3.7-3.2,4.7-7.9,4.7-7.9l3.8-27.4    C295.4,204.6,282.3,203.5,280.1,203.8z"></path>
		<path fill="#95775D" d="M285.6,206c0,0,4.6-0.3,6.5-0.3c0.8,0,3.1,0.1,3.1,0.1l-1.6,12.8c0,0-8-0.1-8.2-2.2    C285.4,213.1,285.6,206,285.6,206z"></path>
		<path fill="#E1CCB9" d="M278.6,231.6c-3.1,2.5-5.6,1.2-8.9,1.2c-0.9,0-7.6,1.4-7.6,1.4s-1.2,3-2.2,3.1c-6.2,0.1-19.1-8.2-23.3-9.7    c-4.3-1.6-11.6-1.3-19.2,2.5c-6.1,4.8-6.8-25.6-9.2-18.5c-2.9,10.4,4.6,20.6,12.5,26.8c7.3,5.6,9.1,8.4,13.5,11.8    c12.7,9.7,17.9,6.3,19.5,6.1c4.9-0.6,12.2-5.5,17.2-9.4c0.9-0.5,5.1-4.7,5.1-4.7c2.6-3,3.6-6.8,5.2-10.3    C280.3,231.7,279.2,231.3,278.6,231.6z"></path>
		<path fill="#EBDBC9" d="M249.4,249.1c1.9,0.4,6.6,2,8,5.1c0.7,1.6-1.4,1.8-6.7,2.7c-5.8,1-12.2-3.6-15.9-7.4    c1.6-0.3,4.1-1,5.4-1.1C242.6,248.3,247.2,248.7,249.4,249.1z"></path>
		<path fill="#95775D" d="M273.7,248.8c0.5-1.7,1.3-4.3,2.4-5.3c2.3-2.2,8.3-4,11.5-5.6C284.6,240.7,277.5,246.4,273.7,248.8z"></path>
		<path fill="#342928" d="M260.3,259.4c-0.4,0.3-0.8,0.5-1.2,0.8c-0.3,0-0.6,0-0.9,0.1C258.6,258.9,259.6,259.4,260.3,259.4z"></path>
		<path fill="#342928" d="M262.9,257.9c-0.4,0.3-0.9,0.6-1.3,0.9C262,258.5,262.4,258.2,262.9,257.9z"></path>
		<path fill="#342928" d="M270,254.2c0.2-0.2,0.4-0.5,0.6-0.7c0.1,0.1,0.1,0.1,0.2,0.2C270.4,253.8,270.2,254,270,254.2    C270,254.2,270,254.2,270,254.2z"></path>
		<path fill="#342928" d="M258.3,257.9c0.2-0.1,0.3-0.1,0.5-0.2C258.6,257.8,258.4,257.9,258.3,257.9z"></path>
		<path fill="#342928" d="M267.4,255.2c-0.2,0.2-0.4,0.3-0.6,0.5C266.9,255.5,267.2,255.4,267.4,255.2z"></path>
		<path fill="#6B513E" d="M251.8,125.2c0.2,0,0.3,0,0.5,0C252.1,125.2,251.9,125.2,251.8,125.2z"></path>
		<path fill="#F0ECE7" d="M241.4,254.2c-2.8-1.9-4.8-4-7.8-5.5c-2.4-1.8-8.6-8.1-17.7-15.1c-5.1-3.9-6.5-15.3-7.7-15.6    c-1.5,14.5,7.4,18.6,12.5,22.6c6.2,4.8,10.2,12.8,26,17.3C249.9,258.9,245.5,256.3,241.4,254.2z"></path>
		<path fill="#E1CCB9" d="M203.3,217.5c-2.9-2.5-4.7-5.9-5-9.7c0.4,0.2,1.5,0.4,1.6,0.7c1.1,2.4,2.2,4.7,3.2,7.1    C203.3,216.2,203.2,216.9,203.3,217.5z"></path>
		<path fill="#DCC4AE" d="M259.7,231.8c-1.2-0.8-2.4-1.5-3.7-2.3c3-4.2,7.2-6.2,11.9-7.5c1.6-0.4,3-1.1,4.6-1.5    c3.1-0.9,6.2-1.9,9.3-2.5c2.8-0.5,4.3-0.8,3.1,3.1c-1.1,3.6-1.8,7.3-3.7,10.7c-3.5,1-7,1.7-10.6,1.3c-1.7-0.2-3.4-0.1-4.8,1.2    C263.4,234.5,261.8,232.5,259.7,231.8z"></path>
		<path d="M304.3,157.4C304.3,157.5,304.3,157.5,304.3,157.4c-1.9-7.1-8.9-16.3-8.9-16.3l-0.1,3.9c0,0,4.4,8.3,6,11.4    c0.4,0.7,1.2,3.5,1.8,5.7c-7.1,27.7-12,62.8-13.1,70.7c-0.3,2.2-2,4.9-3.8,5.9c-18.4,12.2-28.2,28.4-51.4,13.3    c-5.3-3.2-8.5-8.8-13.6-12.2c-15.9-9-13.1-24.2-11.9-39.7c0,0-7.3,2.3-8.7,2.5c-0.5-0.3-2.5-2.2-3.7-3.7c-2.1-2.6-2.7-4.4-3.1-6    c-0.2-0.7,0.1-2.1,0.4-2.7c0.5-1.2,1.6-2.9,3-4.2c-0.1-0.1-0.1-0.2-0.2-0.2c-0.3-0.3-0.6-0.6-0.8-1c-2.1,1.3-3.9,4.1-4.3,4.9    c-2,4.4,3.3,11.1,6.2,14.2c-3.4,5.9,3.5,14.4,5.4,15.5c1,0.6,2.6,1.2,3.1,3.6c2.3,12.7,13.4,18.4,21.4,26.8    c23.5,22.5,38.6,8.7,60.4-8.5c2.5-1.2,4.7-4.5,5-7c-0.1-0.1,6-46.9,12.3-69.6C306.3,161.7,304.3,157.4,304.3,157.4z M206.6,209.5    c-0.7,4,0.4,5.5-0.5,7.9c0.5,3.6-2.4,0.6-3.5-0.5l0,0C190.4,200.6,207.2,201.1,206.6,209.5z"></path>
		<g>
			<g id="Mouth_00000139269391710376959710000007460487597257838752_">
				<path fill="#291C1C" d="M260.8,236.5c-1.2,2.1-1,4.4-3.8,6.3c-11,7.7-11.6,3.9-15.5,3c-2.8-0.7-5-5.7-7.1-8.8      c-1-1.5-0.8-2,1-2.3c2.1-0.1,4.3-0.6,6.2-0.6c3.1,0,6.3-1.2,9.4-0.7C253.7,233.9,259.4,234.4,260.8,236.5z"></path>
				<path fill="#CF5E2A" d="M248.7,245.5c-3.5,0.7-6.7-0.1-9.2-3.1c1.9-1.7,8.2-2.7,9.3-2.8c1.3-0.1,3-1.1,5,0.2      C257.6,242.1,251.7,244.8,248.7,245.5z"></path>
				<path fill="#A84D27" d="M250,239.3c-0.1,0.4-0.3,1-0.4,1.4c-0.4,0-0.6-0.2-0.6-0.6c-0.3-0.2-0.6-0.3-0.9-0.5      C248.7,239.6,249.3,239.4,250,239.3z"></path>
				<path fill="#693920" d="M249,240.1c0.2,0.2,0.4,0.4,0.6,0.6c-1.2,1.2-1.7,3.6-3.6,3.5C245.9,242.4,248,241.5,249,240.1z"></path>
			</g>
			<g>
				<path fill="#F0ECE7" d="M235.6,225c0.2-4.2,1.7-4.5,3.3-5.8c0.3,0.4,1,1,1.2,1.5c-0.7,1.1-1.9,2-2.3,3.2      C237.5,225,236.3,224.9,235.6,225z"></path>
				<path fill="#E1CCB9" d="M240,226.6c1.1-2.5,5.7,0.4,8.4-1.4c2.2-3.5,2.5-7.6-2.8-7.5c-3.5,0.3-2.6-1.8-2.7-4.4      c-0.2-1.7,1.4-7.4-0.4-7.9c-0.2,0-0.8,1.3-1,2c-0.8,7.6-7.6,13.9,1.3,12.9c-1,0.1-2,0.2-3.1,0c-2.1,0.8-2.8,3.1-4.5,4.4      C235.8,226.3,238.1,228,240,226.6z"></path>
				<path fill="#5D4C41" d="M240.1,220.7c-0.1-0.1-0.2-0.3-0.3-0.4c1.5-0.2,3-0.5,4.6-0.5c1,0,2.1,0.3,3.1,0.9      C245.1,221.1,242.6,221.4,240.1,220.7z"></path>
				<path fill="#342928" d="M249.3,229.1c-4.4-0.8,3.8-2.8,5.1-3.4C254.4,227.6,250.5,229.3,249.3,229.1z"></path>
				<path fill="#342928" d="M238.8,226.4c1.8,0.5,5.7,0,5.5,2.4c-1.6-0.1-0.8,0.3-4.2-0.5c-10.1-2.3-2.6-9.6-0.1-14.9      c-0.9,1.9,0.5,4.9-1.2,6.3C236,220.8,235.3,225.4,238.8,226.4z"></path>
			</g>
			<g>
				<g>
					<path fill="#807067" d="M233.4,212.3c0,0-6.5,0.2-8.6,0.2c-2,0-8.1-0.2-8.1-0.2c-0.2,0-0.3-0.1-0.3-0.3c0,0-0.2-5.4-0.2-7.2       c0-1.6,0.2-6.6,0.2-6.6c0-0.2,0.1-0.3,0.3-0.3c0,0,5.8-0.2,7.8-0.2c2.2,0,9,0.2,9,0.2c0.2,0,0.3,0.1,0.3,0.3       c0,0,0.1,5.1,0.1,6.8c0,1.8-0.1,7-0.1,7C233.7,212.2,233.5,212.3,233.4,212.3z"></path>
					<path fill="#FFFFFF" d="M233.4,211c0,0.5-0.5,1-1,1c-1.9,0-5.9,0.1-7.4,0.1c-1.6,0-5.5-0.1-7.4-0.1c-0.6,0-1-0.5-1-1       c0-1.6-0.1-4.8-0.1-6.1c0-1.2,0.1-4.2,0.1-5.7c0-0.6,0.5-1,1-1c1.8,0,5.6-0.1,7.1-0.1c1.6,0,5.8,0.1,7.7,0.1c0.5,0,1,0.4,1,1       c0.1,1.6,0.2,4.6,0.2,5.9C233.6,206.3,233.5,209.5,233.4,211z"></path>
					<path fill="#703234" d="M228.8,212.1c1-1.7,1.7-4,1.7-6.6c0-3.1-0.9-5.8-2.3-7.4c-1.4,0-2.7,0-3.4,0c-0.7,0-1.8,0-3,0       c-1.4,1.7-2.3,4.4-2.3,7.4c0,2.6,0.6,4.9,1.7,6.6c1.5,0,3,0.1,3.9,0.1C225.8,212.2,227.3,212.1,228.8,212.1z"></path>
					<path fill="#291E1C" d="M228.2,201.1c-0.3-3.4-4.6-3-5.7-0.4c-1.2,3.4,1,9.4,4.8,7.1C229.6,206.4,228.2,201.1,228.2,201.1z"></path>
				</g>
				<path opacity="0.4" fill="#1D1D1B" stroke="#1D1D1B" stroke-miterlimit="10" d="M236.8,210c0,0-5.4,4.9-11.8,4.9      c-6.8,0-11.7-4.7-11.7-4.7l-1.2-9.3c0,0,6.8-4.4,13-4.3c5.7,0.1,12.7,3.5,12.7,3.5L236.8,210z"></path>
				<g>
					<path fill="#807067" d="M272,214.4c0,0-6.5,0.2-8.6,0.2c-2,0-8.1-0.2-8.1-0.2c-0.2,0-0.3-0.1-0.3-0.3c0,0-0.2-5.4-0.2-7.2       c0-1.6,0.2-6.6,0.2-6.6c0-0.2,0.1-0.3,0.3-0.3c0,0,5.8-0.2,7.8-0.2c2.2,0,9,0.2,9,0.2c0.2,0,0.3,0.1,0.3,0.3       c0,0,0.1,5.1,0.1,6.8c0,1.8-0.1,7-0.1,7C272.3,214.3,272.2,214.4,272,214.4z"></path>
					<path fill="#FFFFFF" d="M272,213.2c0,0.5-0.5,1-1,1c-1.9,0-5.9,0.1-7.4,0.1c-1.6,0-5.5-0.1-7.4-0.1c-0.6,0-1-0.5-1-1       c0-1.6-0.1-4.8-0.1-6.1c0-1.2,0.1-4.2,0.1-5.7c0-0.6,0.5-1,1-1c1.8,0,5.6-0.1,7.1-0.1c1.6,0,5.8,0.1,7.7,0.1c0.5,0,1,0.4,1,1       c0.1,1.6,0.2,4.6,0.2,5.9C272.2,208.4,272.1,211.6,272,213.2z"></path>
					<path fill="#703234" d="M267.4,214.2c1-1.7,1.7-4,1.7-6.6c0-3.1-0.9-5.8-2.3-7.4c-1.4,0-2.7,0-3.4,0c-0.7,0-1.8,0-3,0       c-1.4,1.7-2.3,4.4-2.3,7.4c0,2.6,0.6,4.9,1.7,6.6c1.5,0,3,0.1,3.9,0.1C264.4,214.3,265.9,214.3,267.4,214.2z"></path>
					<path fill="#291E1C" d="M266.8,203.2c-0.3-3.4-4.6-3-5.7-0.4c-1.2,3.4,1,9.4,4.8,7.1C268.3,208.6,266.8,203.2,266.8,203.2z"></path>
				</g>
				<path opacity="0.4" fill="#1D1D1B" stroke="#1D1D1B" stroke-miterlimit="10" d="M275.4,212.7c0,0-5.4,4.9-11.8,4.9      c-6.8,0-11.7-4.7-11.7-4.7l-1.2-9.3c0,0,6.8-4.4,13-4.3c5.7,0.1,12.7,3.5,12.7,3.5L275.4,212.7z"></path>
				<path d="M284.6,203.4c-1.3-0.2-2.5-0.4-5.1-1.5c-4-1.6-8.6-4.5-14.9-4.6c-7.4-0.1-10.9,1.8-14.1,2.3c-0.6,0-3-0.9-5.5-0.7      c-2.6,0.2-5.1,1.6-5.4,1.5c-1-1-2.6-4.4-8.9-4.7c-4.4-0.2-14.2-2-19.2,4.5c-1.1,1.4-12.8-1.2-12.8-1.2l0.3,3.2      c0,0,7.4,2.4,12,3.8c0.4,3.7,2.6,8.7,7.7,10.1c0,0,0,0,0,0c2.3,0.7,5.7,1.7,11.6,0.1c4-1.1,6.2-2.8,8.1-5.2      c1.6-2.1,2.1-4.3,2.3-5.3c0.1-0.4,0.3-0.7,0.6-0.9c0.8-0.4,2.3-1,3.8-1.1c1.3-0.1,2.6,0.4,3.3,0.7c0.4,0.2,0.6,0.5,0.7,0.9      c0.1,1.7,0.6,6.7,2.8,9.8c3.4,4.7,10.4,5,15.8,4.3c8.7-1.2,6.9-9.5,13-11.7c1.5-0.8,3-0.7,5.1-0.7c0,0,9.4,0,9.4,0l0.4-3.1      C295.6,203.8,286.9,203.8,284.6,203.4z M236.4,206.6c-0.7,2.9-2.1,4.4-4.2,5.6c-2.2,1.3-5,1.8-7.4,1.9c-1.5,0-6.4-1.4-8-2.9      c-1.8-1.6-2.8-4.2-3-8.8c0.3-2.3,4.5-3.5,7.2-3.9c1.9-0.2,5.4-0.6,10.1,0.1c2,0.3,6.3,1.9,5.9,4.9      C236.8,204.5,236.7,205.5,236.4,206.6z M273.5,209.9c-1.4,2.6-2.5,5.9-5.7,6.8c-5.7,1.6-13.7-0.1-15-6.5c-0.7-3.3-0.6-6.3,1-7.7      c2-1.9,5.7-2.4,10.3-2c5.4,0.5,10.7,3.2,10.6,4.6C274.7,206.6,274.7,207.6,273.5,209.9z"></path>
			</g>
			<path fill="#6B513E" d="M221,194.4c3.1-0.6,6.1-1.5,9.3-0.8C229.1,194.8,222.6,195.1,221,194.4z"></path>
			<path fill="#6B513E" d="M259.8,196c-5.4,1.3,7.5,0.1,9.8,0.6C267.8,194.4,262.7,195.6,259.8,196z"></path>
			<path fill="#291E1C" d="M228.4,186c-5.7,1.3-13.2,3.1-14.3,8.8c7-6.6,34.3,0.5,18.2-8.2C231.1,185.9,229.7,185.7,228.4,186z"></path>
			<path fill="#291E1C" d="M254.1,193.1c0.8-7.2,11.2-5.8,15.9-2.9c4.4,2.4,12.5,3.5,13.7,8.8c-1.7,0.9-3.9-1-5.4-1.7     C271.1,192.8,262.2,194.1,254.1,193.1z"></path>
			<path fill="#6B513E" d="M265.7,234.4c2.8,3.8-5.2-0.8-5.9-2.6C262,231.9,263.7,233.6,265.7,234.4z"></path>
			<path fill="#5D4C41" d="M230.8,232.3c-0.5,2.4-2.9,5.2-5.5,5.1c-0.1-0.2-0.2-0.4-0.2-0.5C226.9,235.2,228.6,233.5,230.8,232.3z"></path>
		</g>
		<g>
			<path fill="#6B513E" d="M201.9,140.2c0-0.4,0.7-4.9,5.2-7.6c6.3-3.1,14-1.9,18.6-1.7c0.1,0,7.3-6.3,14.2-7.6     c6.2-1.2,16.9,1.4,16.9,1.4S204.3,139.6,201.9,140.2z"></path>
			<path fill="#F0ECE7" d="M239.3,123.7c-5.2,1.2-12.3,6.5-12.3,6.5l2.6-3c0,0,3.3-2.3,4.3-3c2.5-1.2,5.2-1.7,8-2.1     c2.3-0.3,4.7-0.4,7,0.1c2.2,0.5,4.4,0.9,6.6,1.4c0.3,0.1,0.7,0.1,1,0.3c0.3,0.2,0.5,0.5,0.5,0.8c0,0.1-1.4,0.4-1.6,0.5     C255,125.3,246.7,122.1,239.3,123.7z"></path>
			<path fill="#F0ECE7" d="M226,131.7c0,0-4.2,0.4-5.6,0.5c-2.6,0.2-6.9,0.3-10.2,1.1c-2.3,0.5-4.2,2.8-6.3,4     c-0.3,0.1-0.5,0.3-0.7,0.5c-0.2-0.3,0.5-1.8,1-2.4c2.9-3.5,5-4.6,11.2-4.9c2.6-0.2,5.2,0.2,7.8,0.4     C224,130.9,226,131.7,226,131.7z"></path>
			<path d="M259.6,124.4c-6-2.1-13.5-4.8-19.9-3v0c-6.9,2.2-8.1,3.2-14,8.4c-9-2.7-23.2-0.9-25.2,10.2c1.8,1.5,2.1-1.1,2.4-1.9     c2.7-8.3,13-7.4,20-7c3.1,0.2,3,1,3.4,0.5c0.8-0.8,3.4-4.5,8.5-7.4c3.8-2.1,9-2.2,12.2-1.8c2.5,0.3,9.8,2.3,9.8,2.3     S260.2,124.7,259.6,124.4z"></path>
		</g>
	</g>
	<g>
		<path fill="#92928D" d="M205.2,140.2c1.7-0.4,73.4-17.9,78.9-19.1c0.5,0.4,0.6,0.9,0.8,1.4c2.7,8.7,5.7,17.2,7.8,26.1    c0.8,3.3,0.9,6.7-0.1,10.1c-1.4,0.8-2.7,1.8-4.1,2.4c-2.8,1.2-5.8,2.3-8.6,3.4c-0.3,0.6-74.7,23.3-82.1,19.5    c-3.2-1.6,0.1-31.8,0.1-35.4C197.5,141.9,201.9,141,205.2,140.2z"></path>
		<path fill="#6C6960" d="M292.5,158.7c0.9-13.1-5.8-25-8.5-37.6c8,0.1,6.5,15.3,9.4,21.1C294.6,147.2,298.3,155.4,292.5,158.7z"></path>
		<path opacity="0.5" fill="#6C6960" d="M224.7,178.7c-4.6,1-15.1,3.9-21.6,4.8c-4,0.5-5.8,1.5-6-2.4c-0.7-10.8,28-11.7,34.9-24.5    c1.7,1.1,3,3.1,4.7,4.2c-1.3,4.8-6.2,5.4-9.6,7.7c-6.6,3.3-11.1,4.1-15.7,11.4C217,179.9,222.6,177.7,224.7,178.7z"></path>
		<path fill="#342928" d="M234,156.6c-4.8,12.8-31.5,15.7-39.1,27.1c-2.5,3.8-0.1-7.5,1.2-10.4c0.8-1.9,9.9-1,14.5-3.3    c7.6-3.2,15.5-6.6,21.5-13.2C233,155.9,233.3,155.2,234,156.6z"></path>
		<path d="M298.9,153.2c-2.3-9.5-6.7-26.3-8.8-31l0,0c-2.5-4.1-6.6-4.4-10.6-3.6c-4.6,1-69.5,17.9-69.5,17.9s-11.6,2.8-13.6,5.8    c-1.9,2.8-3.5,40.3-2.8,42.5c0.8,2.8,2,5.9,9.4,4.8c4.2-0.6,8-1.2,12-2.1c8.2-1.7,18-4.5,26.1-6.5c3.3-0.9,40.4-12.1,53.4-16.7    C297,163.4,300.3,159.1,298.9,153.2z M281.2,163.4c-20.5,6.1-78.9,22.1-82.9,20.4c-3.4-1.4-0.1-32.5-0.1-35.8    c-0.1-4.7,3.1-6.1,6.5-7c5.2-1.3,74.4-18.6,79-19.1c1.7-0.2,2.3-0.3,3.1,0.7c0.4,0.4,2.6,5.2,2.8,6.3c1.7,7.1,3.6,13.7,5.1,20.7    C297.5,158.2,285.8,162,281.2,163.4z"></path>
		<path fill="#DCC4AE" d="M258,166.2c8.8-3.5,17.8-6.4,26.7-9.7c7-2.4,0.2-9.7,0.9-14.5c3.4,4.5,6.3,14.6-1,16.6    c-8.8,2.8-17.5,6.2-26.5,8.2C258.2,166.7,258.1,166.4,258,166.2z"></path>
		<path fill="#B7ACA4" d="M251.9,168.1c1.6-0.4,3.2-1.8,4.8-1.4c-0.7,1.7-3.2,1.2-4.7,1.8C252,168.4,252,168.2,251.9,168.1z"></path>
		<path fill="#6C6960" d="M289.1,162c1.1-0.4,5.1-2.9,5.9-4.5c1.1-2.3,1.4-0.8,1.5-0.5c2,5.5-14.7,9.2-20.8,11.6    c-6.8,2-13.6,3.9-20.5,5.9c-13.2,4-26.1,8.1-39.7,10.7c-13.6,2.6-17.8,5-18.6-0.8c0.5,3.6,22-2.4,44.8-8.6    C260,170.9,279.1,166,289.1,162z"></path>
		<g>
			<path fill="#E88638" d="M252.3,154.1c-1.8,2.3-7.9,6.8-11.5,6.8c-3.3-0.4-10.8-6.3-9.5-14.1c0.6-3.4,19.6-9,22.8-9.3     c4.3-0.2,2.2,7.8,2.2,7.8S253.9,152,252.3,154.1z"></path>
			<path fill="#E5D1BD" d="M234.1,149c0.4-3,2.6-4.8,6.2-4.8C238,146,236.1,147.5,234.1,149C234.1,149,234.1,149,234.1,149z"></path>
			<path fill="#E5D1BD" d="M255.4,139.9c-4.8,3.3-5.3,0.2-0.6-1.4C256.1,138.5,256.1,138.6,255.4,139.9z"></path>
			<path d="M258.3,139.9c-0.2-3.2-2.5-4.9-5.6-4.1c-1.2,0.3-2.4,0.7-3.5,1.1c-5.3,2-17.1,6.3-19.3,9.3c-1.8,2.3,2.2,9.8,4.1,12.1     c1.6,2,4.9,4.1,7.4,4.1c2.8-0.1,7.9-3.4,9.9-5.4C255.8,152.2,258.9,146.7,258.3,139.9z M247.9,156.7c-2.6,1.9-6.1,3.6-8.3,3     c-1.7-0.5-4.2-3.1-5.2-4.8c-3.2-5.6-3.4-7.3-0.6-8.8c1.2-0.7,3.9-2.2,5.6-2.9c2.4-0.9,4.7-1.5,5.1-0.5c1.2,2.5,1.8,3.9,3.3,5.6     c0.9,1,3.7,3.8,3.6,4.2C251.5,153.3,250.5,154.8,247.9,156.7z M254.3,148.8c-0.9,2-1.3,0.9-2.9-0.5c-1.5-1.4-3-3.7-3.8-5.1     c-0.9-1.7-1.6-2,0.3-2.8c2.2-0.7,3.5-1.4,5.8-1.8c0.7,0,1.9,0.6,2,1.1C256.1,141.6,255.4,146.4,254.3,148.8z"></path>
		</g>
	</g>
	<g>
		<path fill="#E5D1BD" d="M210,244.3c10.1,7.9,17.1,17.1,29,22.3c4.4,0.9,2.3-5.3,3.7-7.5c0.3-0.5,1.8-0.4,2.3-0.2    c3,1.1,7,1.1,11.7,1.2c16.1-6.4,12.2-8.6,15.8-6.4c1.7,1,1.3,8.4,2.8,9.3c4.3,2.5,13.5,2.6,13.5,7.3c0.1,3,0.2,17.4,0.3,34.6    c0,5.5,1.6,29.6,2.8,40.6c0.1,0.8-13.9,2.5-15.1,3c-6.7-0.2-35.2,5.1-36,2.2c-5.6-19.9-15.3-47.1-21.4-63.1    c-4-10.6-10.2-15.6-13-18.2c-0.3-1.2-37.8-23.5-38.6-36.8c-0.4-6.3,7.1-45.3,14.8-68.3c3.4-10.1,13.7-13.3,13.7-13.3    s10.5-3,14.1-3.5c4.6-0.6,18.5-0.6,18.5-0.6l2.8,8.2c0,0-1.2,6.9-13.7,12.9c-4.8,2.3-23.4,6.3-23.4,6.3s-10.1,51-9.3,50.9    C191,227,204.9,241.6,210,244.3z"></path>
		<path fill="#C09E80" d="M191.1,192.2c0,4.3-7.3,38-8.6,36.4c-0.3-0.4,0.1-5.1,0.6-10.2c1.3-14.7,4.8-30.5,10.7-44.4    C193.8,179.6,192.2,186.3,191.1,192.2z"></path>
		<path fill="#C09E80" d="M284,346.1c-6.5-17.3-11.7-43.4-35.8-39.6c-0.7,0-1.6,0.2-1.7-0.7c10.7-2.4,21.6-3.5,32.5-3.1    c-0.2-1.3-1.8-0.7-1.7-3.1c0-4.8-1.2-9.7-1.1-14.5c0.1-5.3-7.8-9.1-10.5-14.2c-2.8-2.4-4.1-9.9-6.6-10.7c0-0.8,0.8-0.5,1.2-0.8    c2-1,3.8-2.2,5.9-3.1c3.5,10.6,12.1,19.1,14.8,30.3c3.4,19.6,4.6,40,6.1,59.7C286.1,346.3,285,346.6,284,346.1z"></path>
		<path fill="#95775D" d="M287.1,346.3c-1.6-13.6-2-27.3-3.6-40.9c-1.3-8-1.2-15.9-4.3-24c-3.4-8.7-11.4-15.5-12.8-24.8    c0.8-1.4,3.4-1.8,4.7-2.4l0,0c-0.9,2.6,3.1,16.1,5.9,15.4c-0.3-1.4-0.8-3.5-1-4.9c3.3,0,11.3,3.5,11.6,3.9    c0,2.3,0.1,43.7,1.7,61.6c0,4.5,1.2,9,1.5,13.5C291.1,345.5,287.3,346.6,287.1,346.3z"></path>
		<path fill="#EBDBC9" d="M224.7,286.1c0,0,24.1,31.6,27,42.5c1.2,4.5-2.7,32.5-9.6,16.2c-3-7.2-25.3-57.9-21-57.8    C223.9,286.9,224.7,286.1,224.7,286.1z"></path>
		<path fill="#EBDBC9" d="M195.8,251c14.3,20.1,9.2,17.6-0.3,10.9c-10.3-7.3-25.9-20.2-27.3-28c-0.9-4.6,0.6-9.9,1.4-14.3    c1.8-10.3,2.5-17.6,3.7-17.2c1,0.4,5.3,5.2,2.4,14.6C170.6,234.2,188.9,241.2,195.8,251z"></path>
		<path fill="#FFFFFF" d="M228.5,305.5c2,4.9,17.8,36.6,13.6,38.7c-5.9-12-9.4-25.1-14.5-37.5C227.1,305.9,227.2,305.2,228.5,305.5z    "></path>
		<path fill="#F0ECE7" d="M267.2,335.9c-1.5-9.3,3.5-0.2,0.7,2.4C267,337.7,266.6,336.9,267.2,335.9z"></path>
		<path fill="#5D4C41" d="M267.2,335.9c0.3,1.4,1.6,3.8-0.7,4.1C266.5,338.5,265.6,336.8,267.2,335.9z"></path>
		<path fill="#342928" d="M277.9,300.8c-5.8-0.4-13-0.7-17.3-0.1c-3.5,0.5-9.3,2.6-14.1,5c1.8,1.3,4.4-0.5,6-0.9    c8.8-2.1,17.9-2.2,26.8-1.3c0.5,0,0.9-0.6,1.4-1C280,301.7,279.1,301.1,277.9,300.8z"></path>
		<path fill="#FFFFFF" d="M260.6,300.1c-3.2,0.3-8.4,2.6-12.8,2.7c6.4-5.3,23.8-8,29.8-4C272.6,301,264.9,299.7,260.6,300.1z"></path>
		<path fill="#F0ECE7" d="M170.8,218.3c1.8,0.5,1.8,0.5,1.4,2.1c-0.6,2.4-1.2,4.7-1.7,7.1c-0.3,1.4-0.3,2.9-0.3,4.4    c0,1-0.4,1.4-1.4,1.4c-0.1-1.5-0.2-3.1-0.3-4.6c0.1-0.2,0.1-0.3,0.1-0.5C169.3,224.8,170.1,221.6,170.8,218.3z"></path>
		<path fill="#C09E80" d="M183.5,230.6c-0.4-0.3-1-1-1-1.4c4.3-1.9,5.3-3.2,9.4,0.4c5.6,5.5,11.8,10.4,17.5,15.7    C199.3,242.7,191.4,236.7,183.5,230.6z"></path>
		<path fill="#F0ECE7" d="M197.2,152c-11.5,2.1-14.4,11.9-15.8,19.7c0,0.6-0.1,1.3,0.7,1.5c2.2,0.1,2.7-3.2,3.3-4.8    C188.3,155,199.4,154.7,197.2,152z"></path>
		<path fill="#EBDBC9" d="M221,166.3c-0.1-0.4,1.4-5.7-0.1-10.6c-1.2-3.9-5.3-7.5-5.8-7.9c0.7-1,10.4-0.1,12.9,0.5l0,0    c0,0.4,4.1,6.2,3.9,6.5C231.9,158.6,222.7,165.9,221,166.3z"></path>
		<path d="M291.1,268.8c0.2-2.5-2.4-3.6-4.3-4.1c-7.2-3.1-10.7-6.1-11.4-9.2c-0.4-0.6-1.3-7-4.4-5c-4.8,3-8,5.5-11.5,6.6    c-7.7,2.5-13.2,0.4-13.3,0.4c-1.3-0.3-4.6-2.4-5.4-0.7c-0.4,0.8-1,6.4-1.4,7.8c-11.6-4-15.4-11.6-24.4-18.7    c-8.6-6.2-17-12.9-25.1-19.8c-4.3-3.4-1.6-9.6-0.7-14.1c4.4-28.3,5.9-30.1,6.1-32c1.2-8.9,16.7-7.5,23.2-11.7    c8.1-3.1,19.7-10.7,14.5-20.7c-3.1-4.3-9.1-1.4-13.5-1.7c-9.9,0.2-22.6,1.4-30.1,8.3c-8.7,7-9.6,19-13.1,31.1    c-3.3,13.1-7.1,27-9.7,39.8c-4.8,26.3,41.4,38,50.9,60.3c14.5,40.5,18.4,48.2,19.7,66c2.2,5,49.5-4.6,57.5-3.5    C291.9,322.2,290.6,294.6,291.1,268.8z M288.7,345.4c-1.9,1.4-25.7,1.1-34,3c-3.1,0.7-10.8,4.5-12.5-3    c-4.3-19.6-14.6-37.4-21-56.5c1.3,1,8.4,10,6.5,4.3c-6.8-20.9-30.1-31.8-46.9-45.4c-6.2-5.1-12.8-11.8-11.7-20    c4-22.3,13.8-64.6,16.7-67.9c1-1.1,4.2-5.1,10.5-7.6c6.8-2.7,8.4-5,30.5-3.7c0.4,0,0.5,0.6,0.1,0.8c-3.6,1.3-12.1,3.2-14.5,3.9    c-1,0.4,0,1.4,0.5,1.4c1.3,0,13.2-2.7,17.6-1.2c0.1,1.3-1,4.2-2.5,3.3c-1.7-0.5-5.6,0.5-7.2,0.9c-2.3,0.3-9.7,2.6-12,3.2    c-1.8,0.5,0.1,0.5,1.7,0.8c6.8-0.3,27.1-6.9,8.6,4.3c-1.7,0.7-9.3,3.7-10.7,4c-2.4,0.6-11.1,1.2-12,1.2c-1.7,0-2.8,1.9-2.9,4.1    c-0.2,4.3-3.6,16.1-3.3,17.3c-2,12.1-7.9,36-7.9,36s-0.1,0.5,0.1,0.7c2.7,0.7,3.8-3,7.1-0.7c4.2,3.6,8.2,7.5,12.4,11.1    c5,3.2,40.8,39.5,41.9,25.4c0.4-1-0.8-5.7,1-4.7c10.2,2,16.7,1,25.8-5.8c0,0,0.1,0.2,0.1,0.2c-1.3,10.4,9.9,22,5.5,10.3    c1.8,1.7,11.2,2.7,10.5,4.3c-0.8,21.6,0.3,43.6,2,65.1C289.1,337.9,291.3,342.9,288.7,345.4z"></path>
	</g>
	<g id="Board_00000021824748181003265270000003544266442807228840_">
		<g>
			<path fill="#99C7BB" d="M422,226.8c-6.8-63.5-23.5-144.2-61.4-184.5c-2.8-3.6-4.8,1.9-6.9,4.5c0,0,0,0,0,0     c-80.5,122.8-82,278.4-36.1,427.1c3.9,15.7,10,30.8,15.6,46c3.6,10.2,8.2,25.1,14.8,29.9c5.7,5,41.4,6.7,43.1-2.3     C419.1,466.2,429.9,299.1,422,226.8z"></path>
			<path fill="#A3D0C4" d="M349.4,549.7c-8.2-4.4-19.8-43.2-29.1-70.3c-17.1-50.3-26.3-103.4-29.1-156.5     c-1.1-14.3-3.9-47.9-1.5-80.2c2.7-37.2,12.6-72.7,13-75.4c9.7-56.2,51.3-124.1,55.7-124.4c12.5,13.9-13.4,53.1-20.1,70     c-21.9,55.9-39.4,190.8-15.1,270.9c53.2,175.1,42.1,169.6,42.1,169.6S356.7,553.5,349.4,549.7z"></path>
			<path fill="#69AC98" d="M340.9,517.3c0.9-0.3,1.9-0.6,2.7-0.9c0.9-0.3,1.6-0.7,1.6-1.8c0-1.5-2.8-23-3.2-25.2     c1.3-0.6,3,8.1,3.2,8.7c1.7,4.9,3.3,9.8,4.9,14.7c0.7,2.2,0,3.2-2.4,3.6c-1.9,0.3-3.8,0.6-5.7,0.9     C341.7,517.4,341.3,517.4,340.9,517.3z"></path>
			<path fill="#69AC98" d="M405.1,433.5c3.4-25.7,6.1-69.8,8.6-118c3.3-61.5,2.7-185.1-56.2-271.7c-1.6-2.3,0.9-3,1-2.3     c17.3,20.4,29.5,42,38.9,66.8c12.8,39.2,21.2,84.7,23.9,125.8c0.3,3.8,3.5,36.6,3.2,39.3c0.6,37.2-0.2,83-5,126.9     c-7.3,65.7-20.1,127.1-28.4,149.2c-0.9,2.5-22.5,3.6-22.5,3.6s-4-49.7-3.5-66.6c0.2-6.4,7.7,25.6,13,28.9     c3.7,2.3,4.4-22.9,7.5-28.3C398.6,464.9,402.6,451.9,405.1,433.5z"></path>
			<path fill="#C7E1DC" d="M351.8,55.8c-0.2-0.1-0.3-0.2-0.5-0.3c-19.9,33.6-46.6,105-50.5,141c1.7-1.2,4.4-16.5,8.9-32.7     c3.5-12.5,8.1-25.5,10.4-32.7C326.2,111.8,341,76,351.8,55.8z"></path>
			<path d="M370.1,535.1c-0.5-5.5-2-36.3-3.9-45.8c-2.4-21.1-3.4-122.6-4-141.1c-0.3-40.3,0.5-81.3-0.9-121.7     c-0.1-0.1-0.2-0.2-0.2-0.3c-0.1-34.6-1.5-145.7-3.8-148.8c-0.3,1.6,0.8,113.1,1.7,148.9c-0.1,0.1-0.2,0.1-0.2,0.1     c0.8,55,3,240.1,3.5,248.4c0.3,2.6-0.3,14.4-0.8,17.7c-2.7,17.5-12.8,36-14.8,40.6c-2.6,6.2,0.4,5.1,17.6,5.1     C366.8,538.3,370.4,539.3,370.1,535.1z"></path>
			<path d="M424.4,226.7c-6.9-63.7-24.2-144.7-63-185.2c-2.8-3.6-5,2-7.1,4.6c0,0,0,0,0,0c-82.7,123.3-84.1,279.4-37,428.8     c4,15.8,10.3,30.9,16,46.1c3.7,10.2,8.4,25.2,15.1,30c5.8,5,41.9,6.8,43.7-2.3C420.8,467,432.5,299.2,424.4,226.7z M423.4,272.7     c3.3,90.9-7.3,186.7-33.1,272.7c-0.6,2-3.8,4.7-8,5.3c-36.4,5.6-38.8-5.3-46.9-33.6c0,0-12-33.1-14.4-41.8l0,0c0,0,0,0,0,0     c-22.9-75.6-36.4-159.4-28.4-241.2c1.8-23,11.6-74.8,28.7-118.8c15.4-39.5,38.4-72.7,38.4-72.7s23.1,27.2,35.5,64     C413.1,159.9,422.3,232.9,423.4,272.7z"></path>
			<path d="M335.7,517.1c0,1.1,9.8,0.2,10.1-1c1-3.5-2.1-28.4-3.7-26.8C339.2,496.9,335.7,513,335.7,517.1z"></path>
			<path d="M386.1,486.6c1.4,4.6,1.4,9.4,1.9,14.1c0.3,5.4,1.4,9.8,1.1,16.3c-0.1,2.6-6.5,1.4-9.1,1.3c-3-0.1-3.5-0.8-2.7-3.6     c1.3-4.3,2.1-8.9,3.2-13.2C381.4,498.1,382.9,486,386.1,486.6z"></path>
			<path fill="#FFFFFF" d="M298.8,358.3c-0.3-4.4-0.6-8.8-1-13.2c-0.1-1.2-0.3-2.4-0.4-3.7c-2.1-12.7-0.6-100.7-1.9-85.8     c-1.5,34.6-1.6,69.7,2.7,104C298.7,359.2,298.8,358.7,298.8,358.3z"></path>
			<path fill="#F0ECE7" d="M329.2,490.8c-4.9-25.9-12.3-55-20.9-79.2C314.4,438,322,464.8,329.2,490.8z"></path>
		</g>
		<g>
			<g>
				<path fill="#E88636" d="M390.9,159.3c-3.6-2.7-8-3.4-12.4-3.9c-2.5-0.4-2.8-0.2-4,2.2c-4.2,8.5,0.2,25.6,10.7,32      c2.2,1.3,5.1,3.9,7.1,2.2C396.9,186.2,399.6,165.7,390.9,159.3z"></path>
				<path fill="#CF5E2A" d="M394.5,172.5c-1-15.6-13.1-14.9-17.5-15.1c0.3,1.3,15.6,0.6,14.9,15.4c-0.7,14.3-4.5,15.7-4.5,15.7l3,2      C390.4,190.6,395.3,184.8,394.5,172.5z"></path>
				<path fill="#F2C092" d="M376.8,162.1c0.1,0.2-0.4,6.3,3.3,12.1c0.2,0.6-0.6,1.8-0.9,1.3c-1.2-2.1-1.8-3.3-2.8-7      C375.8,165.2,376.7,162.1,376.8,162.1z"></path>
				<path d="M377.2,157.6c0.3,0,0.7,0.1,1,0.1l0,0l0,0c4.1,0.4,8.1,1,11.2,3.4c3,2.2,4.1,6.6,4.5,9.9c0.9,7.3-1,15.9-3.3,19      c-0.7,0-2.1-1-3-1.6c-0.4-0.3-0.8-0.6-1.2-0.8c-9.4-5.7-13.5-21.4-9.8-29C376.9,158.2,377.1,157.8,377.2,157.6 M377.1,155.3      c-1.2,0-1.6,0.5-2.5,2.3c-4.2,8.5,0.2,25.6,10.7,32c1.7,1,3.7,2.7,5.5,2.7c0.6,0,1.1-0.2,1.5-0.6c4.6-5.5,7.3-26.1-1.4-32.5      c-3.6-2.7-8-3.4-12.4-3.9C378,155.3,377.5,155.3,377.1,155.3L377.1,155.3z"></path>
			</g>
			<g>
				<path fill="#E88636" d="M383.4,202.2c-15.4-10.3-22.8-30.2-16.9-47c0.2-0.5-0.2-1-0.7-1c-25.9-0.6-51.9,7.2-35.5,37.5      c6.1,11.3,15.4,31.3,29.8,34.9c11.5,1.8,21.5-16,23.9-22.9C384.1,203.2,383.9,202.6,383.4,202.2z"></path>
				<path fill="#CF5E2A" d="M362.2,225c2.3-3.1,7.2-7.6,10.2-11.8c4.4-6.2,6.7-11.9,6.7-11.9l3.5,2.2c0,0-4.3,7.8-6.1,10.8      c-3.3,5.6-11.2,11-13.5,10.9C362.7,225,362.4,225.1,362.2,225z"></path>
				<path fill="#D05F2A" d="M364.1,157.4c0,0-11.1-0.2-16.2,1.3c-0.8,0.2-1.8-1.1-2.7-1.1c5.9-1.7,18.7-1.5,18.7-1.5L364.1,157.4z"></path>
				<path fill="#D05F2A" d="M362.2,225c0.3,0,0.5,0.1,0.8,0.1c-0.2,0.1-0.5,0.1-0.7,0.2C362.2,225.2,362.1,225.1,362.2,225z"></path>
				<path fill="#F2C091" d="M332.7,162.8C332.7,162.8,332.7,162.8,332.7,162.8C332.7,162.8,332.7,162.8,332.7,162.8      c-3.5,2.3-5,5.6-5.6,9.7c-0.5,3.1,0.2,6.5,0.6,8.7c0.2,1.3,0.9,5,2,4.8c0.1-0.4,0.7-1.9,0.8-4.6c0.2-3.6-0.8-5.1-1-6.9      c-0.2-1.5-1.1-3.2,0.7-6.1c1.4-2.4,7.9-7.7,8-7.9C336.5,160.8,334.2,161.8,332.7,162.8z"></path>
				<path fill="#F2C092" d="M341.5,203.7c-0.2,0.1-1.5,0.2-1.6,0.3c1.3,2,6.2,10.9,8.5,13.4c2.4,2.6,10.8,6.9,11.3,7      c0-0.1,0.1-0.8,0.1-0.9C355.6,219.3,343.5,205.1,341.5,203.7z"></path>
				<path d="M363.1,156.5c0.2,0,0.3,0,0.5,0c-4.8,17,2.4,36.5,17.9,47.2c-1.2,3.3-3.9,8.4-7.3,12.6c-3,3.7-7.6,8.2-12.6,8.2      c-0.4,0-0.8,0-1.1-0.1c-12-3.1-20.7-19.5-26.4-30.4c-0.6-1.2-1.2-2.3-1.8-3.4c-5.2-9.7-6.2-17.4-2.9-22.9      C333.6,160.5,345.6,156.5,363.1,156.5 M363.1,154.2c-25,0-48.7,8.3-32.9,37.6c6.1,11.3,15.4,31.3,29.8,34.9      c0.5,0.1,1.1,0.1,1.6,0.1c10.8,0,20-16.5,22.3-23c0.2-0.6,0-1.2-0.5-1.6c-15.4-10.3-22.8-30.2-16.9-47c0.2-0.5-0.2-1-0.7-1      C364.8,154.2,364,154.2,363.1,154.2L363.1,154.2z"></path>
			</g>
		</g>
	</g>
	<g id="Hand_00000139295599947712496020000009764527479189952404_">
		<path fill="#E5D1BE" d="M434.3,251.6c-0.7-5.3-4.2-17.2-10.5-17.8c0,0-1.7,0.2-4.4,1.5c-1.3,0.6-2.8,1.9-4.5,2.8    c-2,1.1-4.4,4.9-2.4,5.3c5.9,1.1,11.2-3.8,12-2.7c0.1,0.2-2.9,1.6-5.8,4.2c-3.2,2.9-5.6,5.7-4.1,7.3c2.4,2.5,12.4-1.3,12.7,0.9    c0.1,0.9-3.6,1.5-6,3.1c-2.7,1.9-4.6,4.2-4.1,5.3c0.8,1.6,8.2-2.8,9.5-2.6c1,0.2-9.4,5.9-6.4,6.9c3.6,1.3,8.8,1,10.1,0.6    C432.9,265.8,435.5,260.5,434.3,251.6z"></path>
		<path fill="#C09E80" d="M421.1,233.4c8.5-1.9,10.7,6.9,12.2,11.5c2.1,6.5,3.8,22.9-4.4,22.6c-0.5,0,0.1-7.6-0.5-9.1    c-0.6-1.7,0-3.4-0.2-5.4c-0.5-4.6-2.3-11.2-3.5-13.3C423.8,238.1,421.1,233.5,421.1,233.4z"></path>
		<path fill="#C7AD92" d="M425.5,251.7c0.6-0.1,0.7-2.7,1.1-3.7c0.3,1.6,0.5,3.6,0.8,5.1c-3.2,0.3-7,0.2-10.2,0.4    c-0.8,0.1-1.5,0-2.3-0.2c-1-0.2-1.2-0.9-0.9-1.8C415.1,252.6,422.6,252.3,425.5,251.7z"></path>
		<path fill="#C7AD92" d="M424.5,240.8c-3.7,1.7-8.9,5.2-13,2.7c0.1-0.6,12.5-3.5,11.5-5C423.8,239.7,424,240,424.5,240.8z"></path>
		<path fill="#F0ECE7" d="M415.7,250.9c-0.7,0-1.5,0-2.2,0.1c1-3.1,2.8-5.4,5.8-6.7c0.9,1.5,0.8,1.7-0.4,2.8    C417.7,248.2,416.7,249.6,415.7,250.9z"></path>
		<path fill="#F1ECE6" d="M413.4,241.2c-1.2,0.4-1.8,0.1-1.6-1.2c0.5-1.4,2.3-2.2,3.3-3.4c0.2,0,0.4-0.1,0.7-0.1    C417.1,237.7,413.9,239.9,413.4,241.2z"></path>
		<path fill="#C7AD92" d="M426.9,259.1c0-0.9-0.3-1,0-2.1c-0.5,0.3-6.3,3.1-9,4.7C415.3,263.7,426.9,259.1,426.9,259.1z"></path>
		<path fill="#C7AD92" d="M427.5,265.8c0,0-3.6-0.8-6.1,0.7c1.8,0.4,4.3,0.7,6.3,0.7C427.7,266.6,427.5,266.7,427.5,265.8z"></path>
		<path d="M423.8,233.9c6.3,0.6,9.8,12.4,10.5,17.8c1.2,8.8-1.4,14.2-3.7,14.9c-0.6,0.2-2,0.3-3.7,0.3c-2,0-4.5-0.2-6.5-0.9    c-3-1.1,7.4-6.7,6.4-6.9c0,0-0.1,0-0.1,0c-1.2,0-6.5,3-8.6,3c-0.4,0-0.7-0.1-0.8-0.3c-0.5-1.1,1.3-3.4,4.1-5.3    c2.3-1.6,6.1-2.2,6-3.1c-0.1-0.5-0.7-0.7-1.7-0.7c-2,0-5.2,0.7-7.7,0.7c-1.4,0-2.6-0.2-3.2-0.9c-1.6-1.6,0.9-4.4,4.1-7.3    c2.9-2.6,5.9-4,5.8-4.2c-0.1-0.1-0.2-0.2-0.4-0.2c-1.3,0-5.3,3-9.8,3c-0.6,0-1.2-0.1-1.8-0.2c-2.1-0.4,0.3-4.2,2.4-5.3    c1.7-0.9,3.2-2.1,4.5-2.8C422.1,234.1,423.8,233.9,423.8,233.9 M423.8,232.1l-0.2,0c-0.2,0-2.1,0.3-4.9,1.7    c-0.8,0.4-1.5,0.9-2.3,1.4c-0.7,0.5-1.5,1-2.2,1.4c-1.8,1-4.4,4-4.1,6.4c0.2,1.1,1,2,2.2,2.2c0.7,0.1,1.4,0.2,2.1,0.2    c0.5,0,1,0,1.5-0.1c-2.4,2.4-3.4,4.1-3.4,5.7c0,1,0.3,1.8,1,2.5c1.2,1.3,3.2,1.4,4.5,1.4c0.9,0,1.8-0.1,2.8-0.2    c-0.1,0.1-0.2,0.1-0.3,0.2c-1.4,1-6,4.6-4.6,7.5c0.2,0.4,0.8,1.3,2.4,1.3c0.2,0,0.3,0,0.5,0c-0.4,0.7-0.6,1.3-0.5,2    c0.1,0.4,0.3,1.5,1.7,1.9c2.5,0.9,5.5,1,7.1,1c1.7,0,3.3-0.2,4.2-0.4c3.3-1,6.2-7.3,5-16.8c-0.6-4.8-4.2-18.6-12-19.3L423.8,232.1    L423.8,232.1z"></path>
	</g>
</g>
</svg>
