<?xml version="1.0"?>
<svg xmlns="http://www.w3.org/2000/svg" viewBox="154 0 92 92" width="32" height="32">
  <svg xmlns:xlink="http://www.w3.org/1999/xlink" version="1.1" x="0px" y="0px" viewBox="0 0 400 92" xml:space="preserve" width="400" data-manipulated-width="true" height="92" data-manipulated-height="true">
<g>
	<g>
		<path fill="#E88636" d="M78.6,9.2C74.3,6,69.1,5.2,64,4.7c-3-0.4-3.3-0.2-4.7,2.6c-4.9,10,0.2,30.1,12.6,37.7    c2.6,1.6,6,4.6,8.3,2.5C85.6,41,88.7,16.8,78.6,9.2z"/>
		<path fill="#CF5E2A" d="M82.8,24.8C81.5,6.4,67.3,7.3,62.2,7c0.3,1.6,18.4,0.7,17.5,18.1c-0.8,16.8-5.3,18.5-5.3,18.5l3.5,2.4    C77.9,46.1,83.7,39.3,82.8,24.8z"/>
		<path fill="#F2C092" d="M61.9,12.6c0.1,0.3-0.4,7.4,3.9,14.2c0.3,0.7-0.7,2.1-1.1,1.5c-1.5-2.4-2.1-3.9-3.3-8.2    C60.8,16.2,61.8,12.6,61.9,12.6z"/>
		<path d="M62.4,7.2c0.3,0,0.8,0.1,1.2,0.1l0.1,0l0.1,0c4.8,0.5,9.5,1.2,13.2,4c3.5,2.6,4.8,7.8,5.3,11.6c1,8.6-1.2,18.7-3.9,22.4    c-0.8,0-2.5-1.1-3.6-1.9c-0.5-0.3-1-0.7-1.5-1c-11-6.7-15.9-25.2-11.5-34.1C62,7.9,62.2,7.5,62.4,7.2 M62.2,4.5    c-1.5,0-1.9,0.6-3,2.8c-4.9,10,0.2,30.1,12.6,37.7c2,1.2,4.4,3.2,6.5,3.2c0.7,0,1.3-0.2,1.8-0.7c5.4-6.5,8.6-30.7-1.6-38.2    C74.3,6,69.1,5.2,64,4.7C63.3,4.6,62.7,4.5,62.2,4.5L62.2,4.5z"/>
	</g>
	<g>
		<path fill="#E88636" d="M69.6,59.8C51.5,47.7,42.8,24.3,49.7,4.5c0.2-0.6-0.2-1.2-0.8-1.2C18.4,2.6-12.3,11.8,7,47.5    c7.2,13.3,18.1,36.9,35.1,41.1c13.6,2.1,25.4-18.9,28.1-27C70.5,61,70.2,60.2,69.6,59.8z"/>
		<path fill="#CF5E2A" d="M44.7,86.6c2.7-3.7,8.4-8.9,12-13.9c5.2-7.4,7.9-14.1,7.9-14.1l4.2,2.6c0,0-5.1,9.2-7.2,12.7    c-3.9,6.6-13.2,13-15.9,12.8C45.3,86.7,45,86.7,44.7,86.6z"/>
		<path fill="#D05F2A" d="M46.9,7c0,0-13.1-0.2-19.1,1.5c-1,0.3-2.1-1.3-3.2-1.3c7-1.9,22-1.8,22-1.8L46.9,7z"/>
		<path fill="#D05F2A" d="M44.7,86.6c0.3,0,0.6,0.1,0.9,0.1c-0.3,0.1-0.6,0.2-0.9,0.2C44.7,86.9,44.6,86.8,44.7,86.6z"/>
		<path fill="#F2C091" d="M9.9,13.3C9.9,13.3,9.9,13.3,9.9,13.3C9.9,13.3,9.9,13.3,9.9,13.3C5.8,16.1,4,20,3.3,24.8    C2.8,28.4,3.6,32.5,4.1,35c0.3,1.5,1.1,5.9,2.4,5.7c0.1-0.4,0.8-2.2,0.9-5.4c0.2-4.2-0.9-6.1-1.2-8.1c-0.3-1.8-1.2-3.8,0.8-7.2    c1.7-2.9,9.3-9.1,9.5-9.4C14.4,11,11.7,12.1,9.9,13.3z"/>
		<path fill="#F2C092" d="M20.4,61.6c-0.2,0.1-1.7,0.3-1.9,0.4c1.5,2.3,7.3,12.9,10,15.8c2.8,3.1,12.8,8.1,13.3,8.2    c0.1-0.1,0.1-1,0.2-1.1C36.9,79.9,22.7,63.2,20.4,61.6z"/>
		<path d="M45.7,6c0.2,0,0.4,0,0.6,0c-5.7,20.1,2.9,43,21,55.6c-1.5,3.9-4.6,9.9-8.6,14.8c-3.5,4.4-8.9,9.6-14.8,9.6    c-0.4,0-0.9,0-1.3-0.1c-14.2-3.7-24.4-23-31.1-35.8c-0.7-1.4-1.4-2.7-2.1-4C3.3,34.8,2.1,25.7,6,19.2C11.1,10.7,25.2,6,45.7,6     M45.7,3.3C16.3,3.3-11.6,13,7,47.5c7.2,13.3,18.1,36.9,35.1,41.1c0.6,0.1,1.3,0.1,1.9,0.1c12.8,0,23.6-19.4,26.2-27.1    c0.2-0.7,0-1.5-0.6-1.9C51.5,47.7,42.8,24.3,49.7,4.5c0.2-0.6-0.2-1.2-0.8-1.2C47.8,3.3,46.8,3.3,45.7,3.3L45.7,3.3z"/>
	</g>
</g>
<g>
	<g>
		<path d="M119.5,10.5v42.2h-10V10.5H99V1.7h31v8.8H119.5z"/>
		<path d="M155,30.3v22.4h-10.2V30.3L131.4,1.7h10.8l8.1,19.7l8.1-19.7h10.3L155,30.3z"/>
		<path d="M188.6,35.2h-4.2v17.6h-10v-51c0,0,7.4-0.7,13.4-0.7c13.2,0,16.8,6.1,16.8,17C204.7,30.8,199.1,35.2,188.6,35.2z     M189.2,9.7c-3.1,0-4.7,0.4-4.7,0.4v16.4h4.6c3.4,0,5.5-3.1,5.5-8.1C194.5,12.8,193.3,9.7,189.2,9.7z"/>
		<path d="M227.9,53.4c-14.4,0-17-9-17-26.8c0-17.1,3.1-25.6,17-25.6s17,8.5,17,25.6C244.9,44.5,242.3,53.4,227.9,53.4z M227.9,8.9    c-5.2,0-6.9,3.2-6.9,18.1c0,14.7,1.7,18.6,6.9,18.6c5.2,0,6.9-3.9,6.9-18.6C234.8,12.1,233.1,8.9,227.9,8.9z"/>
		<path d="M263.2,53.4c-3.6,0-9.6-1.1-10.3-1.2V44c1.7,0.4,5.9,1.2,9.1,1.2c3.5,0,5.8-2.5,5.8-7c0-5.7-1.5-8.1-5.9-8.1h-5.6v-7.9    h4.9c4.2,0,5.8-2.5,5.8-6.9c0-4.2-1.5-6.2-5.1-6.2c-3.2,0-6.5,0.8-8.6,1.2V2.3c0.8-0.1,5.8-1.2,9.5-1.2c9.3,0,13.8,3.4,13.8,14.5    c0,4.4-1.5,8.9-5.5,10.3c4,0.8,6.3,4.5,6.3,11.7C277.6,49.8,271.3,53.4,263.2,53.4z"/>
	</g>
	<g>
		<g>
			<path d="M162.8,45.5c0.6,0.4,1.2,0.9,1.8,1.4c0.6,0.5,1.1,1,1.5,1.5c0.1,1,0.2,1.8,0.4,2.5c0.2,0.7,0.4,1.4,0.7,2     c0.2,0.6,0.5,1.2,0.7,1.8c0.2,0.6,0.3,1.3,0.4,2.1c-0.4,1.1-0.6,2.1-0.8,3c-0.2,0.9-0.3,1.9-0.5,3l-0.1,0.6     c-0.6,1.1-1.3,2.2-1.9,3.4c-0.6,1.2-1.1,2.2-1.5,3c-0.2,0.2-0.4,0.5-0.6,0.7c-0.2,0.3-0.3,0.6-0.5,0.9c-0.1,0.1-0.2,0.3-0.3,0.5     c-0.1,0.2-0.2,0.4-0.3,0.5l-1.3-0.5l-0.3,1.7l-0.9,0.2l-0.6,0.7c-0.8,1.4-1.7,2.6-2.6,3.6s-1.9,1.8-3,2.6     c-1.1,0.7-2.4,1.4-3.8,2.1c-1.4,0.7-3,1.4-4.8,2.1c-0.7-0.1-1.3-0.2-1.8-0.2c-0.5,0-1,0-1.5-0.1c-0.5,0-1,0-1.4-0.1     c-0.5,0-1-0.1-1.6-0.2c-0.1-0.3-0.3-0.6-0.6-0.7c-0.2-0.1-0.5-0.2-0.7-0.2c-0.7-0.4-1.2-0.9-1.6-1.5c-0.4-0.6-0.7-1.4-1.1-2.1     c-0.2-0.4-0.4-0.9-0.6-1.3c-0.2-0.4-0.4-0.8-0.7-1.2l1.1-0.3l-1.4-1.6c-0.1-0.1-0.2-0.2-0.3-0.3c-0.1-0.1-0.2-0.2-0.3-0.4v-1     c-0.1-2.9-0.2-5.6-0.2-8.1c0-2.5,0.3-4.6,1-6.5l0.1-0.3c-0.1-0.5-0.2-0.7-0.3-0.9c0.2-0.6,0.4-1.3,0.6-1.9     c0.1-0.6,0.2-1.2,0.3-1.8c0.1-0.5,0.2-1,0.2-1.4c0.1-0.4,0.2-0.8,0.3-1.2c0.6-0.1,1.1-0.4,1.4-0.8c0.3-0.4,0.5-0.7,0.7-1     c0.1,0,0.2,0,0.3,0c0.5,0,0.8,0.1,1,0.3c0.2,0.2,0.4,0.6,0.7,1.1c0.2,0.4,0.4,0.8,0.7,1.3c0.3,0.4,0.8,0.8,1.4,1     c0.1,0.4,0.2,0.8,0.4,1.1c0.1,0.4,0.3,0.7,0.5,1.1c0.3,0.7,0.6,1.5,0.9,2.3c0.3,0.8,0.4,1.6,0.5,2.3c-0.4,0.8-0.8,1.8-1,2.8     c-0.2,1.1-0.4,2.1-0.4,3.2c-0.1,1.1,0,2.1,0.1,3.1c0.1,1,0.3,1.8,0.5,2.5l0.3,0.9l1.2-0.1c1.3-0.3,2.4-0.7,3.5-1.1     c1-0.4,2-0.9,2.9-1.5c0.9-0.6,1.7-1.2,2.6-1.9c0.8-0.7,1.7-1.6,2.6-2.6c0.9-1,1.6-2.1,2.3-3.4c0.7-1.3,1.2-2.6,1.7-3.9     c0.4-1.4,0.8-2.7,1-4.1c0.2-1.4,0.4-2.6,0.5-3.8c0.7-0.3,1-0.8,1.1-1.5l-0.2-0.7c-0.1-0.2-0.2-0.3-0.1-0.5c0-0.2,0.1-0.3,0.1-0.5     C161.2,46.5,161.8,45.9,162.8,45.5 M163.2,41l-2,0.8c-2.3,1-3.4,2.6-3.9,3.9c-0.2,0.5-0.3,1-0.4,1.5c0,0.1,0,0.2,0,0.3l-0.7,0.3     l-0.1,2.3c-0.1,1-0.2,2.1-0.4,3.3c-0.2,1.2-0.5,2.4-0.9,3.5c-0.4,1.1-0.8,2.2-1.4,3.3c-0.5,1-1.1,1.9-1.8,2.7     c-0.8,0.9-1.5,1.6-2.2,2.2c-0.7,0.6-1.4,1.1-2.1,1.6c-0.7,0.4-1.4,0.8-2.2,1.1c-0.1,0-0.1,0.1-0.2,0.1c0-0.5,0-1,0-1.5     c0-0.9,0.2-1.7,0.3-2.6c0.2-0.7,0.4-1.3,0.6-1.8l0.5-1l-0.1-1.1c-0.1-1.1-0.3-2.2-0.7-3.4c-0.3-0.9-0.7-1.7-1-2.6l0,0l0,0     c-0.1-0.3-0.3-0.6-0.4-0.9c-0.1-0.2-0.2-0.5-0.2-0.7l-0.5-1.9l-1.7-0.7c-0.1-0.1-0.1-0.2-0.2-0.3l0-0.1l0-0.1     c-0.4-0.8-0.8-1.5-1.3-2c-0.7-0.7-1.9-1.6-3.9-1.6c-0.2,0-0.3,0-0.5,0l-2,0.1l-1.1,1.7c0,0,0,0.1-0.1,0.1l-1.6,0.4l-0.7,2     c-0.2,0.6-0.4,1.2-0.5,1.8c-0.1,0.5-0.2,1.1-0.3,1.6l0,0l0,0c-0.1,0.5-0.1,1-0.2,1.5c-0.1,0.4-0.2,0.8-0.4,1.2l-0.9,2.4l0.5,0.5     c-0.5,1.9-0.7,3.9-0.7,6.1c0,2.5,0,5.3,0.2,8.2v0.9l-1.5,0.4l3.3,4.5c0.1,0.2,0.2,0.4,0.3,0.6c0.2,0.4,0.3,0.8,0.5,1.2l0.1,0.1     l0.1,0.1c0.4,0.8,0.8,1.6,1.2,2.3c0.7,1.3,1.8,2.3,3.1,3l0.5,1.1l2.2,0.3c0.7,0.1,1.3,0.1,1.8,0.2c0.5,0,1,0.1,1.6,0.1     c0.5,0,1,0.1,1.5,0.1c0.2,0,0.7,0,1.4,0.1l1.1,0.2l1-0.4c1.9-0.8,3.5-1.5,5-2.2c1.6-0.7,3-1.5,4.3-2.4c1.4-0.9,2.6-2,3.7-3.1     c0.9-1,1.8-2.2,2.7-3.5l1.9-0.5l0.1-0.8l0.8-0.8c0.4-0.4,0.8-0.9,1.1-1.6c0-0.1,0.1-0.1,0.1-0.2l0.1-0.1L166,73     c0.1-0.2,0.2-0.4,0.3-0.6l0.4-0.4l0.3-0.6c0.4-0.8,0.8-1.7,1.4-2.8c0.6-1.1,1.2-2.2,1.8-3.3l0.3-0.6l0.1-0.7l0.1-0.6l0-0.1l0-0.1     c0.1-1,0.3-1.9,0.4-2.8c0.1-0.7,0.3-1.6,0.6-2.4l0.3-0.8l-0.1-0.8c-0.1-1.1-0.3-2.1-0.6-3c-0.2-0.6-0.5-1.3-0.7-1.9     c-0.2-0.5-0.4-1.1-0.6-1.7c-0.1-0.3-0.2-0.8-0.3-1.6l-0.1-1.4l-0.9-1c-0.5-0.6-1.1-1.2-1.8-1.7c-0.7-0.6-1.5-1.2-2.2-1.7     L163.2,41L163.2,41z"/>
			<path fill="#99C7BB" d="M98.1,61.1c0.1-0.5,0.2-1,0.2-1.3c0-0.3-0.1-0.7-0.4-1.1c0.1-0.6,0.3-1,0.3-1.3c0.1-0.3,0.1-0.8,0-1.3     c0.3-0.9,0.8-1.7,1.5-2.3c0.7-0.6,1.4-1.2,2.2-1.6c0.8-0.4,1.6-0.8,2.5-1.1c0.9-0.3,1.7-0.6,2.4-0.8c0-0.1-0.1-0.2-0.2-0.2     c-0.1,0-0.2-0.1-0.1-0.3c1.9-0.4,3.8-0.9,5.8-1.5c1.9-0.7,3.9-1.3,5.9-1.8s4.1-0.9,6.2-1c2.1-0.1,4.4,0.2,6.7,0.8     c0.1,0.4,0.3,0.8,0.6,1.2c0.2,0.4,0.5,0.8,0.8,1.1s0.5,0.7,0.7,1.1c0.2,0.4,0.3,0.7,0.4,1.1c0.4,0.4,0.8,0.8,1,1.3     c0.3,0.4,0.3,1,0.1,1.8c-0.4,0.3-0.8,0.6-1.2,0.9c-0.4,0.3-0.9,0.6-1.3,0.8c-1.6-0.4-3.2-0.5-4.8-0.4c-1.6,0.1-3,0.2-4.3,0.4     c-0.4-0.4-0.9-0.6-1.4-0.6c-0.5,0-1.1,0.1-1.7,0.3s-1.2,0.3-1.7,0.5c-0.6,0.2-1.1,0.2-1.6,0.1c-0.4,0.4-0.9,0.6-1.5,0.7     c-0.6,0.1-1.3,0.2-2,0.3c0,0.2,0,0.3,0.1,0.4c0.1,0.1,0.1,0.2,0.1,0.4c0.2,0.3,0.6,0.5,1,0.7c0.4,0.1,0.9,0.2,1.3,0.3     c0.4,0.1,0.8,0.3,1.2,0.5c0.4,0.2,0.6,0.5,0.7,0.9c0.6,0,1.2,0.2,1.7,0.5c0.5,0.3,0.9,0.7,1.2,1.1c0.3,0.4,0.6,0.9,0.7,1.4     c0.1,0.5,0.2,0.9,0.2,1.3c0.1,0.4,0.3,0.5,0.5,0.4c0.2-0.1,0.3,0,0.6,0.3c0.1,0.5,0.5,1.1,1,1.7c0.5,0.6,0.9,1.2,1.2,1.9     c0.1,1.1,0.1,2,0.2,2.9c0.1,0.9-0.1,1.7-0.5,2.5c-0.6,1.6-1.5,3-2.6,4.2c-1.1,1.2-2.4,2.3-3.9,3.3c-1.4,0.9-3,1.8-4.6,2.5     c-1.6,0.7-3.2,1.3-4.7,1.7c-0.1,0-0.3,0-0.5,0c-0.2,0-0.2-0.1-0.1-0.3c-0.3,0.3-0.7,0.5-1.1,0.5c-0.4,0.1-0.9,0.1-1.3,0.1     c-0.5,0-1,0-1.4-0.1c-0.5,0-1,0-1.4,0.1c-0.3-0.3-0.5-0.6-0.8-0.9c-0.2-0.3-0.4-0.6-0.6-1c-0.2,0-0.3-0.2-0.2-0.3     c0-0.2-0.1-0.3-0.2-0.3c0-0.1,0-0.2,0.1-0.3c0-0.1,0.1-0.1,0.1-0.2c0.1-0.1,0.2-0.2,0.2-0.2c0-0.1-0.1-0.1-0.2-0.2     c-0.1-0.1-0.2-0.1-0.3-0.2c-0.1-0.1-0.1-0.2-0.1-0.3c0.2-0.3,0.2-0.7,0.2-1.1c-0.1-0.4-0.1-0.9-0.1-1.4c0-0.5,0-0.9,0.1-1.3     c0.1-0.4,0.4-0.8,0.9-1c1.5,0.1,2.8,0.1,4.1-0.2c1.3-0.3,2.5-0.7,3.7-1.2c1.2-0.5,2.3-1,3.3-1.6c1-0.6,2.1-1.1,3.1-1.6     c0.1-0.4,0.3-0.7,0.5-0.9c0.2-0.2,0.5-0.5,0.7-0.7c0.2-0.2,0.5-0.5,0.7-0.7s0.4-0.6,0.5-1c0-0.1,0-0.2,0-0.3     c0-0.1-0.1-0.1-0.2-0.2c-0.1-0.1-0.1-0.1-0.2-0.2c-0.1-0.1-0.1-0.2-0.1-0.3c-0.1,0-0.2-0.1-0.3-0.1c-0.1,0-0.2-0.1-0.2-0.1     c-0.9-0.5-1.9-0.9-2.9-1.2c-1-0.3-1.9-0.7-2.6-1.1c-0.4,0.3-0.9,0.4-1.3,0.2c-0.4-0.1-0.9-0.3-1.5-0.4c-1.5-0.1-2.9-0.2-4.2-0.4     c-1.3-0.2-2.6-0.6-3.9-1.1c-0.1-0.2-0.2-0.4-0.3-0.6c-0.1-0.2-0.4-0.2-0.7-0.1c-0.2-0.4-0.5-0.7-0.8-1     C98.6,61.9,98.3,61.5,98.1,61.1z"/>
			<path d="M125.5,45.3c1.8,0,3.7,0.3,5.7,0.9c0.1,0.4,0.3,0.8,0.6,1.2c0.2,0.4,0.5,0.8,0.8,1.1c0.3,0.4,0.5,0.7,0.7,1.1     c0.2,0.4,0.3,0.7,0.4,1.1c0.4,0.4,0.8,0.8,1,1.3c0.3,0.4,0.3,1,0.1,1.8c-0.4,0.3-0.8,0.6-1.2,0.9c-0.4,0.3-0.9,0.6-1.3,0.8     c-1.3-0.3-2.5-0.5-3.8-0.5c-0.3,0-0.7,0-1,0c-1.6,0.1-3,0.2-4.3,0.4c-0.4-0.4-0.8-0.6-1.3-0.6c0,0,0,0-0.1,0     c-0.5,0-1.1,0.1-1.7,0.3c-0.6,0.2-1.2,0.3-1.7,0.5c-0.4,0.1-0.8,0.2-1.1,0.2c-0.2,0-0.3,0-0.5,0c-0.4,0.4-0.9,0.6-1.5,0.7     c-0.6,0.1-1.3,0.2-2,0.3c0,0.2,0,0.3,0.1,0.4c0.1,0.1,0.1,0.2,0.1,0.4c0.2,0.3,0.6,0.5,1,0.7c0.4,0.1,0.9,0.2,1.3,0.3     c0.4,0.1,0.8,0.3,1.2,0.5c0.4,0.2,0.6,0.5,0.7,0.9c0.6,0,1.2,0.2,1.7,0.5c0.5,0.3,0.9,0.7,1.2,1.1c0.3,0.4,0.6,0.9,0.7,1.4     c0.1,0.5,0.2,0.9,0.2,1.3c0.1,0.3,0.2,0.4,0.4,0.4c0,0,0.1,0,0.1,0c0,0,0.1,0,0.1,0c0.1,0,0.3,0.1,0.4,0.3c0.1,0.5,0.5,1.1,1,1.7     c0.5,0.6,0.9,1.2,1.2,1.9c0.1,1.1,0.1,2,0.2,2.9c0.1,0.9-0.1,1.7-0.5,2.5c-0.6,1.6-1.5,3-2.6,4.2c-1.1,1.2-2.4,2.3-3.9,3.3     c-1.4,0.9-3,1.8-4.6,2.5c-1.6,0.7-3.2,1.3-4.7,1.7c-0.1,0-0.1,0-0.2,0s-0.2,0-0.3,0c0,0,0,0-0.1,0c-0.1,0-0.2-0.1-0.1-0.3     c-0.3,0.3-0.7,0.5-1.1,0.5c-0.3,0.1-0.7,0.1-1.1,0.1c-0.1,0-0.2,0-0.3,0c-0.5,0-1,0-1.4-0.1c-0.2,0-0.3,0-0.5,0     c-0.3,0-0.6,0-0.9,0.1c-0.3-0.3-0.5-0.6-0.8-0.9c-0.2-0.3-0.4-0.6-0.6-1c-0.2,0-0.3-0.2-0.2-0.3c0-0.2-0.1-0.3-0.2-0.3     c0-0.1,0-0.2,0.1-0.3c0-0.1,0.1-0.1,0.1-0.2c0.1-0.1,0.2-0.2,0.2-0.2c0-0.1-0.1-0.1-0.2-0.2c-0.1-0.1-0.2-0.1-0.3-0.2     c-0.1-0.1-0.1-0.2-0.1-0.3c0.2-0.3,0.2-0.7,0.2-1.1c-0.1-0.4-0.1-0.9-0.1-1.4c0-0.5,0-0.9,0.1-1.3c0.1-0.4,0.4-0.8,0.9-1     c0.5,0,1,0.1,1.4,0.1c0.9,0,1.8-0.1,2.7-0.3c1.3-0.3,2.5-0.7,3.7-1.2c1.2-0.5,2.3-1,3.3-1.6c1-0.6,2.1-1.1,3.1-1.6     c0.1-0.4,0.3-0.7,0.5-0.9c0.2-0.2,0.5-0.5,0.7-0.7c0.2-0.2,0.5-0.5,0.7-0.7c0.2-0.3,0.4-0.6,0.5-1c0-0.1,0-0.2,0-0.3     c0-0.1-0.1-0.1-0.2-0.2c-0.1-0.1-0.1-0.1-0.2-0.2c-0.1-0.1-0.1-0.2-0.1-0.3c-0.1,0-0.2-0.1-0.3-0.1c-0.1,0-0.2-0.1-0.2-0.1     c-0.9-0.5-1.9-0.9-2.9-1.2c-1-0.3-1.9-0.7-2.6-1.1c-0.3,0.2-0.6,0.3-0.9,0.3c-0.1,0-0.3,0-0.4-0.1c-0.4-0.1-0.9-0.3-1.5-0.4     c-1.5-0.1-2.9-0.2-4.2-0.4c-1.3-0.2-2.6-0.6-3.9-1.1c-0.1-0.2-0.2-0.4-0.3-0.6c-0.1-0.1-0.2-0.2-0.4-0.2c-0.1,0-0.2,0-0.3,0     c-0.2-0.4-0.5-0.7-0.8-1c-0.3-0.3-0.5-0.6-0.7-1c0.1-0.5,0.2-1,0.2-1.3c0-0.3-0.1-0.7-0.4-1.1c0.1-0.6,0.3-1,0.3-1.3     c0.1-0.3,0.1-0.8,0-1.3c0.3-0.9,0.8-1.7,1.5-2.3c0.7-0.6,1.4-1.2,2.2-1.6c0.8-0.4,1.6-0.8,2.5-1.1c0.9-0.3,1.7-0.6,2.4-0.8     c0-0.1-0.1-0.2-0.2-0.2c-0.1,0-0.2-0.1-0.1-0.3c1.9-0.4,3.8-0.9,5.8-1.5c1.9-0.7,3.9-1.3,5.9-1.8c2-0.5,4.1-0.9,6.2-1     C124.8,45.3,125.1,45.3,125.5,45.3 M125.5,41.4c-0.4,0-0.8,0-1.2,0c-2.4,0.1-4.7,0.5-7,1.1c-2.1,0.6-4.2,1.2-6.2,1.9     c-1.7,0.6-3.5,1.1-5.2,1.4l-2.1,0.4l-0.4,1c-0.1,0-0.1,0-0.2,0.1c-1.1,0.4-2.1,0.9-3.1,1.4c-1.1,0.6-2.1,1.4-3,2.2     c-1.1,1.1-1.9,2.4-2.4,3.9l-0.3,0.9l0.1,0.9c0,0,0,0.1,0,0.1c-0.1,0.3-0.2,0.7-0.3,1.1l-0.4,1.8l0.6,0.8c0,0,0,0,0,0L94,61.8     l0.7,1.3c0.4,0.6,0.8,1.2,1.2,1.8c0.2,0.2,0.3,0.4,0.5,0.6l1.4,2.1l0.9-0.2l0.3,0.1c1.5,0.7,3.1,1.1,4.8,1.4     c1.4,0.2,2.8,0.4,4.3,0.5c0.3,0.1,0.6,0.2,0.9,0.2c0.5,0.2,1.1,0.3,1.7,0.3c0.2,0,0.4,0,0.5,0c0.2,0.1,0.3,0.1,0.5,0.2     c-0.3,0.2-0.7,0.4-1,0.6c-0.9,0.5-1.9,1-2.9,1.4c-0.9,0.4-1.9,0.7-3,0.9c-0.6,0.1-1.2,0.2-1.9,0.2c-0.3,0-0.7,0-1-0.1l-1.2-0.1     l-1.1,0.6c-1.8,1-2.5,2.5-2.8,3.5c-0.2,0.8-0.3,1.7-0.2,2.6c0,0.4,0.1,0.7,0.1,1.1c-0.2,0.8-0.2,1.7,0,2.4c0,0,0,0.1,0,0.1v3.9     h1.8c0.1,0.1,0.1,0.1,0.2,0.2c0.3,0.4,0.7,0.8,1,1.1l1.4,1.4l2-0.3c0.1,0,0.2,0,0.3,0c0.1,0,0.1,0,0.2,0c0.5,0,1.1,0.1,1.6,0.1     c0.2,0,0.3,0,0.4,0c0.6,0,1.2,0,1.7-0.1c0.2,0,0.4-0.1,0.6-0.1l0.5,0.1l1-0.3c1.7-0.5,3.5-1.1,5.2-1.9c1.8-0.8,3.5-1.7,5.2-2.8     c1.7-1.1,3.3-2.4,4.6-3.9c1.4-1.6,2.6-3.4,3.4-5.4c0.6-1.4,0.8-2.8,0.7-4.2c-0.1-0.9-0.1-1.8-0.2-2.9l0-0.7l-0.3-0.6     c-0.4-1.1-1.1-2.1-1.9-3c-0.1-0.1-0.1-0.2-0.2-0.2l-0.2-0.7l-0.6-0.7c-0.1-0.1-0.2-0.2-0.3-0.3c0-0.1,0-0.1-0.1-0.2     c-0.3-0.9-0.7-1.7-1.2-2.4c1.2-0.1,2.6-0.2,4.1-0.3c0.3,0,0.5,0,0.8,0c0.9,0,1.9,0.1,2.8,0.3l1.5,0.4l1.3-0.7     c0.6-0.3,1.1-0.6,1.7-1c0.5-0.3,0.9-0.6,1.4-0.9l1.2-0.9l0.3-1.4c0.5-2.2,0-3.8-0.6-4.7c-0.2-0.4-0.5-0.8-0.8-1.2     c-0.1-0.4-0.3-0.8-0.6-1.2c-0.3-0.4-0.6-0.9-0.9-1.4c-0.2-0.3-0.4-0.6-0.7-1c-0.1-0.1-0.1-0.2-0.2-0.4l-0.7-2l-2-0.6     C129.9,41.7,127.7,41.4,125.5,41.4L125.5,41.4z"/>
			<path fill="#99C7BB" d="M132.7,58.8c-0.1-0.5-0.2-0.7-0.3-0.9c0.2-0.6,0.4-1.3,0.6-1.9c0.1-0.6,0.2-1.2,0.3-1.8     c0.1-0.5,0.2-1,0.2-1.4c0.1-0.4,0.2-0.8,0.3-1.2c0.6-0.1,1.1-0.4,1.4-0.8c0.3-0.4,0.5-0.7,0.7-1c0.6,0,1.1,0.1,1.3,0.3     c0.2,0.2,0.4,0.6,0.7,1.1c0.2,0.4,0.4,0.8,0.7,1.3c0.3,0.4,0.8,0.8,1.4,1c0.1,0.4,0.2,0.8,0.4,1.1c0.1,0.4,0.3,0.7,0.5,1.1     c0.3,0.7,0.6,1.5,0.9,2.3c0.3,0.8,0.4,1.6,0.5,2.3c-0.4,0.8-0.8,1.8-1,2.8c-0.2,1.1-0.4,2.1-0.4,3.2c-0.1,1.1,0,2.1,0.1,3.1     c0.1,1,0.3,1.8,0.5,2.5l0.3,0.9l1.2-0.1c1.3-0.3,2.4-0.7,3.5-1.1c1-0.4,2-0.9,2.9-1.5c0.9-0.6,1.7-1.2,2.6-1.9     c0.8-0.7,1.7-1.6,2.6-2.6c0.9-1,1.6-2.1,2.3-3.4c0.7-1.3,1.2-2.6,1.7-3.9c0.4-1.4,0.8-2.7,1-4.1c0.2-1.4,0.4-2.6,0.5-3.8     c0.7-0.3,1-0.8,1.1-1.5l-0.2-0.7c-0.1-0.2-0.2-0.3-0.1-0.5c0-0.2,0.1-0.3,0.1-0.5c0.3-0.8,0.9-1.4,1.8-1.8     c0.6,0.4,1.2,0.9,1.8,1.4c0.6,0.5,1.1,1,1.5,1.5c0.1,1,0.2,1.8,0.4,2.5c0.2,0.7,0.4,1.4,0.7,2c0.2,0.6,0.5,1.2,0.7,1.8     c0.2,0.6,0.3,1.3,0.4,2.1c-0.4,1.1-0.6,2.1-0.8,3c-0.2,0.9-0.3,1.9-0.5,3l-0.1,0.6c-0.6,1.1-1.3,2.2-1.9,3.4     c-0.6,1.2-1.1,2.2-1.5,3c-0.2,0.2-0.4,0.5-0.6,0.7c-0.2,0.3-0.3,0.6-0.5,0.9c-0.1,0.1-0.2,0.3-0.3,0.5c-0.1,0.2-0.2,0.4-0.3,0.5     l-1.3-0.5l-0.3,1.7l-0.9,0.2l-0.6,0.7c-0.8,1.4-1.7,2.6-2.6,3.6s-1.9,1.8-3,2.6c-1.1,0.7-2.4,1.4-3.8,2.1c-1.4,0.7-3,1.4-4.8,2.1     c-0.7-0.1-1.3-0.2-1.8-0.2c-0.5,0-1,0-1.5-0.1c-0.5,0-1,0-1.4-0.1c-0.5,0-1-0.1-1.6-0.2c-0.1-0.3-0.3-0.6-0.6-0.7     c-0.2-0.1-0.5-0.2-0.7-0.2c-0.7-0.4-1.2-0.9-1.6-1.5c-0.4-0.6-0.7-1.4-1.1-2.1c-0.2-0.4-0.4-0.9-0.6-1.3     c-0.2-0.4-0.4-0.8-0.7-1.2l1.1-0.3l-1.4-1.6c-0.1-0.1-0.2-0.2-0.3-0.3c-0.1-0.1-0.2-0.2-0.3-0.4v-1c-0.1-2.9-0.2-5.6-0.2-8.1     c0-2.5,0.3-4.6,1-6.5L132.7,58.8z"/>
			<path fill="#99C7BB" d="M168.4,80.6c-0.2,0-0.3-0.1-0.5-0.4c-0.1-0.3-0.3-0.6-0.5-0.9h0.6c-0.2-0.8-0.3-1.5-0.2-2.2     c0.1-0.7,0.3-1.3,0.5-1.9c0.2-0.6,0.3-1.2,0.5-1.8c0.1-0.6,0.1-1.2-0.2-1.8c0.2,0.1,0.3,0.1,0.4-0.1c0.1-0.2,0.2-0.4,0.2-0.7     c0.1-0.3,0.1-0.6,0.1-1c0-0.3,0-0.6-0.1-0.8c0.5-1.1,0.8-2.2,1.1-3.4c0.3-1.2,0.5-2.3,0.7-3.5c0.2-1.2,0.5-2.3,0.7-3.4     c0.3-1.1,0.6-2.1,1-3.1c0.5-0.1,1,0,1.6,0.2c0.6,0.2,0.9,0.4,1.1,0.7c1.1-0.9,2.1-1.9,2.9-3.1c0.9-1.2,1.7-2.4,2.6-3.5     c0.9-1.2,1.9-2.2,3-3.1c1.1-0.9,2.5-1.4,4.1-1.6c0.9,0.6,1.8,1.3,2.9,1.9c1.1,0.7,1.9,1.6,2.6,2.6c0.3,0.2,0.6,0.4,0.8,0.6     c0.3,0.2,0.5,0.4,0.8,0.6v0.8c0.5,0.5,0.9,1,1.3,1.6c0.3,0.6,0.6,1.3,0.9,2c0.3,0.7,0.5,1.4,0.8,2.1c0.2,0.7,0.5,1.4,0.9,2     c-0.1,0.2-0.1,0.4-0.1,0.6c0,0.2,0.1,0.3,0.1,0.5c0.1,0.2,0.1,0.3,0.1,0.5c0,0.2,0.1,0.4,0.1,0.7c-0.1,1.9-0.8,3.4-1.8,4.6     c-1.1,1.2-2.4,2.1-3.9,2.8c-1.5,0.7-3.2,1.4-4.9,1.9c-1.7,0.5-3.3,1.1-4.7,1.7c0,0.1,0.1,0.2,0.2,0.2s0.2,0.1,0.1,0.3     c1.1,0.6,1.9,1.2,2.5,1.5c0.6,0.4,1.1,0.7,1.7,1c0.5,0.3,1.1,0.5,1.7,0.7c0.6,0.2,1.5,0.4,2.6,0.6c1.1,0.2,2,0.5,2.6,0.6     c0.6,0.2,1.2,0.3,1.7,0.4c0.5,0.1,1,0.2,1.6,0.2c0.6,0.1,1.3,0.2,2.3,0.3c0.4,0.4,0.7,0.9,1,1.4c0.2,0.5,0.4,1.1,0.5,1.6     c0.1,0.5,0.1,1,0.1,1.5c-0.1,0.5-0.2,0.9-0.5,1.1c0,0.1,0.1,0.2,0.3,0.2c0.2,0,0.3,0,0.5,0c-0.2,0.2-0.5,0.4-0.6,0.6     c-0.2,0.2-0.4,0.5-0.5,0.7c-0.2,0.2-0.4,0.5-0.6,0.7c-0.2,0.2-0.5,0.3-0.9,0.4c-1.3,0.5-2.9,0.5-4.9,0.1c-2-0.5-4.5-1.3-7.6-2.5     c-1.5-0.6-2.8-1.1-3.7-1.5c-1-0.5-1.8-0.9-2.5-1.4c-0.7-0.4-1.4-0.9-2-1.4c-0.6-0.5-1.3-1.1-2.1-1.8c-0.1,0-0.2,0.1-0.2,0.2     c0,0.1-0.1,0.2-0.2,0.2c-0.2,1.4-0.5,2.6-0.8,3.5c-0.4,0.9-0.9,1.8-1.6,2.7c-0.6-0.1-1-0.1-1.1,0.2c-0.2,0.2-0.4,0.4-0.7,0.6     c-0.4,0.1-0.6,0.1-0.8,0c-0.2-0.1-0.3-0.2-0.5-0.3c-0.1-0.1-0.3-0.2-0.5-0.3c-0.2-0.1-0.5-0.1-0.9-0.1c-0.1-0.3-0.2-0.6-0.3-0.9     c-0.1-0.3-0.4-0.4-0.9-0.4c0.1-0.3,0.1-0.6,0.1-0.8c0-0.2-0.1-0.4-0.2-0.6c-0.1-0.2-0.1-0.4-0.2-0.6     C168.2,81.1,168.3,80.9,168.4,80.6z M186.2,56.2c-0.5,0.7-1,1.3-1.5,1.8c-0.6,0.6-1.1,1.1-1.7,1.7c-0.6,0.6-1,1.2-1.5,1.9     c-0.4,0.7-0.7,1.5-0.9,2.5c1.5-0.2,3.1-0.6,4.7-1.3c1.6-0.7,3.2-1.3,4.6-1.9c-0.2-1.3-0.6-2.4-1.4-3.2     C187.8,57,187,56.5,186.2,56.2z"/>
			<path d="M187.9,45.2c0.9,0.6,1.8,1.3,2.9,1.9c1.1,0.7,1.9,1.6,2.6,2.6c0.3,0.2,0.6,0.4,0.8,0.6c0.3,0.2,0.5,0.4,0.8,0.6v0.8     c0.5,0.5,0.9,1,1.3,1.6c0.3,0.6,0.6,1.3,0.9,2c0.3,0.7,0.5,1.4,0.8,2.1c0.2,0.7,0.5,1.4,0.9,2c-0.1,0.2-0.1,0.4-0.1,0.6     c0,0.2,0.1,0.3,0.1,0.5c0.1,0.2,0.1,0.3,0.1,0.5c0,0.2,0.1,0.4,0.1,0.7c-0.1,1.9-0.8,3.4-1.8,4.6c-1.1,1.2-2.4,2.1-3.9,2.8     c-1.5,0.7-3.2,1.4-4.9,1.9c-1.7,0.5-3.3,1.1-4.7,1.7c0,0.1,0.1,0.2,0.2,0.2s0.2,0.1,0.1,0.3c1.1,0.6,1.9,1.2,2.5,1.5     c0.6,0.4,1.1,0.7,1.7,1c0.5,0.3,1.1,0.5,1.7,0.7c0.6,0.2,1.5,0.4,2.6,0.6c1.1,0.2,2,0.5,2.6,0.6c0.6,0.2,1.2,0.3,1.7,0.4     c0.5,0.1,1,0.2,1.6,0.2c0.6,0.1,1.3,0.2,2.3,0.3c0.4,0.4,0.7,0.9,1,1.4c0.2,0.5,0.4,1.1,0.5,1.6c0.1,0.5,0.1,1,0.1,1.5     c-0.1,0.5-0.2,0.9-0.5,1.1c0,0.1,0.1,0.2,0.2,0.2c0,0,0,0,0.1,0c0.1,0,0.1,0,0.2,0c0.1,0,0.2,0,0.3,0c-0.2,0.2-0.5,0.4-0.6,0.6     c-0.2,0.2-0.4,0.5-0.5,0.7c-0.2,0.2-0.4,0.5-0.6,0.7c-0.2,0.2-0.5,0.3-0.9,0.4c-0.7,0.3-1.4,0.4-2.3,0.4c-0.8,0-1.7-0.1-2.6-0.3     c-2-0.5-4.5-1.3-7.6-2.5c-1.5-0.6-2.8-1.1-3.7-1.5c-1-0.5-1.8-0.9-2.5-1.4c-0.7-0.4-1.4-0.9-2-1.4c-0.6-0.5-1.3-1.1-2.1-1.8     c-0.1,0-0.2,0.1-0.2,0.2c0,0.1-0.1,0.2-0.2,0.2c-0.2,1.4-0.5,2.6-0.8,3.5c-0.4,0.9-0.9,1.8-1.6,2.7c-0.2,0-0.4-0.1-0.5-0.1     c-0.3,0-0.5,0.1-0.6,0.2c-0.2,0.2-0.4,0.4-0.7,0.6c-0.2,0-0.3,0-0.4,0c-0.2,0-0.3,0-0.4-0.1c-0.2-0.1-0.3-0.2-0.5-0.3     c-0.1-0.1-0.3-0.2-0.5-0.3c-0.1-0.1-0.3-0.1-0.6-0.1c-0.1,0-0.2,0-0.3,0c-0.1-0.3-0.2-0.6-0.3-0.9c-0.1-0.3-0.3-0.4-0.7-0.4     c0,0-0.1,0-0.1,0c0.1-0.3,0.1-0.6,0.1-0.8c0-0.2-0.1-0.4-0.2-0.6c-0.1-0.2-0.1-0.4-0.2-0.6c-0.1-0.2,0-0.5,0.1-0.7c0,0,0,0-0.1,0     c-0.2,0-0.3-0.1-0.4-0.4c-0.1-0.3-0.3-0.6-0.5-0.9h0.6c-0.2-0.8-0.3-1.5-0.2-2.2c0.1-0.7,0.3-1.3,0.5-1.9     c0.2-0.6,0.3-1.2,0.5-1.8c0.1-0.6,0.1-1.2-0.2-1.8c0.1,0,0.1,0.1,0.2,0.1c0.1,0,0.2-0.1,0.2-0.2c0.1-0.2,0.2-0.4,0.2-0.7     c0.1-0.3,0.1-0.6,0.1-1c0-0.3,0-0.6-0.1-0.8c0.5-1.1,0.8-2.2,1.1-3.4c0.3-1.2,0.5-2.3,0.7-3.5c0.2-1.2,0.5-2.3,0.7-3.4     c0.3-1.1,0.6-2.1,1-3.1c0.1,0,0.3,0,0.4,0c0.4,0,0.8,0.1,1.2,0.2c0.6,0.2,0.9,0.4,1.1,0.7c1.1-0.9,2.1-1.9,2.9-3.1     c0.9-1.2,1.7-2.4,2.6-3.5c0.9-1.2,1.9-2.2,3-3.1C184.9,45.9,186.3,45.4,187.9,45.2 M180.6,64.2c1.5-0.2,3.1-0.6,4.7-1.3     c1.6-0.7,3.2-1.3,4.6-1.9c-0.2-1.3-0.6-2.4-1.4-3.2c-0.7-0.8-1.5-1.3-2.3-1.6c-0.5,0.7-1,1.3-1.5,1.8c-0.6,0.6-1.1,1.1-1.7,1.7     c-0.6,0.6-1,1.2-1.5,1.9C181.1,62.4,180.8,63.2,180.6,64.2 M189,41.1l-1.5,0.2c-2.4,0.3-4.5,1.1-6.2,2.5     c-1.3,1.1-2.6,2.4-3.6,3.8c-0.9,1.2-1.8,2.4-2.7,3.6c-0.2,0.2-0.3,0.4-0.5,0.6c-0.5-0.1-1-0.2-1.5-0.2c-0.3,0-0.6,0-1,0.1L170,52     l-0.9,2c-0.5,1.2-0.9,2.4-1.3,3.7c-0.3,1.2-0.5,2.4-0.8,3.6c-0.2,1.1-0.4,2.2-0.7,3.3c-0.1,0.3-0.1,0.6-0.2,0.9l-5.4-3.3     l4.1,10.6c-0.1,0.4-0.2,0.8-0.3,1.3c-0.1,0.4-0.2,0.8-0.3,1.2h-3.8l3.7,6c0.1,0.2,0.2,0.3,0.3,0.5c0,0.1,0.1,0.1,0.1,0.2     c0,0.1,0,0.2,0.1,0.2c0,0.2,0.1,0.3,0.1,0.5l-1.7,5l3.6-0.3l0.5,1.4l2.3-0.2c0.1,0.1,0.3,0.2,0.5,0.2c0.7,0.3,1.4,0.5,2.1,0.5     c0.4,0,0.8,0,1.2-0.1l0.7-0.1l0.6-0.4c0,0,0,0,0,0l1.4,0.2l1.5-1.9c0.6-0.8,1.2-1.6,1.6-2.4c0,0,0.1,0,0.1,0.1     c0.8,0.5,1.8,1,2.9,1.6c1.1,0.5,2.4,1.1,4.1,1.7c3.3,1.2,5.9,2.1,8.1,2.6c1.2,0.3,2.4,0.4,3.5,0.4c1.2,0,2.3-0.2,3.3-0.5     c1-0.2,1.8-0.6,2.6-1.3c0.4-0.4,0.8-0.8,1.1-1.3l0.4-0.6l7.3-5.2L206,81c0-0.1,0-0.2-0.1-0.3c-0.2-0.8-0.4-1.7-0.8-2.5     c-0.4-1-1-1.8-1.7-2.5l-1-1l-1.4-0.2c-0.9-0.1-1.7-0.2-2.2-0.3c-0.5-0.1-1-0.1-1.4-0.2c-0.4-0.1-0.9-0.2-1.4-0.3     c-0.6-0.2-1.4-0.3-2.3-0.6c0.5-0.2,0.9-0.4,1.3-0.6c2-0.9,3.7-2.2,5.1-3.7c1.7-1.8,2.7-4.2,2.9-7l0-0.1v-0.1c0-0.5,0-1-0.1-1.4     c0-0.1,0-0.2-0.1-0.3l0.3-0.9l-0.8-1.5c-0.2-0.4-0.4-0.9-0.6-1.4c-0.3-0.8-0.5-1.5-0.8-2.2c-0.3-0.8-0.7-1.7-1.1-2.4     c-0.2-0.4-0.5-0.8-0.8-1.2v-1.5l-1.9-1.2c-0.2-0.1-0.4-0.2-0.6-0.4c-0.1-0.1-0.2-0.2-0.4-0.3c-0.9-1.2-2-2.2-3.3-3     c-1-0.7-2-1.3-2.7-1.9L189,41.1L189,41.1z"/>
			<path fill="#99C7BB" d="M204.5,74.4c-1.1-0.6-1.9-1.5-2.5-2.6c-0.6-1.1-0.9-2.2-1-3.1c0.1-0.9,0.3-1.5,0.7-2s0.7-0.9,1.2-1.2     c0.5-0.3,0.9-0.5,1.4-0.7c0.5-0.2,1-0.3,1.4-0.4l0.8,0.3c0.2,0.2,0.4,0.3,0.6,0.5c0.2,0.1,0.4,0.3,0.6,0.4     c0.4-0.1,0.6-0.4,0.7-0.6c0.1-0.3,0.2-0.6,0.3-0.9c0.1-0.4,0.2-0.8,0.4-1.2c0.1-0.4,0.3-0.8,0.5-1.2c0-0.3,0-0.6,0.1-0.9     c0.1-0.2,0.1-0.5,0.2-0.6c-0.2-0.2-0.4-0.3-0.5-0.3c-0.1,0-0.2-0.1-0.5-0.1c-0.1,0-0.2,0-0.3,0c-0.1,0-0.2,0-0.4-0.1     c-0.5-0.4-0.9-0.7-1-1c-0.2-0.3-0.3-0.5-0.5-0.8c-0.2-0.3-0.3-0.5-0.5-0.7c-0.1-0.2-0.3-0.4-0.5-0.6l-0.6-0.4l0.3-0.6     c0.1-0.1,0.1-0.2,0.1-0.3c0-0.1-0.1-0.3-0.2-0.6c-0.1-0.5-0.1-0.8-0.1-1l0.1-0.6c0.4-0.5,0.6-0.7,0.6-0.8l0.5-0.5     c0.8-0.2,1.7-0.5,2.5-0.7c0.9-0.3,1.7-0.5,2.5-0.8c0.8-0.3,1.7-0.6,2.5-0.9c0.9-0.3,1.7-0.5,2.6-0.7c0.3-0.2,0.6-0.4,0.9-0.5     c0.3-0.1,0.6-0.1,0.9-0.1c0.2,0,0.5,0,0.7-0.1c0.2,0,0.4-0.1,0.5-0.3c0.6-0.2,1.2-0.4,1.8-0.5c1.1-0.3,2.5-0.6,4.2-1     c1.7-0.4,3.7-0.7,5.9-0.9l1.1-0.1c0.2,0,0.4,0,0.6,0c0.2,0,0.4,0,0.6,0c1.8,0,3.1,0.6,3.7,1.7c0.4,0.2,0.7,0.4,1,0.7     c0.3,0.3,0.6,0.5,0.8,0.8c0.2,0.2,0.3,0.3,0.5,0.5c0.1,0.1,0.3,0.2,0.4,0.3l0.4,0.4c0.4,0.9,0.5,1.7,0.2,2.5     c-0.2,0.4-0.4,0.7-0.7,0.7c-0.2,0.1-0.5,0.1-0.7,0.2l-0.7,0.4c-0.5,0-0.8-0.1-1-0.1c-0.2,0-0.5,0-0.8,0c-1.1,0-2.3,0.1-3.7,0.2     c-1.4,0.1-2.8,0.3-4.3,0.5c-1.5,0.2-2.9,0.5-4.3,0.9c-1.4,0.3-2.6,0.7-3.6,1.1c-0.3,0.2-0.7,0.4-1.1,0.6c-0.1,0-0.3,0.1-0.5,0.3     c0,0.3,0,0.6,0,0.8c0,0.3-0.1,0.5-0.2,0.8c0,0.2-0.1,0.4-0.1,0.6c0,0.2,0,0.4-0.1,0.6c-0.7,0.9-1.1,1.9-1.1,3.1l-0.3,0.5     c-0.1,0.1-0.3,0.3-0.3,0.6c-0.1,0.3-0.1,0.5,0,0.8l0.2,0.6c0.7-0.1,1.4-0.2,2.1-0.2c0.7-0.1,1.4-0.2,2.2-0.3c1-0.2,2-0.3,3-0.5     c1-0.1,2.1-0.2,3.2-0.2h2.1l-0.5,0.5l0.6,0.1l-0.3,0.9c0.2,0.1,0.4,0.2,0.6,0.2c0.1,0.1,0.2,0.1,0.3,0.2l0.4,0.5     c0.2,0.1,0.3,0.3,0.5,0.5c0.1,0.2,0.2,0.5,0.3,0.9l-0.2,0.5l-2.5,3.2l-0.3,0.4l-0.5-0.2c-0.7,0-1.3,0-1.9,0.2     c-0.3,0.1-0.6,0.2-0.9,0.2c-0.3,0.1-0.6,0.1-1,0.1c-0.9,0.1-1.6,0.3-2.1,0.3c-0.6,0.1-1.1,0.2-1.7,0.2c-0.8,0.1-1.5,0.3-2.3,0.4     c-0.7,0.1-1.4,0.3-2.1,0.6c-0.4,0-0.6,0-0.7,0c-0.1,0-0.1,0-0.2,0c-0.4,0-0.7,0.1-1.1,0.2c-0.4,0.1-0.7,0.2-1,0.3     c-0.2,0.2-0.4,0.4-0.4,0.6c-0.1,0.2-0.1,0.4-0.2,0.6c-0.1,0.2-0.2,0.5-0.3,0.7c-0.1,0.2-0.3,0.5-0.5,0.7l0.1,1     c-0.3,0.1-0.5,0.1-0.5,0.1c0,0,0,0-0.1,0c0,0.3,0,0.6-0.1,0.8c-0.1,0.2-0.2,0.5-0.2,0.7c-0.1,0.1-0.1,0.3-0.2,0.4     c0,0.1-0.1,0.2-0.1,0.3c0.4,0.6,0.4,1.4,0.3,2.2c-0.1,0.7-0.4,1.3-0.8,1.8c-0.4,0.5-0.9,0.9-1.4,1.2c-0.6,0.1-1,0.1-1.3-0.1     c-0.3-0.1-0.5-0.2-0.8-0.3c-0.2-0.1-0.4-0.1-0.5-0.2c-0.2-0.1-0.4-0.1-0.5-0.1l-0.6-0.5c-0.1-0.2-0.2-0.4-0.4-0.6     c-0.1-0.2-0.3-0.4-0.4-0.6c-0.2-0.2-0.4-0.5-0.5-0.7c-0.2-0.2-0.3-0.5-0.5-0.9c-0.2-1.2-0.3-2.3-0.1-3.1c0.2-0.8,0.4-1.7,0.7-2.5     c0.1-0.3,0.1-0.6,0.2-0.8C204.4,74.9,204.5,74.6,204.5,74.4z"/>
			<path d="M233.9,45.1c1.8,0,3.1,0.6,3.7,1.7c0.4,0.2,0.7,0.4,1,0.7c0.3,0.3,0.6,0.5,0.8,0.8c0.2,0.2,0.3,0.3,0.5,0.5     c0.1,0.1,0.3,0.2,0.4,0.3l0.4,0.4c0.4,0.9,0.5,1.7,0.2,2.5c-0.2,0.4-0.4,0.7-0.7,0.7c-0.2,0.1-0.5,0.1-0.7,0.2l-0.7,0.4     c-0.5,0-0.8-0.1-1-0.1c-0.2,0-0.5,0-0.8,0c-1.1,0-2.3,0.1-3.7,0.2c-1.4,0.1-2.8,0.3-4.3,0.5c-1.5,0.2-2.9,0.5-4.3,0.9     c-1.4,0.3-2.6,0.7-3.6,1.1c-0.3,0.2-0.7,0.4-1.1,0.6c-0.1,0-0.3,0.1-0.5,0.3c0,0.3,0,0.6,0,0.8c0,0.3-0.1,0.5-0.2,0.8     c0,0.2-0.1,0.4-0.1,0.6c0,0.2,0,0.4-0.1,0.6c-0.7,0.9-1.1,1.9-1.1,3.1l-0.3,0.5c-0.1,0.1-0.3,0.3-0.3,0.6c-0.1,0.3-0.1,0.5,0,0.8     l0.2,0.6c0.7-0.1,1.4-0.2,2.1-0.2c0.7-0.1,1.4-0.2,2.2-0.3c1-0.2,2-0.3,3-0.5c1-0.1,2.1-0.2,3.2-0.2h2.1l-0.5,0.5l0.6,0.1     l-0.3,0.9c0.2,0.1,0.4,0.2,0.6,0.2c0.1,0.1,0.2,0.1,0.3,0.2l0.4,0.5c0.2,0.1,0.3,0.3,0.5,0.5c0.1,0.2,0.2,0.5,0.3,0.9l-0.2,0.5     l-2.5,3.2l-0.3,0.4l-0.5-0.2c-0.1,0-0.2,0-0.3,0c-0.6,0-1.1,0.1-1.6,0.2c-0.3,0.1-0.6,0.2-0.9,0.2c-0.3,0.1-0.6,0.1-1,0.1     c-0.9,0.1-1.6,0.3-2.1,0.3c-0.6,0.1-1.1,0.2-1.7,0.2c-0.8,0.1-1.5,0.3-2.3,0.4c-0.7,0.1-1.4,0.3-2.1,0.6c-0.3,0-0.4,0-0.6,0     c-0.1,0-0.1,0-0.1,0c-0.1,0-0.1,0-0.2,0c-0.4,0-0.7,0.1-1.1,0.2c-0.4,0.1-0.7,0.2-1,0.3c-0.2,0.2-0.4,0.4-0.4,0.6     c-0.1,0.2-0.1,0.4-0.2,0.6c-0.1,0.2-0.2,0.5-0.3,0.7c-0.1,0.2-0.3,0.5-0.5,0.7l0.1,1c-0.3,0.1-0.5,0.1-0.5,0.1c0,0,0,0-0.1,0     c0,0.3,0,0.6-0.1,0.8c-0.1,0.2-0.2,0.5-0.2,0.7c-0.1,0.1-0.1,0.3-0.2,0.4c0,0.1-0.1,0.2-0.1,0.3c0.4,0.6,0.4,1.4,0.3,2.2     c-0.1,0.7-0.4,1.3-0.8,1.8c-0.4,0.5-0.9,0.9-1.4,1.2c-0.2,0-0.4,0-0.6,0c-0.3,0-0.5,0-0.6-0.1c-0.3-0.1-0.5-0.2-0.8-0.3     c-0.2-0.1-0.4-0.1-0.5-0.2c-0.2-0.1-0.4-0.1-0.5-0.1l-0.6-0.5c-0.1-0.2-0.2-0.4-0.4-0.6c-0.1-0.2-0.3-0.4-0.4-0.6     c-0.2-0.2-0.4-0.5-0.5-0.7c-0.2-0.2-0.3-0.5-0.5-0.9c-0.2-1.2-0.3-2.3-0.1-3.1c0.2-0.8,0.4-1.7,0.7-2.5c0.1-0.3,0.1-0.6,0.2-0.8     c0.1-0.2,0.1-0.5,0.2-0.8c-1.1-0.6-1.9-1.5-2.5-2.6c-0.6-1.1-0.9-2.2-1-3.1c0.1-0.9,0.3-1.5,0.7-2s0.7-0.9,1.2-1.2     c0.5-0.3,0.9-0.5,1.4-0.7c0.5-0.2,1-0.3,1.4-0.4l0.8,0.3c0.2,0.2,0.4,0.3,0.6,0.5c0.2,0.1,0.4,0.3,0.6,0.4     c0.4-0.1,0.6-0.4,0.7-0.6c0.1-0.3,0.2-0.6,0.3-0.9c0.1-0.4,0.2-0.8,0.4-1.2c0.1-0.4,0.3-0.8,0.5-1.2c0-0.3,0-0.6,0.1-0.9     c0.1-0.2,0.1-0.5,0.2-0.6c-0.2-0.2-0.4-0.3-0.5-0.3c-0.1,0-0.2-0.1-0.5-0.1c-0.1,0-0.2,0-0.3,0c-0.1,0-0.2,0-0.4-0.1     c-0.5-0.4-0.9-0.7-1-1c-0.2-0.3-0.3-0.5-0.5-0.8c-0.2-0.3-0.3-0.5-0.5-0.7c-0.1-0.2-0.3-0.4-0.5-0.6l-0.6-0.4l0.3-0.6     c0.1-0.1,0.1-0.2,0.1-0.3c0-0.1-0.1-0.3-0.2-0.6c-0.1-0.5-0.1-0.8-0.1-1l0.1-0.6c0.4-0.5,0.6-0.7,0.6-0.8l0.5-0.5     c0.8-0.2,1.7-0.5,2.5-0.7c0.9-0.3,1.7-0.5,2.5-0.8c0.8-0.3,1.7-0.6,2.5-0.9c0.9-0.3,1.7-0.5,2.6-0.7c0.3-0.2,0.6-0.4,0.9-0.5     c0.3-0.1,0.6-0.1,0.9-0.1c0.2,0,0.5,0,0.7-0.1c0.2,0,0.4-0.1,0.5-0.3c0.6-0.2,1.2-0.4,1.8-0.5c1.1-0.3,2.5-0.6,4.2-1     c1.7-0.4,3.7-0.7,5.9-0.9l1.1-0.1c0.1,0,0.3,0,0.4,0c0.1,0,0.1,0,0.2,0C233.5,45.1,233.7,45.1,233.9,45.1 M232.9,41.2l-0.4,0     l-1.1,0.1l-0.1,0l-0.1,0c-2.3,0.2-4.5,0.5-6.4,0.9c-1.8,0.4-3.2,0.7-4.3,1c-0.7,0.2-1.4,0.4-2.1,0.6L218,44     c-0.3,0-0.7,0.1-1.1,0.2c-0.7,0.1-1.4,0.3-2,0.7c-0.7,0.2-1.4,0.4-2.1,0.6c-0.9,0.3-1.7,0.6-2.6,0.9c-0.8,0.3-1.6,0.5-2.4,0.8     c-0.8,0.2-1.6,0.5-2.3,0.7l-1,0.3l-0.8,0.8l-0.5,0.5l-0.4,0.4l-0.2,0.3c-0.1,0.1-0.2,0.2-0.3,0.4l-0.6,0.8l-0.2,1l-0.1,0.5     c-0.2,0.7-0.1,1.4-0.1,2l-1.3,2.6l2.9,1.9l0.1,0.1c0.1,0.1,0.2,0.3,0.3,0.5c0.2,0.2,0.3,0.5,0.5,0.8c0,0,0,0.1,0,0.1     c-0.2,0.1-0.5,0.1-0.7,0.2c-0.8,0.3-1.6,0.7-2.4,1.1c-0.9,0.6-1.6,1.3-2.3,2.2c-0.7,1-1.2,2.3-1.4,3.8l0,0.4l0,0.4     c0.1,1.5,0.6,3.1,1.4,4.7c0.4,0.8,0.9,1.5,1.5,2.1c-0.2,0.6-0.3,1.3-0.5,2c-0.3,1.4-0.2,2.9,0.1,4.6l0.1,0.4l0.2,0.4     c0.3,0.6,0.5,1.1,0.9,1.6c0.2,0.2,0.3,0.5,0.5,0.7c0.2,0.2,0.3,0.5,0.5,0.7c0,0,0,0,0,0l0.4,0.7l0.6,0.5l0.6,0.5l0.8,0.6l1,0.2     c0.1,0,0.1,0,0.2,0c0.1,0,0.1,0,0.2,0.1l0,0l0,0c0.3,0.1,0.5,0.2,0.8,0.3c0.6,0.3,1.3,0.4,2.1,0.4c0.3,0,0.7,0,1.1-0.1l0.7-0.1     l0.6-0.3c1-0.6,1.9-1.3,2.7-2.3c0.7-1,1.3-2.1,1.5-3.4c0.1-0.7,0.2-1.4,0.2-2l1-0.2l-0.2-3.1c0,0,0-0.1,0.1-0.1     c0.2,0,0.4,0,0.7,0l0.6-0.1l0.5-0.2c0.4-0.2,0.8-0.3,1.3-0.3c0.7-0.1,1.4-0.2,2.2-0.4c0.6-0.1,1.1-0.2,1.7-0.2     c0.5-0.1,1.2-0.2,1.9-0.3c0.5,0,1.1-0.1,1.6-0.3c0.3-0.1,0.5-0.1,0.8-0.2l0.1,0l0.1,0c0.1,0,0.2,0,0.2,0l2.6,0.8l1.7-2.2l0.3-0.4     l2.5-3.2l0.5-0.6l0.2-0.7l0.2-0.5l0.2-0.7l-0.1-0.8c-0.1-1-0.4-1.9-0.8-2.6c0,0,0-0.1-0.1-0.1l4.7-4.7h-9.5h-2.1     c-1.3,0-2.5,0.1-3.7,0.2c-0.5,0.1-1,0.1-1.5,0.2l0.1-0.4c0-0.3,0.1-0.6,0.1-0.8c0.7-0.2,1.6-0.5,2.5-0.7c1.3-0.3,2.6-0.6,4-0.8     c1.4-0.2,2.7-0.4,4-0.5c1.3-0.1,2.4-0.2,3.4-0.2h0.8c0,0,0.2,0,0.7,0l1.2,0.1l1-0.5l0.3-0.2l0.3-0.1c0.9-0.3,2.2-1,3.1-2.8     l0.1-0.3l0.1-0.3c0.5-1.7,0.4-3.6-0.4-5.3l-0.3-0.6l-0.5-0.5l-0.4-0.4l-0.3-0.3l-0.3-0.2l0,0c-0.1-0.1-0.2-0.2-0.3-0.3     c-0.3-0.3-0.6-0.6-0.9-0.9c-0.3-0.3-0.6-0.5-0.9-0.7c-1.1-1.3-3-2.7-6.4-2.7c-0.3,0-0.5,0-0.8,0L232.9,41.2L232.9,41.2z"/>
			<path fill="#99C7BB" d="M238.6,80.5c-1-0.8-1.9-1.8-2.5-2.9c-0.7-1.2-1.2-2.4-1.5-3.7c-0.4-1.3-0.6-2.7-0.7-4.1     c-0.1-1.4-0.2-2.7-0.1-4c0.3-1,0.7-1.8,1.2-2.6c0.5-0.8,1-1.6,1.5-2.3c0.6-0.7,1.2-1.4,1.8-2.1c0.6-0.7,1.2-1.3,1.8-2     c0.2,0,0.4,0.1,0.6,0.2c0.1-0.4,0.4-0.7,0.6-1c0.3-0.3,0.6-0.5,0.9-0.8c0.3-0.2,0.6-0.5,1-0.7c0.3-0.2,0.6-0.5,0.8-0.8     c0.9-0.2,1.7-0.5,2.4-0.9c0.7-0.4,1.4-0.8,2-1.3c0.6-0.5,1.3-0.9,2-1.3c0.7-0.4,1.5-0.7,2.3-0.9c0.3-0.4,0.7-0.7,1.2-0.9     c0.5-0.2,1-0.5,1.4-0.7c0.5-0.2,0.9-0.4,1.4-0.7c0.4-0.2,0.8-0.6,1.1-1c0.2,0.3,0.5,0.4,0.9,0.3c0.4-0.1,0.7-0.2,1.1-0.3     c0.2,0,0.4,0,0.5,0.1c0.1,0.1,0.3,0.2,0.4,0.3c0.1,0.1,0.2,0.2,0.3,0.2c0.1,0,0.2-0.1,0.3-0.3c0.3,0,0.4,0.2,0.2,0.4     c-0.1,0.2-0.2,0.4-0.2,0.4c0.4-0.1,0.6,0,0.9,0.2c0.2,0.2,0.6,0.3,1.1,0.4c0.2,0.2,0.2,0.3,0.2,0.4c-0.1,0.1-0.1,0.3-0.2,0.5     c1.3,0.4,2.1,1,2.5,1.8c0.4,0.8,0.4,1.7,0.1,2.6c-0.3,0.9-0.8,1.7-1.6,2.5c-0.8,0.8-1.6,1.3-2.5,1.5c-1.1,0.3-2.1,0.6-3.1,0.9     c-0.9,0.3-1.8,0.6-2.7,1c-0.9,0.4-1.7,0.8-2.5,1.3c-0.8,0.5-1.4,1-2,1.7c-1,0.3-1.9,0.7-2.7,1.2c-0.8,0.5-1.5,1-2.2,1.7     c-0.7,0.6-1.4,1.2-2,1.9c-0.6,0.7-1.3,1.3-1.9,1.9c0,0.6-0.1,1.1-0.3,1.4c-0.2,0.3-0.4,0.6-0.7,1c0.1,0.7,0.2,1.3,0.5,1.7     c0.2,0.5,0.5,1,0.7,1.5c2.8,0.9,5.9,1.4,9,1.6c3.2,0.2,6.3,0.3,9.5,0.3c0.3,0.4,0.7,0.8,1.1,1.2c0.4,0.4,0.8,0.8,1.1,1.1     c0.3,0.4,0.6,0.8,0.8,1.4c0.2,0.5,0.2,1.1,0.1,1.8c-0.6,0.6-1.3,1.2-2,1.7c-0.7,0.6-1.4,1.1-2.1,1.6c-0.3,0-0.7,0-1.1,0     c-0.4,0-0.9-0.1-1.4-0.1s-1,0-1.4,0.1c-0.5,0.1-0.9,0.2-1.4,0.3c-2.2-0.1-4.5-0.3-6.9-0.8c-2.3-0.5-4.5-1.1-6.5-1.7     c-0.4-0.5-0.8-0.9-1.2-1.3C239.8,81,239.3,80.7,238.6,80.5z"/>
			<path d="M259.8,45.9c0.1,0,0.3,0,0.4,0.1c0.1,0.1,0.3,0.2,0.4,0.3c0.1,0.1,0.2,0.2,0.3,0.2c0,0,0,0,0,0c0.1,0,0.2-0.1,0.3-0.3     c0.3,0,0.4,0.2,0.2,0.4c-0.1,0.2-0.2,0.4-0.2,0.4c0.1,0,0.2,0,0.3,0c0.2,0,0.4,0.1,0.6,0.2c0.2,0.2,0.6,0.3,1.1,0.4     c0.2,0.2,0.2,0.3,0.2,0.4c-0.1,0.1-0.1,0.3-0.2,0.5c1.3,0.4,2.1,1,2.5,1.8c0.4,0.8,0.4,1.7,0.1,2.6c-0.3,0.9-0.8,1.7-1.6,2.5     c-0.8,0.8-1.6,1.3-2.5,1.5c-1.1,0.3-2.1,0.6-3.1,0.9c-0.9,0.3-1.8,0.6-2.7,1c-0.9,0.4-1.7,0.8-2.5,1.3c-0.8,0.5-1.4,1-2,1.7     c-1,0.3-1.9,0.7-2.7,1.2c-0.8,0.5-1.5,1-2.2,1.7c-0.7,0.6-1.4,1.2-2,1.9c-0.6,0.7-1.3,1.3-1.9,1.9c0,0.6-0.1,1.1-0.3,1.4     c-0.2,0.3-0.4,0.6-0.7,1c0.1,0.7,0.2,1.3,0.5,1.7c0.2,0.5,0.5,1,0.7,1.5c2.8,0.9,5.9,1.4,9,1.6c3.2,0.2,6.3,0.3,9.5,0.3     c0.3,0.4,0.7,0.8,1.1,1.2c0.4,0.4,0.8,0.8,1.1,1.1c0.3,0.4,0.6,0.8,0.8,1.4c0.2,0.5,0.2,1.1,0.1,1.8c-0.6,0.6-1.3,1.2-2,1.7     c-0.7,0.6-1.4,1.1-2.1,1.6c-0.2,0-0.3,0-0.5,0c-0.2,0-0.4,0-0.6,0c-0.4,0-0.9-0.1-1.4-0.1c-0.5,0-1,0-1.4,0.1     c-0.5,0.1-0.9,0.2-1.4,0.3c-2.2-0.1-4.5-0.3-6.9-0.8c-2.3-0.5-4.5-1.1-6.5-1.7c-0.4-0.5-0.8-0.9-1.2-1.3c-0.4-0.4-1-0.7-1.7-0.9     c-1-0.8-1.9-1.8-2.5-2.9c-0.7-1.2-1.2-2.4-1.5-3.7c-0.4-1.3-0.6-2.7-0.7-4.1c-0.1-1.4-0.2-2.7-0.1-4c0.3-1,0.7-1.8,1.2-2.6     c0.5-0.8,1-1.6,1.5-2.3c0.6-0.7,1.2-1.4,1.8-2.1c0.6-0.7,1.2-1.3,1.8-2c0.2,0,0.4,0.1,0.6,0.2c0.1-0.4,0.4-0.7,0.6-1     c0.3-0.3,0.6-0.5,0.9-0.8c0.3-0.2,0.6-0.5,1-0.7c0.3-0.2,0.6-0.5,0.8-0.8c0.9-0.2,1.7-0.5,2.4-0.9c0.7-0.4,1.4-0.8,2-1.3     c0.6-0.5,1.3-0.9,2-1.3c0.7-0.4,1.5-0.7,2.3-0.9c0.3-0.4,0.7-0.7,1.2-0.9c0.5-0.2,1-0.5,1.4-0.7c0.5-0.2,0.9-0.4,1.4-0.7     c0.4-0.2,0.8-0.6,1.1-1c0.2,0.2,0.4,0.3,0.6,0.3c0.1,0,0.2,0,0.3,0c0.4-0.1,0.7-0.2,1.1-0.3C259.7,45.9,259.7,45.9,259.8,45.9      M257.5,39.1l-3,4.5c-0.3,0.2-0.6,0.3-0.9,0.4c-0.5,0.2-1.1,0.5-1.7,0.8c-0.5,0.3-0.9,0.5-1.3,0.9c-0.9,0.3-1.6,0.6-2.4,1     c-0.8,0.5-1.6,1-2.3,1.5c-0.5,0.4-1.1,0.7-1.6,1c-0.4,0.2-0.8,0.4-1.4,0.5l-1.5,0.4l-0.8,1.2l-0.9,0.6c-0.4,0.3-0.7,0.6-1.1,0.9     h-0.5l-1.2,1.3c-0.6,0.6-1.2,1.3-1.8,1.9c-0.7,0.7-1.4,1.5-2,2.4c-0.7,0.9-1.3,1.8-1.9,2.7c-0.6,1-1.1,2.2-1.5,3.4l-0.2,0.6     l0,0.6c0,1.4,0,2.9,0.1,4.5c0.1,1.6,0.4,3.3,0.9,4.8c0.5,1.6,1.1,3.2,1.9,4.6c0.9,1.6,2.1,3,3.6,4.1l0.6,0.5l0.8,0.2     c0,0,0,0,0.1,0c0.3,0.3,0.6,0.6,0.8,0.9l0.7,0.8l1,0.4c2.1,0.7,4.5,1.4,7,1.9c2.6,0.5,5.1,0.8,7.5,0.9l0.9,0l0.8-0.3     c0.1,0,0.2-0.1,0.3-0.1c0.3,0,0.7-0.1,1-0.1c0.4,0,0.7,0,1.1,0c0.3,0,0.6,0,0.9,0c0.3,0,0.7,0,1-0.1l1.1-0.1l0.9-0.6     c0.7-0.5,1.5-1.1,2.2-1.7c0.8-0.6,1.6-1.3,2.3-2.1l0.9-0.9l0.2-1.3c0.2-1.4,0.1-2.7-0.3-3.8c-0.4-1-0.9-1.8-1.5-2.5     c-0.4-0.5-0.9-1-1.4-1.5c-0.2-0.2-0.4-0.4-0.6-0.7l-1.2-1.6l-1.9,0c-3,0-6.2-0.1-9.3-0.3c-2-0.1-4-0.4-5.9-0.8     c0.1-0.2,0.1-0.3,0.2-0.5c0.3-0.3,0.7-0.7,1-1c0.6-0.6,1.2-1.1,1.8-1.7c0.5-0.5,1.1-0.9,1.7-1.3c0.5-0.3,1.1-0.5,1.7-0.7l1.1-0.3     l0.8-0.9c0.3-0.4,0.7-0.7,1.1-1c0.6-0.4,1.2-0.7,1.8-0.9c0.8-0.3,1.5-0.6,2.4-0.8c0.9-0.3,1.9-0.5,2.9-0.8     c1.6-0.4,3.1-1.3,4.3-2.5c1.2-1.2,2.1-2.6,2.5-4.1c0.6-1.8,0.5-3.6-0.2-5.3c-0.4-0.9-1.1-2-2.4-2.9c-0.2-0.4-0.5-0.8-0.8-1.1     L265,44l-0.5-0.1c-0.7-0.8-1.6-1.3-2.8-1.5c-0.6-0.3-1.3-0.4-1.9-0.4c-0.1,0-0.1,0-0.2,0L257.5,39.1L257.5,39.1z"/>
			<path fill="#99C7BB" d="M265.6,80.1l0.7-0.5l0.1-1.1c0.9-2.2,1.8-4.2,2.7-6.2c0.9-2,1.9-4,3-6.1c0.3-0.7,0.6-1.4,1-2     c0.3-0.7,0.7-1.4,1-2.1c0-0.1-0.1-0.3-0.1-0.5c0-0.2,0-0.3,0.1-0.6c0.5-0.7,0.9-1.4,1.2-1.9c0.3-0.6,0.6-1.2,0.9-1.8     c0.3-0.7,0.7-1.4,1-2.1c0.4-0.7,0.8-1.4,1.4-2.1l0.4-0.5l0.6,0.1c0.1-0.1,0.3-0.1,0.5-0.2c0.2-0.1,0.4-0.1,0.6-0.1l1,0.2     c1.2-0.5,2.2-1.3,3.1-2.3c0.9-1,1.8-2.2,2.7-3.7l0.6-0.9l0.9,0.5c0.2,0.1,0.5,0.2,0.9,0.3c0.4,0.1,0.8,0.2,1.2,0.4     c0.7,0.2,1.5,0.4,2.2,0.6c0.7,0.2,1.3,0.5,1.7,0.9l0.3,0.5c0.1,0.4,0.1,0.7,0.2,1.1c0.1,0.3,0.1,0.6,0.2,1     c0.1,0.7,0.3,1.5,0.4,2.2c0.1,0.7,0.2,1.5,0.2,2.4c0.2,0.7,0.3,1.4,0.5,2.2c0.2,0.7,0.3,1.4,0.5,2.2c0.2,1,0.4,2,0.6,3     c0.2,0.9,0.5,1.8,0.9,2.7c0.4,0,0.6,0,0.6,0.1c0.4-0.2,0.9-0.3,1.5-0.3l0.7-0.1l0.2,0.6c0.1,0.1,0.2,0.2,0.3,0.3     c0.1,0.1,0.2,0.2,0.4,0.3c0.6,0,1,0.2,1.3,0.3c0.3,0.2,0.5,0.4,0.7,0.6c0.1,0.1,0.2,0.2,0.3,0.2c0.1,0.1,0.2,0.2,0.3,0.2l1,0.4     l-0.5,1c-0.4,0.7-1,1.5-1.8,2.2c-0.8,0.7-1.7,1.3-2.7,1.8c0.1,0.2,0.1,0.5,0.1,0.7c0,0.2,0.1,0.5,0.1,0.7     c0.1,0.7,0.3,1.4,0.3,2.2c0.1,0.8,0.1,1.6,0,2.4c-0.4,0.9-0.8,1.8-1.3,2.5c-0.5,0.7-1,1.4-1.7,2c-0.7,0.6-1.4,1.1-2.2,1.4     c-0.8,0.4-1.7,0.6-2.6,0.6c-0.5-0.1-0.9-0.2-1.1-0.4c-0.2-0.1-0.4-0.3-0.6-0.4c-0.3-0.2-0.5-0.4-0.7-0.4l-0.7-0.3l0.2-0.8     c0.1-0.3,0.1-0.5,0-0.7c-0.1-0.2-0.4-0.5-0.8-0.9c-0.1-0.1-0.3-0.2-0.4-0.3c-0.1-0.1-0.2-0.3-0.4-0.4l-1.1-1.2l1.8-0.5     c1.1-0.3,1.8-0.6,2.1-1.1c0.4-0.4,0.5-1.2,0.4-2.4c-0.9-0.2-1.6-0.2-2.2-0.1c-0.6,0.1-1.1,0.3-1.7,0.4c-0.8,0.2-1.6,0.4-2.4,0.6     c-0.8,0.2-1.6,0.2-2.6,0.2c-0.6,0-1.2-0.1-1.9-0.2l-0.6-0.1l-0.2-0.6c0-0.1,0-0.2-0.1-0.2c-0.1-0.1-0.2-0.2-0.2-0.2     c-0.2-0.2-0.4-0.5-0.6-0.9c-0.2-0.4-0.3-0.8-0.2-1.3c-0.2-0.4-0.4-0.8-0.4-1.2c-0.1,0.3-0.3,0.6-0.3,0.8     c-0.1,0.3-0.2,0.5-0.2,0.8l-0.2,0.7l-0.7,0.1c-0.1,0.1-0.1,0.2-0.2,0.3c-0.1,0.1-0.1,0.2,0,0.3l0.2,0.6l-0.5,0.5     c-0.1,0.1-0.2,0.2-0.3,0.3c-0.1,0.1-0.2,0.1-0.3,0.2c-0.1,0.4-0.2,0.8-0.3,1.1c-0.1,0.4-0.3,0.7-0.4,1.1     c-0.2,0.6-0.3,1.1-0.5,1.7c-0.2,0.5-0.2,1.1-0.2,1.6l-0.2,0.7c-0.2,0.3-0.4,0.5-0.7,0.6c-0.3,0.1-0.5,0.3-0.8,0.4     c-0.4,0.1-0.6,0.3-0.7,0.4l-0.2,0.7l-0.8,0.1c-0.5,0.1-0.8,0.2-1,0.2c-0.2,0-0.4,0.1-0.7,0.1l-0.7-0.1c-0.4-0.4-0.8-0.8-1-1     c-0.3-0.2-0.6-0.4-0.9-0.6l-0.3-0.4c-0.1-0.3-0.2-0.5-0.3-0.8c0-0.2-0.1-0.5-0.2-0.7c-0.1-0.5-0.2-0.8-0.3-1L265.6,80.1z      M282.6,66.3c-0.5,0.7-1,1.5-1.4,2.2c0.2,0,0.5-0.1,0.7-0.1c0.2,0,0.5,0,0.7-0.1c1.2-0.1,2.4-0.2,3.5-0.3     c1.1-0.1,2.2-0.3,3.5-0.5c-0.3-1.3-0.6-2.7-0.9-4c-0.3-1.4-0.7-2.7-1.1-4.1l-0.3,0.5c-0.9,1-1.7,2-2.6,3.1     C283.9,64.2,283.2,65.2,282.6,66.3L282.6,66.3z"/>
			<path d="M288.1,45.6l0.9,0.5c0.2,0.1,0.5,0.2,0.9,0.3c0.4,0.1,0.8,0.2,1.2,0.4c0.7,0.2,1.5,0.4,2.2,0.6c0.7,0.2,1.3,0.5,1.7,0.9     l0.3,0.5c0.1,0.4,0.1,0.7,0.2,1.1c0.1,0.3,0.1,0.6,0.2,1c0.1,0.7,0.3,1.5,0.4,2.2c0.1,0.7,0.2,1.5,0.2,2.4     c0.2,0.7,0.3,1.4,0.5,2.2c0.2,0.7,0.3,1.4,0.5,2.2c0.2,1,0.4,2,0.6,3c0.2,0.9,0.5,1.8,0.9,2.7c0.4,0,0.6,0,0.6,0.1     c0.4-0.2,0.9-0.3,1.5-0.3l0.7-0.1l0.2,0.6c0.1,0.1,0.2,0.2,0.3,0.3c0.1,0.1,0.2,0.2,0.4,0.3c0.6,0,1,0.2,1.3,0.3     c0.3,0.2,0.5,0.4,0.7,0.6c0.1,0.1,0.2,0.2,0.3,0.2c0.1,0.1,0.2,0.2,0.3,0.2l1,0.4l-0.5,1c-0.4,0.7-1,1.5-1.8,2.2     c-0.8,0.7-1.7,1.3-2.7,1.8c0.1,0.2,0.1,0.5,0.1,0.7c0,0.2,0.1,0.5,0.1,0.7c0.1,0.7,0.3,1.4,0.3,2.2c0.1,0.8,0.1,1.6,0,2.4     c-0.4,0.9-0.8,1.8-1.3,2.5c-0.5,0.7-1,1.4-1.7,2c-0.7,0.6-1.4,1.1-2.2,1.4c-0.8,0.4-1.7,0.6-2.6,0.6c-0.5-0.1-0.9-0.2-1.1-0.4     c-0.2-0.1-0.4-0.3-0.6-0.4c-0.3-0.2-0.5-0.4-0.7-0.4l-0.7-0.3l0.2-0.8c0.1-0.3,0.1-0.5,0-0.7c-0.1-0.2-0.4-0.5-0.8-0.9     c-0.1-0.1-0.3-0.2-0.4-0.3c-0.1-0.1-0.2-0.3-0.4-0.4l-1.1-1.2l1.8-0.5c1.1-0.3,1.8-0.6,2.1-1.1c0.4-0.4,0.5-1.2,0.4-2.4     c-0.5-0.1-1-0.2-1.4-0.2c-0.3,0-0.5,0-0.8,0.1c-0.6,0.1-1.1,0.3-1.7,0.4c-0.8,0.2-1.6,0.4-2.4,0.6c-0.8,0.2-1.6,0.2-2.6,0.2     c-0.6,0-1.2-0.1-1.9-0.2l-0.6-0.1l-0.2-0.6c0-0.1,0-0.2-0.1-0.2c-0.1-0.1-0.2-0.2-0.2-0.2c-0.2-0.2-0.4-0.5-0.6-0.9     c-0.2-0.4-0.3-0.8-0.2-1.3c-0.2-0.4-0.4-0.8-0.4-1.2c-0.1,0.3-0.3,0.6-0.3,0.8c-0.1,0.3-0.2,0.5-0.2,0.8l-0.2,0.7l-0.7,0.1     c-0.1,0.1-0.1,0.2-0.2,0.3c-0.1,0.1-0.1,0.2,0,0.3l0.2,0.6l-0.5,0.5c-0.1,0.1-0.2,0.2-0.3,0.3c-0.1,0.1-0.2,0.1-0.3,0.2     c-0.1,0.4-0.2,0.8-0.3,1.1c-0.1,0.4-0.3,0.7-0.4,1.1c-0.2,0.6-0.3,1.1-0.5,1.7c-0.2,0.5-0.2,1.1-0.2,1.6l-0.2,0.7     c-0.2,0.3-0.4,0.5-0.7,0.6c-0.3,0.1-0.5,0.3-0.8,0.4c-0.4,0.1-0.6,0.3-0.7,0.4l-0.2,0.7l-0.8,0.1c-0.5,0.1-0.8,0.2-1,0.2     c-0.2,0-0.4,0.1-0.7,0.1l-0.7-0.1c-0.4-0.4-0.8-0.8-1-1c-0.3-0.2-0.6-0.4-0.9-0.6l-0.3-0.4c-0.1-0.3-0.2-0.5-0.3-0.8     c0-0.2-0.1-0.5-0.2-0.7c-0.1-0.5-0.2-0.8-0.3-1l-0.8-0.8l0.7-0.5l0.1-1.1c0.9-2.2,1.8-4.2,2.7-6.2c0.9-2,1.9-4,3-6.1     c0.3-0.7,0.6-1.4,1-2c0.3-0.7,0.7-1.4,1-2.1c0-0.1-0.1-0.3-0.1-0.5c0-0.2,0-0.3,0.1-0.6c0.5-0.7,0.9-1.4,1.2-1.9     c0.3-0.6,0.6-1.2,0.9-1.8c0.3-0.7,0.7-1.4,1-2.1c0.4-0.7,0.8-1.4,1.4-2.1l0.4-0.5l0.6,0.1c0.1-0.1,0.3-0.1,0.5-0.2     c0.2-0.1,0.4-0.1,0.6-0.1l1,0.2c1.2-0.5,2.2-1.3,3.1-2.3c0.9-1,1.8-2.2,2.7-3.7L288.1,45.6 M281.2,68.5c0.2,0,0.5-0.1,0.7-0.1     c0.2,0,0.5,0,0.7-0.1c1.2-0.1,2.4-0.2,3.5-0.3s2.2-0.3,3.5-0.5c-0.3-1.3-0.6-2.7-0.9-4c-0.3-1.4-0.7-2.7-1.1-4.1l-0.3,0.5     c-0.9,1-1.7,2-2.6,3.1c-0.8,1.1-1.5,2.2-2,3.1l-0.1,0.1C282.1,67,281.6,67.7,281.2,68.5 M287,40.3l-2.1,3l-0.6,0.9l0,0.1l0,0.1     c-0.8,1.2-1.6,2.3-2.4,3.2c-0.3,0.3-0.6,0.6-0.9,0.8h-0.2c-0.6,0-1.1,0.1-1.6,0.2l-2-0.2l-1.3,1.9l-0.3,0.4     c-0.7,0.8-1.3,1.7-1.8,2.6c-0.4,0.8-0.8,1.5-1.1,2.3c-0.3,0.5-0.5,1.1-0.8,1.6c-0.2,0.4-0.5,0.9-0.9,1.5l-0.3,0.5l-0.2,0.5     c-0.2,0.5-0.3,1-0.3,1.5c-0.2,0.4-0.3,0.7-0.5,1.1c-0.3,0.7-0.7,1.4-1,2.1c-1,2.1-2,4.2-3,6.2c-1,2-1.9,4.2-2.8,6.4l-0.2,0.6     l-2.8,2.2l3.2,3.2L263,83c0,0.1,0,0.1,0,0.2c0.1,0.6,0.3,1.3,0.6,1.9l0.2,0.3l0.2,0.3l0.3,0.4l0.6,0.7l0.8,0.4     c0.1,0,0.1,0.1,0.1,0.1c0.1,0.1,0.4,0.3,0.8,0.8l1,1l1.5,0.1l0.7,0.1l0.2,0h0.2c0.5,0,0.9,0,1.4-0.1c0.2,0,0.5-0.1,1-0.2l0.6-0.1     l2.7-0.4l0.4-1.6c0.8-0.5,1.6-1.1,2.1-2l0.3-0.4l0.2-0.5l0.2-0.7l0.2-0.6v-0.6c0-0.1,0-0.3,0.1-0.5c0.1-0.4,0.2-0.8,0.4-1.2     l1,0.1l0.5,0c0.8,0.1,1.6,0.2,2.4,0.2c0.1,0,0.2,0,0.3,0l1.3,1.5l1.1,1.2l0.1,0.1l0.1,0.1c0,0,0.1,0.1,0.1,0.1l-0.6,2.4l3,1.4     l0.6,0.3c0,0,0,0,0,0c0.3,0.2,0.6,0.5,1,0.7c0.6,0.4,1.4,0.7,2.3,0.9l0.5,0.1l0.5,0c1.4-0.1,2.8-0.4,4-1c1.2-0.5,2.2-1.2,3.2-2.1     c0.9-0.8,1.7-1.7,2.4-2.7c0.6-1,1.2-2,1.6-3.2l0.2-0.4l0.1-0.5c0.1-1.1,0.2-2.2,0-3.3c0-0.4-0.1-0.8-0.2-1.2     c0.3-0.2,0.6-0.5,1-0.8c1.1-1,2-2.1,2.7-3.3l0.5-1l2.1-3.9l-4.1-1.6l-0.4-0.1c-0.3-0.2-0.6-0.5-0.9-0.7c-0.3-0.2-0.6-0.4-1-0.6     l-0.7-2l-2.8,0.2c-0.1-0.7-0.3-1.4-0.4-2l0-0.1l0-0.1c-0.1-0.7-0.3-1.5-0.5-2.2c-0.1-0.6-0.3-1.3-0.4-1.9c0-0.9-0.1-1.7-0.2-2.4     c-0.1-0.8-0.2-1.6-0.4-2.4l0-0.1l0-0.1c-0.1-0.2-0.1-0.5-0.1-0.7c-0.1-0.3-0.1-0.7-0.2-1.1l-0.1-0.6l-0.3-0.6l-0.3-0.5l-0.3-0.5     l-0.4-0.4c-0.8-0.8-1.9-1.5-3.2-1.9c-0.8-0.2-1.5-0.5-2.3-0.7c-0.4-0.1-0.9-0.3-1.3-0.4c0,0,0,0,0,0l-0.6-0.4L287,40.3L287,40.3z     "/>
			<path fill="#99C7BB" d="M310.1,85.9c-0.4,0-0.9-0.1-1.7-0.2c-0.6-0.6-1.1-1.4-1.5-2.5c-0.4-1-0.8-2.2-1-3.4     c-0.2-1.2-0.3-2.4-0.3-3.6c0-1.2,0.2-2.2,0.6-3.2c0,0,0.2-0.5,0.5-1.3c0.3-0.8,0.8-1.9,1.3-3.1c0.5-1.3,1.1-2.7,1.8-4.2     c0.7-1.5,1.4-3.1,2-4.6c0.7-1.5,1.3-2.9,1.9-4.1c0.6-1.2,1.2-2.2,1.6-2.9c0.3-0.5,0.6-1,0.9-1.4c0.3-0.5,0.5-0.9,0.8-1.3     c0.4-0.6,0.8-1.2,1.1-1.8c0.3-0.6,0.7-1,1.1-1.5c0.4-0.4,0.9-0.8,1.4-1.2c0.5-0.3,1.1-0.6,1.8-0.9c0.4,0.2,0.8,0.4,1.1,0.6     c0.3,0.2,0.6,0.4,0.9,0.7l0.2,0.7c0.1,0.2,0.2,0.4,0.3,0.5c0.2,0.1,0.3,0.1,0.4,0.1c0.5,0.1,0.9,0.2,1.2,0.3     c0.3,0.1,0.7,0.2,1.1,0.2c0.1,0.2,0.3,0.4,0.4,0.6c0.1,0.2,0.3,0.4,0.4,0.6c0.7,1,1.3,2,1.8,3c0.5,1,0.5,2,0,3.1l0.1,0.6     c0.2,0.2,0.3,0.5,0.3,0.7c0,0.2,0,0.5-0.1,0.9c0,0.3-0.1,0.6-0.1,0.9c0,0.3,0,0.7,0.1,1.1l0.4,0.4c0.6,0.3,1.1,0.4,1.7,0.4     c0.7,0,1.4-0.2,1.9-0.5c0.6-0.3,1.1-0.6,1.6-1c0.4-0.3,0.8-0.5,1.1-0.7c0.3-0.2,0.7-0.3,1-0.4c0.7-0.7,1.4-1.3,2.1-1.9     c0.6-0.6,1.3-1.1,1.9-1.7c1.3-1,2.5-2.1,3.7-3.3c1.2-1.2,2.2-2.7,2.9-4.5c0.4-0.2,0.8-0.4,1.3-0.4c0.5,0,1,0.1,1.5,0.3     c0.5,0.2,1,0.4,1.5,0.7c0.1,0.1,0.2,0.1,0.3,0.2c0.1,0,0.2,0.1,0.3,0.2c0,0.4,0.2,0.7,0.5,1.1c0.2,0.1,0.3,0.2,0.4,0.3     c0.1,0,0.1,0.1,0.2,0.1c0.3,0.2,0.5,0.3,0.7,0.5c0.2,0.1,0.3,0.3,0.5,0.6c0.3,1,0.9,1.7,1.6,2.2c-0.1,0.4-0.1,0.8,0.1,1.1     s0.2,0.7,0.4,1.1c0.1,0.1,0.1,0.3,0.2,0.4c0,0.1,0.1,0.3,0.2,0.5l-1.2-0.1l0.2,1.2c0.1,0.6,0.1,1.3-0.1,2     c-0.2,0.7-0.4,1.3-0.7,1.8c0.1,1.1,0.1,1.9,0.1,2.5c0,0.6,0,1.2-0.1,1.7c-0.1,0.5-0.2,1-0.3,1.5c-0.2,0.5-0.4,1-0.6,1.5     c0.1,2.7-0.2,5.2-0.9,7.4c-0.8,2.2-1.6,4.3-2.5,6.3c-0.1,0.2-0.2,0.5-0.3,0.7c-0.1,0.2-0.2,0.4-0.3,0.6c-0.4,0.1-0.7,0.2-1.1,0.4     c-0.3,0.1-0.6,0.3-0.9,0.5c-0.4,0.2-0.8,0.5-1.2,0.6c-0.4,0.2-0.8,0.2-1.2,0.2c-1.7-1.2-2.6-3.4-2.6-6.5c-0.1-3.1,0.6-7,1.9-11.7     c0.2-0.2,0.4-0.4,0.3-0.8V65l-0.5-0.1c-0.2,0-0.3,0-0.5,0.1c-0.1,0-0.2,0.2-0.3,0.5c-1.1,0.8-2.4,1.7-3.7,2.5     c-1.3,0.9-2.7,1.7-4.1,2.4c-1.4,0.7-2.9,1.3-4.3,1.8c-1.5,0.5-2.9,0.7-4.3,0.7c-3.6,0-6.2-1.8-8.1-5.4l-0.5-1l-0.5,0.9     c-0.1,0.2-0.3,0.5-0.6,1c-0.3,0.5-0.5,1.1-0.8,1.8c-0.3,0.7-0.5,1.4-0.7,2.1c-0.2,0.7-0.3,1.3-0.2,1.9c-0.4,0.4-0.8,0.8-1.3,1.3     c-0.4,0.5-0.7,1.1-0.9,1.7c-0.1,0.2-0.1,0.3-0.1,0.5c0,0.2,0.1,0.3,0.2,0.5c0,0.2-0.1,0.4-0.2,0.5c-0.1,0.1-0.2,0.2-0.4,0.3     c-0.2,0.2-0.4,0.4-0.5,0.6c-0.2,0.2-0.3,0.4-0.5,0.7c-0.1,0.2-0.1,0.4-0.2,0.7c0,0.2-0.1,0.4-0.1,0.6c0,0.4-0.1,0.7-0.2,0.8     c-0.4,0.7-0.7,1.4-0.9,1.8s-0.5,0.8-0.8,1.1c-0.2,0.2-0.5,0.4-0.8,0.5C310.8,85.9,310.5,85.9,310.1,85.9z"/>
			<path d="M322.5,45c0.4,0.2,0.8,0.4,1.1,0.6c0.3,0.2,0.6,0.4,0.9,0.7l0.2,0.7c0.1,0.2,0.2,0.4,0.3,0.5c0.2,0.1,0.3,0.1,0.4,0.1     c0.5,0.1,0.9,0.2,1.2,0.3c0.3,0.1,0.7,0.2,1.1,0.2c0.1,0.2,0.3,0.4,0.4,0.6c0.1,0.2,0.3,0.4,0.4,0.6c0.7,1,1.3,2,1.8,3     c0.5,1,0.5,2,0,3.1l0.1,0.6c0.2,0.2,0.3,0.5,0.3,0.7s0,0.5-0.1,0.9c0,0.3-0.1,0.6-0.1,0.9c0,0.3,0,0.7,0.1,1.1l0.4,0.4     c0.6,0.3,1.1,0.4,1.7,0.4c0.7,0,1.4-0.2,1.9-0.5c0.6-0.3,1.1-0.6,1.6-1c0.4-0.3,0.8-0.5,1.1-0.7c0.3-0.2,0.7-0.3,1-0.4     c0.7-0.7,1.4-1.3,2.1-1.9c0.6-0.6,1.3-1.1,1.9-1.7c1.3-1,2.5-2.1,3.7-3.3c1.2-1.2,2.2-2.7,2.9-4.5c0.4-0.2,0.8-0.4,1.3-0.4     c0.5,0,1,0.1,1.5,0.3c0.5,0.2,1,0.4,1.5,0.7c0.1,0.1,0.2,0.1,0.3,0.2c0.1,0,0.2,0.1,0.3,0.2c0,0.4,0.2,0.7,0.5,1.1     c0.2,0.1,0.3,0.2,0.4,0.3c0.1,0,0.1,0.1,0.2,0.1c0.3,0.2,0.5,0.3,0.7,0.5c0.2,0.1,0.3,0.3,0.5,0.6c0.3,1,0.9,1.7,1.6,2.2     c-0.1,0.4-0.1,0.8,0.1,1.1c0.1,0.4,0.2,0.7,0.4,1.1c0.1,0.1,0.1,0.3,0.2,0.4c0,0.1,0.1,0.3,0.2,0.5l-1.2-0.1l0.2,1.2     c0.1,0.6,0.1,1.3-0.1,2c-0.2,0.7-0.4,1.3-0.7,1.8c0.1,1.1,0.1,1.9,0.1,2.5c0,0.6,0,1.2-0.1,1.7c-0.1,0.5-0.2,1-0.3,1.5     c-0.2,0.5-0.4,1-0.6,1.5c0.1,2.7-0.2,5.2-0.9,7.4c-0.8,2.2-1.6,4.3-2.5,6.3c-0.1,0.2-0.2,0.5-0.3,0.7c-0.1,0.2-0.2,0.4-0.3,0.6     c-0.4,0.1-0.7,0.2-1.1,0.4c-0.3,0.1-0.6,0.3-0.9,0.5c-0.4,0.2-0.8,0.5-1.2,0.6c-0.4,0.2-0.8,0.2-1.2,0.2     c-1.7-1.2-2.6-3.4-2.6-6.5c-0.1-3.1,0.6-7,1.9-11.7c0.2-0.2,0.4-0.4,0.3-0.8V65l-0.5-0.1c-0.2,0-0.3,0-0.5,0.1     c-0.1,0-0.2,0.2-0.3,0.5c-1.1,0.8-2.4,1.7-3.7,2.5c-1.3,0.9-2.7,1.7-4.1,2.4c-1.4,0.7-2.9,1.3-4.3,1.8c-1.5,0.5-2.9,0.7-4.3,0.7     c-3.6,0-6.2-1.8-8.1-5.4l-0.5-1l-0.5,0.9c-0.1,0.2-0.3,0.5-0.6,1c-0.3,0.5-0.5,1.1-0.8,1.8c-0.3,0.7-0.5,1.4-0.7,2.1     c-0.2,0.7-0.3,1.3-0.2,1.9c-0.4,0.4-0.8,0.8-1.3,1.3c-0.4,0.5-0.7,1.1-0.9,1.7c-0.1,0.2-0.1,0.3-0.1,0.5c0,0.2,0.1,0.3,0.2,0.5     c0,0.2-0.1,0.4-0.2,0.5c-0.1,0.1-0.2,0.2-0.4,0.3c-0.2,0.2-0.4,0.4-0.5,0.6c-0.2,0.2-0.3,0.4-0.5,0.7c-0.1,0.2-0.1,0.4-0.2,0.7     c0,0.2-0.1,0.4-0.1,0.6c0,0.4-0.1,0.7-0.2,0.8c-0.4,0.7-0.7,1.4-0.9,1.8c-0.3,0.5-0.5,0.8-0.8,1.1c-0.2,0.2-0.5,0.4-0.8,0.5     c-0.3,0.1-0.6,0.1-0.9,0.1c-0.4,0-0.9-0.1-1.7-0.2c-0.6-0.6-1.1-1.4-1.5-2.5c-0.4-1-0.8-2.2-1-3.4c-0.2-1.2-0.3-2.4-0.3-3.6     c0-1.2,0.2-2.2,0.6-3.2c0,0,0.2-0.5,0.5-1.3c0.3-0.8,0.8-1.9,1.3-3.1c0.5-1.3,1.1-2.7,1.8-4.2c0.7-1.5,1.4-3.1,2-4.6     c0.7-1.5,1.3-2.9,1.9-4.1c0.6-1.2,1.2-2.2,1.6-2.9c0.3-0.5,0.6-1,0.9-1.4c0.3-0.5,0.5-0.9,0.8-1.3c0.4-0.6,0.8-1.2,1.1-1.8     c0.3-0.6,0.7-1,1.1-1.5c0.4-0.4,0.9-0.8,1.4-1.2C321.2,45.6,321.8,45.3,322.5,45 M322.6,40.8l-1.4,0.5c-1,0.4-1.9,0.8-2.7,1.3     c-0.7,0.5-1.4,1.1-2,1.8c-0.6,0.6-1.1,1.3-1.6,2.1c-0.3,0.5-0.7,1.1-1.1,1.8c-0.3,0.4-0.5,0.9-0.8,1.4c-0.2,0.4-0.5,0.8-0.8,1.2     c-0.6,0.8-1.2,1.9-1.9,3.2c-0.6,1.3-1.3,2.7-2,4.2c-0.7,1.5-1.4,3-2,4.6c-0.7,1.6-1.3,3-1.8,4.3c-0.5,1.3-1,2.3-1.3,3.2     c-0.3,0.6-0.4,1.1-0.6,1.4c-0.5,1.3-0.8,2.9-0.9,4.5c0,1.5,0.1,2.9,0.4,4.4c0.3,1.5,0.7,2.8,1.3,4.1c0.6,1.5,1.4,2.7,2.3,3.6     l0.9,1l1.4,0.2c1,0.1,1.7,0.2,2.2,0.2c0.8,0,1.5-0.1,2.2-0.3c0.9-0.3,1.6-0.8,2.3-1.5c0.5-0.5,1-1.2,1.4-2c0.3-0.5,0.6-1.1,1-1.9     c0.4-0.6,0.6-1.4,0.6-2.3c0,0,0,0,0,0c0.2-0.2,0.4-0.3,0.5-0.5c0.7-0.7,1.2-1.6,1.3-2.7l0.2-1.1l0,0c0.2-0.2,0.4-0.5,0.6-0.7     l1.5-1.4l-0.1-1.1c2.5,1.8,5.1,2.3,7.3,2.3c1.8,0,3.6-0.3,5.5-0.9c1.7-0.5,3.3-1.2,4.9-2.1c0.5-0.3,1-0.5,1.5-0.8     c-0.3,1.8-0.4,3.5-0.4,5c0.1,4.3,1.5,7.6,4.3,9.6l1,0.8h1.3c0.9,0,1.9-0.2,2.7-0.5c0.6-0.2,1.2-0.6,1.8-0.9     c0.1-0.1,0.2-0.1,0.4-0.2c0.1-0.1,0.3-0.1,0.5-0.2l2-0.6l0.7-2c0,0,0-0.1,0.1-0.1c0.1-0.3,0.3-0.6,0.4-0.9     c0.9-2.1,1.8-4.3,2.6-6.6c0.8-2.4,1.2-5.1,1.2-7.9c0.1-0.4,0.3-0.7,0.4-1c0.2-0.7,0.4-1.5,0.5-2.2c0.1-0.7,0.1-1.5,0.1-2.3     c0-0.5,0-1.1-0.1-1.8c0.2-0.4,0.3-0.9,0.5-1.4l3.4,0.3l-2.4-6l0-0.1c-0.1-0.3-0.2-0.6-0.3-0.9c0-0.1-0.1-0.2-0.1-0.3l0.4-2.1     l-2-1.5c-0.1,0-0.1-0.1-0.2-0.3l-0.1-0.2l-0.1-0.2c-0.4-0.9-1-1.7-1.7-2.2c-0.1,0-0.1-0.1-0.2-0.1v-0.7l-1.8-1.2     c-0.2-0.2-0.5-0.3-0.7-0.4l-0.1,0l-0.2-0.1c-0.6-0.3-1.2-0.6-1.8-0.8c-1-0.4-2-0.6-2.9-0.6c-1.2,0-2.4,0.3-3.4,1l-1.1,0.7     l-0.5,1.2c-0.5,1.3-1.2,2.3-2,3.1c-1.1,1.1-2.3,2.1-3.4,3.1l0,0l0,0c-0.7,0.6-1.4,1.2-2,1.7c-0.5,0.4-1,0.9-1.5,1.4     c-0.3,0.1-0.5,0.2-0.8,0.4c-0.3,0.2-0.6,0.4-1,0.6c0.4-1.7,0.2-3.3-0.6-4.9c-0.6-1.1-1.2-2.3-2.1-3.5l-0.1-0.1l-0.1-0.1     c0,0,0,0-0.1-0.1c-0.2-0.3-0.3-0.6-0.5-0.8l-1-1.6l-1.9-0.2c0,0,0,0,0,0l-0.6-0.6c-0.5-0.6-1.1-1.1-1.8-1.5     c-0.5-0.3-1.1-0.6-1.7-0.8L322.6,40.8L322.6,40.8z"/>
			<path fill="#99C7BB" d="M360.9,70.1c0-0.1,0.1-0.2,0.2-0.2c0.1,0,0.2,0,0.3,0c-0.3-0.3-0.5-0.7-0.5-1.1c-0.1-0.5-0.2-0.9-0.5-1.2     c0.1-0.2,0.1-0.4,0.2-0.5c0.1-0.2,0.2-0.2,0.5-0.2c-0.1-0.8-0.1-1.5,0.1-2.2c0.1-0.7,0.4-1.3,0.7-1.9c0.3-0.6,0.7-1.2,1.1-1.8     c0.4-0.6,0.8-1.2,1.2-1.8c0.3-0.1,0.5,0,0.6,0.1c0.1,0.1,0.2,0.1,0.4-0.1c0.6-0.4,1-0.8,1.2-1.3s0.3-1,0.3-1.6     c0.3-0.9,0.7-1.8,1.1-2.7c0.4-0.9,0.9-1.8,1.4-2.5c0.5-0.8,1.1-1.5,1.7-2.1c0.6-0.6,1.3-1,2-1.4c0.5-0.4,1.1-0.8,1.9-1.2     c0.8-0.4,1.6-0.6,2.5-0.8c0.9-0.2,1.8-0.3,2.7-0.3c0.9,0,1.8,0.1,2.6,0.3c0.2,0.1,0.3,0,0.3-0.1c0-0.2,0.1-0.2,0.3-0.2     c1.8,0.2,3.4,0.6,4.8,1.1c1.4,0.5,2.6,1.2,3.6,2.1c0.7,1.1,1.3,2.2,1.9,3.4c0.6,1.2,1.1,2.5,1.4,3.8c0.3,1.3,0.5,2.7,0.5,4.1     c0,1.4-0.3,2.8-0.9,4.3c-1.2,1.6-2.8,2.8-4.5,3.8c-1.8,0.9-3.7,1.7-5.7,2.3c-2,0.6-4.2,1.1-6.3,1.5c-2.2,0.4-4.3,0.8-6.4,1.3     c0,1,0,2,0,3.1c0,1.1-0.2,2.2-0.3,3.3c-0.2,1.1-0.5,2.1-0.9,3.2c-0.4,1-0.9,2-1.5,2.9c-0.7,0-1.4,0-2.2,0.2     c-0.8,0.2-1.4,0.4-2.1,0.5c-0.3-0.2-0.6-0.3-0.8-0.5c-0.3-0.2-0.6-0.3-1-0.3c0.1-0.4,0-0.9-0.3-1.3c-0.3-0.5-0.6-0.9-0.9-1.4     c-0.3-0.4-0.5-0.9-0.6-1.3c-0.1-0.4,0.1-0.8,0.6-1.2c-0.3-0.2-0.4-0.6-0.4-1.2c0.1,0.1,0.3,0.2,0.5,0.2c-0.1-0.6,0-1.4,0.2-2.3     c0.2-0.9,0.4-1.8,0.6-2.6c0.2-0.9,0.2-1.7,0.1-2.4C362.1,71,361.7,70.5,360.9,70.1z M374.8,57.7c-0.1,0.4-0.3,0.7-0.3,1     c-0.1,0.3-0.2,0.6-0.3,0.8c-0.1,0.2-0.2,0.5-0.3,0.7c-0.1,0.2-0.3,0.5-0.4,0.9c0.1,0.2,0.2,0.4,0.4,0.5s0.4,0.3,0.4,0.5     c0.5-0.2,1-0.4,1.5-0.6c0.5-0.1,1-0.2,1.5-0.3c0.5-0.1,1-0.2,1.5-0.3c0.5-0.1,1-0.3,1.5-0.5c0.5-0.2,1.1-0.5,1.7-0.6     s1.2-0.3,1.7-0.5c0.6-0.2,1.1-0.4,1.7-0.6c0.5-0.2,1-0.5,1.4-0.9c-0.5-0.5-1.2-0.9-2.2-1.2c-1-0.4-2.1-0.6-3.2-0.7     c-1.2-0.1-2.3,0-3.5,0.2C376.6,56.4,375.6,56.9,374.8,57.7z"/>
			<path d="M382.9,45.2c1.8,0.2,3.4,0.6,4.8,1.1c1.4,0.5,2.6,1.2,3.6,2.1c0.7,1.1,1.3,2.2,1.9,3.4c0.6,1.2,1.1,2.5,1.4,3.8     c0.3,1.3,0.5,2.7,0.5,4.1c0,1.4-0.3,2.8-0.9,4.3c-1.2,1.6-2.8,2.8-4.5,3.8c-1.8,0.9-3.7,1.7-5.7,2.3c-2,0.6-4.2,1.1-6.3,1.5     c-2.2,0.4-4.3,0.8-6.4,1.3c0,1,0,2,0,3.1c0,1.1-0.2,2.2-0.3,3.3c-0.2,1.1-0.5,2.1-0.9,3.2c-0.4,1-0.9,2-1.5,2.9     c-0.1,0-0.2,0-0.4,0c-0.6,0-1.2,0.1-1.9,0.2c-0.8,0.2-1.4,0.4-2.1,0.5c-0.3-0.2-0.6-0.3-0.8-0.5c-0.3-0.2-0.6-0.3-1-0.3     c0.1-0.4,0-0.9-0.3-1.3c-0.3-0.5-0.6-0.9-0.9-1.4c-0.3-0.4-0.5-0.9-0.6-1.3c-0.1-0.4,0.1-0.8,0.6-1.2c-0.3-0.2-0.4-0.6-0.4-1.2     c0.1,0.1,0.3,0.2,0.5,0.2c-0.1-0.6,0-1.4,0.2-2.3c0.2-0.9,0.4-1.8,0.6-2.6c0.2-0.9,0.2-1.7,0.1-2.4c-0.1-0.7-0.5-1.3-1.3-1.6     c0-0.1,0.1-0.2,0.2-0.2c0,0,0,0,0,0c0,0,0.1,0,0.1,0c0.1,0,0.2,0,0.2,0c-0.3-0.3-0.5-0.7-0.5-1.1c-0.1-0.5-0.2-0.9-0.5-1.2     c0.1-0.2,0.1-0.4,0.2-0.5c0-0.1,0.2-0.2,0.3-0.2c0,0,0.1,0,0.1,0c-0.1-0.8-0.1-1.5,0.1-2.2c0.1-0.7,0.4-1.3,0.7-1.9     c0.3-0.6,0.7-1.2,1.1-1.8c0.4-0.6,0.8-1.2,1.2-1.8c0.1,0,0.2,0,0.3,0c0.1,0,0.2,0,0.3,0.1c0,0.1,0.1,0.1,0.1,0.1     c0.1,0,0.2-0.1,0.3-0.2c0.6-0.4,1-0.8,1.2-1.3c0.2-0.5,0.3-1,0.3-1.6c0.3-0.9,0.7-1.8,1.1-2.7c0.4-0.9,0.9-1.8,1.4-2.5     c0.5-0.8,1.1-1.5,1.7-2.1c0.6-0.6,1.3-1,2-1.4c0.5-0.4,1.1-0.8,1.9-1.2c0.8-0.4,1.6-0.6,2.5-0.8c0.9-0.2,1.8-0.3,2.7-0.3     c0.1,0,0.1,0,0.2,0c0.8,0,1.6,0.1,2.4,0.3c0.1,0,0.1,0,0.1,0c0.1,0,0.2-0.1,0.2-0.2C382.7,45.3,382.8,45.2,382.9,45.2      M374.3,62.1c0.5-0.2,1-0.4,1.5-0.6c0.5-0.1,1-0.2,1.5-0.3c0.5-0.1,1-0.2,1.5-0.3c0.5-0.1,1-0.3,1.5-0.5c0.5-0.2,1.1-0.5,1.7-0.6     c0.6-0.2,1.2-0.3,1.7-0.5c0.6-0.2,1.1-0.4,1.7-0.6c0.5-0.2,1-0.5,1.4-0.9c-0.5-0.5-1.2-0.9-2.2-1.2c-1-0.4-2.1-0.6-3.2-0.7     c-0.3,0-0.6,0-0.9,0c-0.9,0-1.7,0.1-2.6,0.3c-1.2,0.2-2.2,0.8-3,1.5c-0.1,0.4-0.3,0.7-0.3,1c-0.1,0.3-0.2,0.6-0.3,0.8     c-0.1,0.2-0.2,0.5-0.3,0.7c-0.1,0.2-0.3,0.5-0.4,0.9c0.1,0.2,0.2,0.4,0.4,0.5C374,61.7,374.2,61.9,374.3,62.1 M383.1,41.2h-0.2     c-0.4,0-0.8,0.1-1.2,0.2c-0.6-0.1-1.1-0.1-1.7-0.1c-0.1,0-0.2,0-0.3,0c-1.2,0-2.4,0.2-3.5,0.4c-1.1,0.3-2.2,0.6-3.3,1.1     c-0.9,0.4-1.7,0.9-2.4,1.4c-0.9,0.5-1.8,1.1-2.6,1.9c-0.8,0.8-1.5,1.7-2.2,2.7c-0.7,1-1.3,2-1.8,3.1c-0.5,1-0.9,2-1.2,3.1     l-0.2,0.4l-1,0.2l-0.9,1.4c-0.4,0.6-0.7,1.1-1.1,1.7c-0.5,0.7-1,1.5-1.4,2.3c-0.5,0.9-0.8,1.9-1,2.9c-0.1,0.5-0.2,1-0.2,1.5     c-0.1,0.2-0.2,0.4-0.2,0.6c0,0.1,0,0.1-0.1,0.2l-0.9,2.3l0.9,1.1v0.9l-0.5,2.1l0.5,0.2v6.2c0,0.2,0,0.4,0,0.7     c-0.3,0.8-0.3,1.6-0.1,2.5c0.2,1,0.6,1.9,1.2,2.8c0.1,0.2,0.2,0.4,0.4,0.6l-0.9,3.4l4.3,0.4c0.1,0.1,0.3,0.2,0.4,0.2l1.5,0.9     l1.7-0.5c0.5-0.2,1.1-0.3,1.8-0.5c0.3-0.1,0.7-0.1,1-0.1c0.1,0,0.1,0,0.2,0l2.1,0.1l1.3-1.7c0.9-1.2,1.5-2.5,2-3.8     c0.4-1.2,0.8-2.5,1-3.8c0.2-1.3,0.4-2.6,0.4-3.8c0,0,0,0,0,0c1-0.2,2.1-0.4,3.1-0.6c2.3-0.4,4.6-1,6.8-1.6     c2.3-0.7,4.4-1.6,6.4-2.6c2.2-1.2,4.2-2.8,5.8-4.8l0.4-0.5l0.2-0.5c0.7-1.9,1.1-3.7,1.2-5.6c0-1.8-0.1-3.5-0.6-5.2     c-0.4-1.6-1-3.2-1.7-4.6c-0.7-1.3-1.4-2.6-2.1-3.8l-0.3-0.5l-0.4-0.4c-1.4-1.2-3-2.2-4.9-2.9c-1.7-0.6-3.6-1-5.6-1.3L383.1,41.2     L383.1,41.2z"/>
		</g>
	</g>
</g>
</svg>
</svg>
